%TF.GenerationSoftware,KiCad,Pcbnew,6.0.8-f2edbf62ab~116~ubuntu20.04.1*%
%TF.CreationDate,2022-11-14T20:46:32+01:00*%
%TF.ProjectId,MIDI_OUT,4d494449-5f4f-4555-942e-6b696361645f,2.0*%
%TF.SameCoordinates,Original*%
%TF.FileFunction,Legend,Bot*%
%TF.FilePolarity,Positive*%
%FSLAX46Y46*%
G04 Gerber Fmt 4.6, Leading zero omitted, Abs format (unit mm)*
G04 Created by KiCad (PCBNEW 6.0.8-f2edbf62ab~116~ubuntu20.04.1) date 2022-11-14 20:46:32*
%MOMM*%
%LPD*%
G01*
G04 APERTURE LIST*
%ADD10C,0.007000*%
%ADD11C,0.100000*%
%ADD12C,2.499360*%
G04 APERTURE END LIST*
D10*
G36*
X73679357Y-47295329D02*
G01*
X73336722Y-47295329D01*
X73336722Y-46952694D01*
X73679357Y-46952694D01*
X73679357Y-47295329D01*
G37*
X73679357Y-47295329D02*
X73336722Y-47295329D01*
X73336722Y-46952694D01*
X73679357Y-46952694D01*
X73679357Y-47295329D01*
G36*
X74707263Y-47980600D02*
G01*
X74364628Y-47980600D01*
X74364628Y-47295329D01*
X74707263Y-47295329D01*
X74707263Y-47980600D01*
G37*
X74707263Y-47980600D02*
X74364628Y-47980600D01*
X74364628Y-47295329D01*
X74707263Y-47295329D01*
X74707263Y-47980600D01*
G36*
X75049898Y-47295329D02*
G01*
X74707263Y-47295329D01*
X74707263Y-46952694D01*
X75049898Y-46952694D01*
X75049898Y-47295329D01*
G37*
X75049898Y-47295329D02*
X74707263Y-47295329D01*
X74707263Y-46952694D01*
X75049898Y-46952694D01*
X75049898Y-47295329D01*
G36*
X75392534Y-47980600D02*
G01*
X75049898Y-47980600D01*
X75049898Y-47295329D01*
X75392534Y-47295329D01*
X75392534Y-47980600D01*
G37*
X75392534Y-47980600D02*
X75049898Y-47980600D01*
X75049898Y-47295329D01*
X75392534Y-47295329D01*
X75392534Y-47980600D01*
G36*
X73336722Y-47980600D02*
G01*
X72994086Y-47980600D01*
X72994086Y-47295329D01*
X73336722Y-47295329D01*
X73336722Y-47980600D01*
G37*
X73336722Y-47980600D02*
X72994086Y-47980600D01*
X72994086Y-47295329D01*
X73336722Y-47295329D01*
X73336722Y-47980600D01*
G36*
X74021992Y-47980600D02*
G01*
X73679357Y-47980600D01*
X73679357Y-47295329D01*
X74021992Y-47295329D01*
X74021992Y-47980600D01*
G37*
X74021992Y-47980600D02*
X73679357Y-47980600D01*
X73679357Y-47295329D01*
X74021992Y-47295329D01*
X74021992Y-47980600D01*
G36*
X77448346Y-49693777D02*
G01*
X77448346Y-50036412D01*
X75735169Y-50036412D01*
X75735169Y-50379048D01*
X75392534Y-50379048D01*
X75392534Y-50721684D01*
X75049898Y-50721684D01*
X75049898Y-51064319D01*
X77790982Y-51064319D01*
X77790982Y-51406954D01*
X75049898Y-51406954D01*
X75049898Y-51064319D01*
X74364628Y-51064319D01*
X74364628Y-50721684D01*
X73679357Y-50721684D01*
X73679357Y-50379048D01*
X73336722Y-50379048D01*
X73336722Y-50036412D01*
X71966180Y-50036412D01*
X71966180Y-50379048D01*
X71623544Y-50379048D01*
X71623544Y-51064319D01*
X74364628Y-51064319D01*
X74364628Y-51406954D01*
X71623544Y-51406954D01*
X71623544Y-51064319D01*
X71280909Y-51064319D01*
X71280909Y-50379048D01*
X71623544Y-50379048D01*
X71623544Y-50036412D01*
X71966180Y-50036412D01*
X71966180Y-49693777D01*
X71623544Y-49693777D01*
X71623544Y-49351142D01*
X72308815Y-49351142D01*
X72651450Y-49351142D01*
X72651450Y-49693777D01*
X76077805Y-49693777D01*
X76077805Y-49351142D01*
X76420440Y-49351142D01*
X76420440Y-47980600D01*
X76077805Y-47980600D01*
X76077805Y-47637965D01*
X75735169Y-47637965D01*
X75735169Y-46610059D01*
X75392534Y-46610059D01*
X75392534Y-46267423D01*
X73336722Y-46267423D01*
X73336722Y-46610059D01*
X72994086Y-46610059D01*
X72994086Y-47295329D01*
X72651450Y-47295329D01*
X72651450Y-48323236D01*
X72308815Y-48323236D01*
X72308815Y-49351142D01*
X71623544Y-49351142D01*
X71280909Y-49351142D01*
X71280909Y-47980600D01*
X71623544Y-47980600D01*
X71623544Y-47637965D01*
X71966180Y-47637965D01*
X71966180Y-46952694D01*
X72308815Y-46952694D01*
X72308815Y-46267423D01*
X72651450Y-46267423D01*
X72651450Y-45924788D01*
X72994086Y-45924788D01*
X72994086Y-45582152D01*
X73679357Y-45582152D01*
X73679357Y-45239517D01*
X75735169Y-45239517D01*
X75735169Y-45582152D01*
X76420440Y-45582152D01*
X76420440Y-45924788D01*
X76763075Y-45924788D01*
X76763075Y-46267423D01*
X77105711Y-46267423D01*
X77105711Y-46952694D01*
X77448346Y-46952694D01*
X77448346Y-47295329D01*
X77790982Y-47295329D01*
X77790982Y-47980600D01*
X78133617Y-47980600D01*
X78133617Y-49351142D01*
X77790982Y-49351142D01*
X77790982Y-49693777D01*
X77448346Y-49693777D01*
G37*
X77448346Y-49693777D02*
X77448346Y-50036412D01*
X75735169Y-50036412D01*
X75735169Y-50379048D01*
X75392534Y-50379048D01*
X75392534Y-50721684D01*
X75049898Y-50721684D01*
X75049898Y-51064319D01*
X77790982Y-51064319D01*
X77790982Y-51406954D01*
X75049898Y-51406954D01*
X75049898Y-51064319D01*
X74364628Y-51064319D01*
X74364628Y-50721684D01*
X73679357Y-50721684D01*
X73679357Y-50379048D01*
X73336722Y-50379048D01*
X73336722Y-50036412D01*
X71966180Y-50036412D01*
X71966180Y-50379048D01*
X71623544Y-50379048D01*
X71623544Y-51064319D01*
X74364628Y-51064319D01*
X74364628Y-51406954D01*
X71623544Y-51406954D01*
X71623544Y-51064319D01*
X71280909Y-51064319D01*
X71280909Y-50379048D01*
X71623544Y-50379048D01*
X71623544Y-50036412D01*
X71966180Y-50036412D01*
X71966180Y-49693777D01*
X71623544Y-49693777D01*
X71623544Y-49351142D01*
X72308815Y-49351142D01*
X72651450Y-49351142D01*
X72651450Y-49693777D01*
X76077805Y-49693777D01*
X76077805Y-49351142D01*
X76420440Y-49351142D01*
X76420440Y-47980600D01*
X76077805Y-47980600D01*
X76077805Y-47637965D01*
X75735169Y-47637965D01*
X75735169Y-46610059D01*
X75392534Y-46610059D01*
X75392534Y-46267423D01*
X73336722Y-46267423D01*
X73336722Y-46610059D01*
X72994086Y-46610059D01*
X72994086Y-47295329D01*
X72651450Y-47295329D01*
X72651450Y-48323236D01*
X72308815Y-48323236D01*
X72308815Y-49351142D01*
X71623544Y-49351142D01*
X71280909Y-49351142D01*
X71280909Y-47980600D01*
X71623544Y-47980600D01*
X71623544Y-47637965D01*
X71966180Y-47637965D01*
X71966180Y-46952694D01*
X72308815Y-46952694D01*
X72308815Y-46267423D01*
X72651450Y-46267423D01*
X72651450Y-45924788D01*
X72994086Y-45924788D01*
X72994086Y-45582152D01*
X73679357Y-45582152D01*
X73679357Y-45239517D01*
X75735169Y-45239517D01*
X75735169Y-45582152D01*
X76420440Y-45582152D01*
X76420440Y-45924788D01*
X76763075Y-45924788D01*
X76763075Y-46267423D01*
X77105711Y-46267423D01*
X77105711Y-46952694D01*
X77448346Y-46952694D01*
X77448346Y-47295329D01*
X77790982Y-47295329D01*
X77790982Y-47980600D01*
X78133617Y-47980600D01*
X78133617Y-49351142D01*
X77790982Y-49351142D01*
X77790982Y-49693777D01*
X77448346Y-49693777D01*
G36*
X77790982Y-50036412D02*
G01*
X77790982Y-50379048D01*
X78133617Y-50379048D01*
X78133617Y-51064319D01*
X77790982Y-51064319D01*
X77790982Y-50379048D01*
X77448346Y-50379048D01*
X77448346Y-50036412D01*
X77790982Y-50036412D01*
G37*
X77790982Y-50036412D02*
X77790982Y-50379048D01*
X78133617Y-50379048D01*
X78133617Y-51064319D01*
X77790982Y-51064319D01*
X77790982Y-50379048D01*
X77448346Y-50379048D01*
X77448346Y-50036412D01*
X77790982Y-50036412D01*
D11*
X78209906Y-61043366D02*
X78209906Y-60343366D01*
X77943240Y-60343366D01*
X77876573Y-60376700D01*
X77843240Y-60410033D01*
X77809906Y-60476700D01*
X77809906Y-60576700D01*
X77843240Y-60643366D01*
X77876573Y-60676700D01*
X77943240Y-60710033D01*
X78209906Y-60710033D01*
X77209906Y-61043366D02*
X77209906Y-60676700D01*
X77243240Y-60610033D01*
X77309906Y-60576700D01*
X77443240Y-60576700D01*
X77509906Y-60610033D01*
X77209906Y-61010033D02*
X77276573Y-61043366D01*
X77443240Y-61043366D01*
X77509906Y-61010033D01*
X77543240Y-60943366D01*
X77543240Y-60876700D01*
X77509906Y-60810033D01*
X77443240Y-60776700D01*
X77276573Y-60776700D01*
X77209906Y-60743366D01*
X76976573Y-60576700D02*
X76709906Y-60576700D01*
X76876573Y-60343366D02*
X76876573Y-60943366D01*
X76843240Y-61010033D01*
X76776573Y-61043366D01*
X76709906Y-61043366D01*
X76476573Y-61043366D02*
X76476573Y-60576700D01*
X76476573Y-60710033D02*
X76443240Y-60643366D01*
X76409906Y-60610033D01*
X76343240Y-60576700D01*
X76276573Y-60576700D01*
X76043240Y-61043366D02*
X76043240Y-60576700D01*
X76043240Y-60343366D02*
X76076573Y-60376700D01*
X76043240Y-60410033D01*
X76009906Y-60376700D01*
X76043240Y-60343366D01*
X76043240Y-60410033D01*
X75409906Y-61010033D02*
X75476573Y-61043366D01*
X75609906Y-61043366D01*
X75676573Y-61010033D01*
X75709906Y-60976700D01*
X75743240Y-60910033D01*
X75743240Y-60710033D01*
X75709906Y-60643366D01*
X75676573Y-60610033D01*
X75609906Y-60576700D01*
X75476573Y-60576700D01*
X75409906Y-60610033D01*
X75109906Y-61043366D02*
X75109906Y-60343366D01*
X75043240Y-60776700D02*
X74843240Y-61043366D01*
X74843240Y-60576700D02*
X75109906Y-60843366D01*
X74009906Y-61043366D02*
X74009906Y-60343366D01*
X73743240Y-60343366D01*
X73676573Y-60376700D01*
X73643240Y-60410033D01*
X73609906Y-60476700D01*
X73609906Y-60576700D01*
X73643240Y-60643366D01*
X73676573Y-60676700D01*
X73743240Y-60710033D01*
X74009906Y-60710033D01*
X73043240Y-61010033D02*
X73109906Y-61043366D01*
X73243240Y-61043366D01*
X73309906Y-61010033D01*
X73343240Y-60943366D01*
X73343240Y-60676700D01*
X73309906Y-60610033D01*
X73243240Y-60576700D01*
X73109906Y-60576700D01*
X73043240Y-60610033D01*
X73009906Y-60676700D01*
X73009906Y-60743366D01*
X73343240Y-60810033D01*
X72409906Y-61043366D02*
X72409906Y-60343366D01*
X72409906Y-61010033D02*
X72476573Y-61043366D01*
X72609906Y-61043366D01*
X72676573Y-61010033D01*
X72709906Y-60976700D01*
X72743240Y-60910033D01*
X72743240Y-60710033D01*
X72709906Y-60643366D01*
X72676573Y-60610033D01*
X72609906Y-60576700D01*
X72476573Y-60576700D01*
X72409906Y-60610033D01*
X71809906Y-61010033D02*
X71876573Y-61043366D01*
X72009906Y-61043366D01*
X72076573Y-61010033D01*
X72109906Y-60943366D01*
X72109906Y-60676700D01*
X72076573Y-60610033D01*
X72009906Y-60576700D01*
X71876573Y-60576700D01*
X71809906Y-60610033D01*
X71776573Y-60676700D01*
X71776573Y-60743366D01*
X72109906Y-60810033D01*
X71476573Y-61043366D02*
X71476573Y-60576700D01*
X71476573Y-60710033D02*
X71443240Y-60643366D01*
X71409906Y-60610033D01*
X71343240Y-60576700D01*
X71276573Y-60576700D01*
X71076573Y-61010033D02*
X71009906Y-61043366D01*
X70876573Y-61043366D01*
X70809906Y-61010033D01*
X70776573Y-60943366D01*
X70776573Y-60910033D01*
X70809906Y-60843366D01*
X70876573Y-60810033D01*
X70976573Y-60810033D01*
X71043240Y-60776700D01*
X71076573Y-60710033D01*
X71076573Y-60676700D01*
X71043240Y-60610033D01*
X70976573Y-60576700D01*
X70876573Y-60576700D01*
X70809906Y-60610033D01*
X70209906Y-61010033D02*
X70276573Y-61043366D01*
X70409906Y-61043366D01*
X70476573Y-61010033D01*
X70509906Y-60943366D01*
X70509906Y-60676700D01*
X70476573Y-60610033D01*
X70409906Y-60576700D01*
X70276573Y-60576700D01*
X70209906Y-60610033D01*
X70176573Y-60676700D01*
X70176573Y-60743366D01*
X70509906Y-60810033D01*
X69876573Y-60576700D02*
X69876573Y-61043366D01*
X69876573Y-60643366D02*
X69843240Y-60610033D01*
X69776573Y-60576700D01*
X69676573Y-60576700D01*
X69609906Y-60610033D01*
X69576573Y-60676700D01*
X69576573Y-61043366D01*
X82943240Y-62170366D02*
X83276573Y-62170366D01*
X83276573Y-61470366D01*
X82709906Y-62170366D02*
X82709906Y-61703700D01*
X82709906Y-61470366D02*
X82743240Y-61503700D01*
X82709906Y-61537033D01*
X82676573Y-61503700D01*
X82709906Y-61470366D01*
X82709906Y-61537033D01*
X82076573Y-62137033D02*
X82143240Y-62170366D01*
X82276573Y-62170366D01*
X82343240Y-62137033D01*
X82376573Y-62103700D01*
X82409906Y-62037033D01*
X82409906Y-61837033D01*
X82376573Y-61770366D01*
X82343240Y-61737033D01*
X82276573Y-61703700D01*
X82143240Y-61703700D01*
X82076573Y-61737033D01*
X81509906Y-62137033D02*
X81576573Y-62170366D01*
X81709906Y-62170366D01*
X81776573Y-62137033D01*
X81809906Y-62070366D01*
X81809906Y-61803700D01*
X81776573Y-61737033D01*
X81709906Y-61703700D01*
X81576573Y-61703700D01*
X81509906Y-61737033D01*
X81476573Y-61803700D01*
X81476573Y-61870366D01*
X81809906Y-61937033D01*
X81176573Y-61703700D02*
X81176573Y-62170366D01*
X81176573Y-61770366D02*
X81143240Y-61737033D01*
X81076573Y-61703700D01*
X80976573Y-61703700D01*
X80909906Y-61737033D01*
X80876573Y-61803700D01*
X80876573Y-62170366D01*
X80576573Y-62137033D02*
X80509906Y-62170366D01*
X80376573Y-62170366D01*
X80309906Y-62137033D01*
X80276573Y-62070366D01*
X80276573Y-62037033D01*
X80309906Y-61970366D01*
X80376573Y-61937033D01*
X80476573Y-61937033D01*
X80543240Y-61903700D01*
X80576573Y-61837033D01*
X80576573Y-61803700D01*
X80543240Y-61737033D01*
X80476573Y-61703700D01*
X80376573Y-61703700D01*
X80309906Y-61737033D01*
X79709906Y-62137033D02*
X79776573Y-62170366D01*
X79909906Y-62170366D01*
X79976573Y-62137033D01*
X80009906Y-62070366D01*
X80009906Y-61803700D01*
X79976573Y-61737033D01*
X79909906Y-61703700D01*
X79776573Y-61703700D01*
X79709906Y-61737033D01*
X79676573Y-61803700D01*
X79676573Y-61870366D01*
X80009906Y-61937033D01*
X79076573Y-62170366D02*
X79076573Y-61470366D01*
X79076573Y-62137033D02*
X79143240Y-62170366D01*
X79276573Y-62170366D01*
X79343240Y-62137033D01*
X79376573Y-62103700D01*
X79409906Y-62037033D01*
X79409906Y-61837033D01*
X79376573Y-61770366D01*
X79343240Y-61737033D01*
X79276573Y-61703700D01*
X79143240Y-61703700D01*
X79076573Y-61737033D01*
X77909906Y-61703700D02*
X77909906Y-62170366D01*
X78209906Y-61703700D02*
X78209906Y-62070366D01*
X78176573Y-62137033D01*
X78109906Y-62170366D01*
X78009906Y-62170366D01*
X77943240Y-62137033D01*
X77909906Y-62103700D01*
X77576573Y-61703700D02*
X77576573Y-62170366D01*
X77576573Y-61770366D02*
X77543240Y-61737033D01*
X77476573Y-61703700D01*
X77376573Y-61703700D01*
X77309906Y-61737033D01*
X77276573Y-61803700D01*
X77276573Y-62170366D01*
X76643240Y-62170366D02*
X76643240Y-61470366D01*
X76643240Y-62137033D02*
X76709906Y-62170366D01*
X76843240Y-62170366D01*
X76909906Y-62137033D01*
X76943240Y-62103700D01*
X76976573Y-62037033D01*
X76976573Y-61837033D01*
X76943240Y-61770366D01*
X76909906Y-61737033D01*
X76843240Y-61703700D01*
X76709906Y-61703700D01*
X76643240Y-61737033D01*
X76043240Y-62137033D02*
X76109906Y-62170366D01*
X76243240Y-62170366D01*
X76309906Y-62137033D01*
X76343240Y-62070366D01*
X76343240Y-61803700D01*
X76309906Y-61737033D01*
X76243240Y-61703700D01*
X76109906Y-61703700D01*
X76043240Y-61737033D01*
X76009906Y-61803700D01*
X76009906Y-61870366D01*
X76343240Y-61937033D01*
X75709906Y-62170366D02*
X75709906Y-61703700D01*
X75709906Y-61837033D02*
X75676573Y-61770366D01*
X75643240Y-61737033D01*
X75576573Y-61703700D01*
X75509906Y-61703700D01*
X74343240Y-62103700D02*
X74376573Y-62137033D01*
X74476573Y-62170366D01*
X74543240Y-62170366D01*
X74643240Y-62137033D01*
X74709906Y-62070366D01*
X74743240Y-62003700D01*
X74776573Y-61870366D01*
X74776573Y-61770366D01*
X74743240Y-61637033D01*
X74709906Y-61570366D01*
X74643240Y-61503700D01*
X74543240Y-61470366D01*
X74476573Y-61470366D01*
X74376573Y-61503700D01*
X74343240Y-61537033D01*
X74043240Y-61803700D02*
X73809906Y-61803700D01*
X73709906Y-62170366D02*
X74043240Y-62170366D01*
X74043240Y-61470366D01*
X73709906Y-61470366D01*
X73009906Y-62170366D02*
X73243240Y-61837033D01*
X73409906Y-62170366D02*
X73409906Y-61470366D01*
X73143240Y-61470366D01*
X73076573Y-61503700D01*
X73043240Y-61537033D01*
X73009906Y-61603700D01*
X73009906Y-61703700D01*
X73043240Y-61770366D01*
X73076573Y-61803700D01*
X73143240Y-61837033D01*
X73409906Y-61837033D01*
X72709906Y-62170366D02*
X72709906Y-61470366D01*
X72309906Y-62170366D01*
X72309906Y-61470366D01*
X71976573Y-61903700D02*
X71443240Y-61903700D01*
X70976573Y-61470366D02*
X70843240Y-61470366D01*
X70776573Y-61503700D01*
X70709906Y-61570366D01*
X70676573Y-61703700D01*
X70676573Y-61937033D01*
X70709906Y-62070366D01*
X70776573Y-62137033D01*
X70843240Y-62170366D01*
X70976573Y-62170366D01*
X71043240Y-62137033D01*
X71109906Y-62070366D01*
X71143240Y-61937033D01*
X71143240Y-61703700D01*
X71109906Y-61570366D01*
X71043240Y-61503700D01*
X70976573Y-61470366D01*
X70376573Y-62170366D02*
X70376573Y-61470366D01*
X70376573Y-61803700D02*
X69976573Y-61803700D01*
X69976573Y-62170366D02*
X69976573Y-61470366D01*
X69309906Y-62170366D02*
X69643240Y-62170366D01*
X69643240Y-61470366D01*
X69076573Y-61903700D02*
X68543240Y-61903700D01*
X68209906Y-62170366D02*
X68209906Y-61470366D01*
X67943240Y-61470366D01*
X67876573Y-61503700D01*
X67843240Y-61537033D01*
X67809906Y-61603700D01*
X67809906Y-61703700D01*
X67843240Y-61770366D01*
X67876573Y-61803700D01*
X67943240Y-61837033D01*
X68209906Y-61837033D01*
X67043239Y-61703700D02*
X66876573Y-62170366D01*
X66709906Y-61703700D01*
X66476573Y-61537033D02*
X66443239Y-61503700D01*
X66376573Y-61470366D01*
X66209906Y-61470366D01*
X66143239Y-61503700D01*
X66109906Y-61537033D01*
X66076573Y-61603700D01*
X66076573Y-61670366D01*
X66109906Y-61770366D01*
X66509906Y-62170366D01*
X66076573Y-62170366D01*
X83690468Y-77123485D02*
X83690468Y-76373485D01*
X83440468Y-76909200D01*
X83190468Y-76373485D01*
X83190468Y-77123485D01*
X82511897Y-77123485D02*
X82511897Y-76730628D01*
X82547611Y-76659200D01*
X82619040Y-76623485D01*
X82761897Y-76623485D01*
X82833325Y-76659200D01*
X82511897Y-77087771D02*
X82583325Y-77123485D01*
X82761897Y-77123485D01*
X82833325Y-77087771D01*
X82869040Y-77016342D01*
X82869040Y-76944914D01*
X82833325Y-76873485D01*
X82761897Y-76837771D01*
X82583325Y-76837771D01*
X82511897Y-76802057D01*
X81833325Y-77123485D02*
X81833325Y-76373485D01*
X81833325Y-77087771D02*
X81904754Y-77123485D01*
X82047611Y-77123485D01*
X82119040Y-77087771D01*
X82154754Y-77052057D01*
X82190468Y-76980628D01*
X82190468Y-76766342D01*
X82154754Y-76694914D01*
X82119040Y-76659200D01*
X82047611Y-76623485D01*
X81904754Y-76623485D01*
X81833325Y-76659200D01*
X81190468Y-77087771D02*
X81261897Y-77123485D01*
X81404754Y-77123485D01*
X81476182Y-77087771D01*
X81511897Y-77016342D01*
X81511897Y-76730628D01*
X81476182Y-76659200D01*
X81404754Y-76623485D01*
X81261897Y-76623485D01*
X81190468Y-76659200D01*
X81154754Y-76730628D01*
X81154754Y-76802057D01*
X81511897Y-76873485D01*
X80261897Y-77123485D02*
X80261897Y-76623485D01*
X80261897Y-76373485D02*
X80297611Y-76409200D01*
X80261897Y-76444914D01*
X80226182Y-76409200D01*
X80261897Y-76373485D01*
X80261897Y-76444914D01*
X79904754Y-76623485D02*
X79904754Y-77123485D01*
X79904754Y-76694914D02*
X79869040Y-76659200D01*
X79797611Y-76623485D01*
X79690468Y-76623485D01*
X79619040Y-76659200D01*
X79583325Y-76730628D01*
X79583325Y-77123485D01*
X78761897Y-76623485D02*
X78476182Y-76623485D01*
X78654754Y-76373485D02*
X78654754Y-77016342D01*
X78619040Y-77087771D01*
X78547611Y-77123485D01*
X78476182Y-77123485D01*
X78226182Y-77123485D02*
X78226182Y-76373485D01*
X77904754Y-77123485D02*
X77904754Y-76730628D01*
X77940468Y-76659200D01*
X78011897Y-76623485D01*
X78119040Y-76623485D01*
X78190468Y-76659200D01*
X78226182Y-76694914D01*
X77261897Y-77087771D02*
X77333325Y-77123485D01*
X77476182Y-77123485D01*
X77547611Y-77087771D01*
X77583325Y-77016342D01*
X77583325Y-76730628D01*
X77547611Y-76659200D01*
X77476182Y-76623485D01*
X77333325Y-76623485D01*
X77261897Y-76659200D01*
X77226182Y-76730628D01*
X77226182Y-76802057D01*
X77583325Y-76873485D01*
X76440468Y-76373485D02*
X76011897Y-76373485D01*
X76226182Y-77123485D02*
X76226182Y-76373485D01*
X75761897Y-76373485D02*
X75761897Y-76980628D01*
X75726182Y-77052057D01*
X75690468Y-77087771D01*
X75619040Y-77123485D01*
X75476182Y-77123485D01*
X75404754Y-77087771D01*
X75369040Y-77052057D01*
X75333325Y-76980628D01*
X75333325Y-76373485D01*
X74976182Y-76837771D02*
X74404754Y-76837771D01*
X74047611Y-77123485D02*
X74047611Y-76373485D01*
X73869040Y-76373485D01*
X73761897Y-76409200D01*
X73690468Y-76480628D01*
X73654754Y-76552057D01*
X73619040Y-76694914D01*
X73619040Y-76802057D01*
X73654754Y-76944914D01*
X73690468Y-77016342D01*
X73761897Y-77087771D01*
X73869040Y-77123485D01*
X74047611Y-77123485D01*
X73154754Y-76373485D02*
X73011897Y-76373485D01*
X72940468Y-76409200D01*
X72869040Y-76480628D01*
X72833325Y-76623485D01*
X72833325Y-76873485D01*
X72869040Y-77016342D01*
X72940468Y-77087771D01*
X73011897Y-77123485D01*
X73154754Y-77123485D01*
X73226182Y-77087771D01*
X73297611Y-77016342D01*
X73333325Y-76873485D01*
X73333325Y-76623485D01*
X73297611Y-76480628D01*
X73226182Y-76409200D01*
X73154754Y-76373485D01*
X71940468Y-77123485D02*
X71940468Y-76373485D01*
X71690468Y-76909200D01*
X71440468Y-76373485D01*
X71440468Y-77123485D01*
X70761897Y-77123485D02*
X70761897Y-76730628D01*
X70797611Y-76659200D01*
X70869040Y-76623485D01*
X71011897Y-76623485D01*
X71083325Y-76659200D01*
X70761897Y-77087771D02*
X70833325Y-77123485D01*
X71011897Y-77123485D01*
X71083325Y-77087771D01*
X71119040Y-77016342D01*
X71119040Y-76944914D01*
X71083325Y-76873485D01*
X71011897Y-76837771D01*
X70833325Y-76837771D01*
X70761897Y-76802057D01*
X70404754Y-77123485D02*
X70404754Y-76373485D01*
X70333325Y-76837771D02*
X70119040Y-77123485D01*
X70119040Y-76623485D02*
X70404754Y-76909200D01*
X69511897Y-77087771D02*
X69583325Y-77123485D01*
X69726182Y-77123485D01*
X69797611Y-77087771D01*
X69833325Y-77016342D01*
X69833325Y-76730628D01*
X69797611Y-76659200D01*
X69726182Y-76623485D01*
X69583325Y-76623485D01*
X69511897Y-76659200D01*
X69476182Y-76730628D01*
X69476182Y-76802057D01*
X69833325Y-76873485D01*
X69154754Y-77123485D02*
X69154754Y-76623485D01*
X69154754Y-76766342D02*
X69119040Y-76694914D01*
X69083325Y-76659200D01*
X69011897Y-76623485D01*
X68940468Y-76623485D01*
X68726182Y-77087771D02*
X68654754Y-77123485D01*
X68511897Y-77123485D01*
X68440468Y-77087771D01*
X68404754Y-77016342D01*
X68404754Y-76980628D01*
X68440468Y-76909200D01*
X68511897Y-76873485D01*
X68619040Y-76873485D01*
X68690468Y-76837771D01*
X68726182Y-76766342D01*
X68726182Y-76730628D01*
X68690468Y-76659200D01*
X68619040Y-76623485D01*
X68511897Y-76623485D01*
X68440468Y-76659200D01*
X68083325Y-76623485D02*
X68083325Y-77373485D01*
X68083325Y-76659200D02*
X68011897Y-76623485D01*
X67869040Y-76623485D01*
X67797611Y-76659200D01*
X67761897Y-76694914D01*
X67726182Y-76766342D01*
X67726182Y-76980628D01*
X67761897Y-77052057D01*
X67797611Y-77087771D01*
X67869040Y-77123485D01*
X68011897Y-77123485D01*
X68083325Y-77087771D01*
X67083325Y-77123485D02*
X67083325Y-76730628D01*
X67119040Y-76659200D01*
X67190468Y-76623485D01*
X67333325Y-76623485D01*
X67404754Y-76659200D01*
X67083325Y-77087771D02*
X67154754Y-77123485D01*
X67333325Y-77123485D01*
X67404754Y-77087771D01*
X67440468Y-77016342D01*
X67440468Y-76944914D01*
X67404754Y-76873485D01*
X67333325Y-76837771D01*
X67154754Y-76837771D01*
X67083325Y-76802057D01*
X66404754Y-77087771D02*
X66476182Y-77123485D01*
X66619040Y-77123485D01*
X66690468Y-77087771D01*
X66726182Y-77052057D01*
X66761897Y-76980628D01*
X66761897Y-76766342D01*
X66726182Y-76694914D01*
X66690468Y-76659200D01*
X66619040Y-76623485D01*
X66476182Y-76623485D01*
X66404754Y-76659200D01*
X65797611Y-77087771D02*
X65869040Y-77123485D01*
X66011897Y-77123485D01*
X66083325Y-77087771D01*
X66119040Y-77016342D01*
X66119040Y-76730628D01*
X66083325Y-76659200D01*
X66011897Y-76623485D01*
X65869040Y-76623485D01*
X65797611Y-76659200D01*
X65761897Y-76730628D01*
X65761897Y-76802057D01*
X66119040Y-76873485D01*
D12*
%TO.C,J2*%
X82224880Y-82524600D03*
X74726800Y-82522060D03*
X67228720Y-82524600D03*
X79722980Y-80022700D03*
X69730620Y-80022700D03*
%TD*%
M02*
