M48
; DRILL file {KiCad 6.0.8-f2edbf62ab~116~ubuntu20.04.1} date Mo 14 Nov 2022 20:46:33 CET
; FORMAT={-:-/ absolute / inch / decimal}
; #@! TF.CreationDate,2022-11-14T20:46:33+01:00
; #@! TF.GenerationSoftware,Kicad,Pcbnew,6.0.8-f2edbf62ab~116~ubuntu20.04.1
; #@! TF.FileFunction,Plated,1,2,PTH
FMAT,2
INCH
; #@! TA.AperFunction,Plated,PTH,ComponentDrill
T1C0.0276
; #@! TA.AperFunction,Plated,PTH,ComponentDrill
T2C0.0295
; #@! TA.AperFunction,Plated,PTH,ComponentDrill
T3C0.0315
; #@! TA.AperFunction,Plated,PTH,ComponentDrill
T4C0.0354
; #@! TA.AperFunction,Plated,PTH,ComponentDrill
T5C0.0374
; #@! TA.AperFunction,Plated,PTH,ComponentDrill
T6C0.0550
%
G90
G05
T1
X2.8107Y-2.502
X3.0107Y-2.502
X3.1007Y-2.502
X3.3007Y-2.502
T2
X3.1544Y-2.1527
X3.1544Y-2.3527
X3.2044Y-2.1527
X3.2044Y-2.3527
X3.2544Y-2.1527
X3.2544Y-2.3527
T3
X2.6047Y-2.072
X2.6047Y-2.372
X2.7287Y-2.072
X2.7287Y-2.372
X3.1467Y-2.6165
X3.1467Y-2.9165
X3.2707Y-2.6165
X3.2707Y-2.9165
T4
X2.5908Y-2.6001
X2.5908Y-2.6986
X2.5908Y-2.797
X2.7207Y-2.6001
X2.7207Y-2.6986
X2.7207Y-2.797
T5
X2.9027Y-2.1001
X2.9027Y-2.1986
X2.9027Y-2.297
T6
X2.6468Y-3.249
X2.7453Y-3.1505
X2.942Y-3.2489
X3.1387Y-3.1505
X3.2372Y-3.249
T0
M30
