%TF.GenerationSoftware,KiCad,Pcbnew,6.0.8-f2edbf62ab~116~ubuntu20.04.1*%
%TF.CreationDate,2022-11-14T20:46:32+01:00*%
%TF.ProjectId,MIDI_OUT,4d494449-5f4f-4555-942e-6b696361645f,2.0*%
%TF.SameCoordinates,Original*%
%TF.FileFunction,Copper,L2,Bot*%
%TF.FilePolarity,Positive*%
%FSLAX46Y46*%
G04 Gerber Fmt 4.6, Leading zero omitted, Abs format (unit mm)*
G04 Created by KiCad (PCBNEW 6.0.8-f2edbf62ab~116~ubuntu20.04.1) date 2022-11-14 20:46:32*
%MOMM*%
%LPD*%
G01*
G04 APERTURE LIST*
G04 Aperture macros list*
%AMRoundRect*
0 Rectangle with rounded corners*
0 $1 Rounding radius*
0 $2 $3 $4 $5 $6 $7 $8 $9 X,Y pos of 4 corners*
0 Add a 4 corners polygon primitive as box body*
4,1,4,$2,$3,$4,$5,$6,$7,$8,$9,$2,$3,0*
0 Add four circle primitives for the rounded corners*
1,1,$1+$1,$2,$3*
1,1,$1+$1,$4,$5*
1,1,$1+$1,$6,$7*
1,1,$1+$1,$8,$9*
0 Add four rect primitives between the rounded corners*
20,1,$1+$1,$2,$3,$4,$5,0*
20,1,$1+$1,$4,$5,$6,$7,0*
20,1,$1+$1,$6,$7,$8,$9,0*
20,1,$1+$1,$8,$9,$2,$3,0*%
G04 Aperture macros list end*
%TA.AperFunction,ComponentPad*%
%ADD10R,1.050000X1.500000*%
%TD*%
%TA.AperFunction,ComponentPad*%
%ADD11O,1.050000X1.500000*%
%TD*%
%TA.AperFunction,ComponentPad*%
%ADD12C,1.600000*%
%TD*%
%TA.AperFunction,ComponentPad*%
%ADD13O,1.600000X1.600000*%
%TD*%
%TA.AperFunction,WasherPad*%
%ADD14C,2.499360*%
%TD*%
%TA.AperFunction,ComponentPad*%
%ADD15C,2.499360*%
%TD*%
%TA.AperFunction,ComponentPad*%
%ADD16C,1.400000*%
%TD*%
%TA.AperFunction,ComponentPad*%
%ADD17O,1.400000X1.400000*%
%TD*%
%TA.AperFunction,ComponentPad*%
%ADD18R,1.400000X1.400000*%
%TD*%
%TA.AperFunction,ComponentPad*%
%ADD19RoundRect,0.250000X0.725000X-0.600000X0.725000X0.600000X-0.725000X0.600000X-0.725000X-0.600000X0*%
%TD*%
%TA.AperFunction,ComponentPad*%
%ADD20O,1.950000X1.700000*%
%TD*%
%TA.AperFunction,Conductor*%
%ADD21C,0.250000*%
%TD*%
G04 APERTURE END LIST*
D10*
%TO.P,Q2,1,D*%
%TO.N,Net-(Q2-Pad1)*%
X80122640Y-59759000D03*
D11*
%TO.P,Q2,2,G*%
%TO.N,Net-(Q1-Pad1)*%
X81392640Y-59759000D03*
%TO.P,Q2,3,S*%
%TO.N,GND*%
X82662640Y-59759000D03*
%TD*%
D12*
%TO.P,R6,1*%
%TO.N,Net-(SW1-Pad3)*%
X83075240Y-66458461D03*
D13*
%TO.P,R6,2*%
%TO.N,/MIDI_CON_VTX+*%
X83075240Y-74078461D03*
%TD*%
D14*
%TO.P,J2,*%
%TO.N,*%
X79728060Y-92519500D03*
X69725540Y-92519500D03*
D15*
%TO.P,J2,1*%
%TO.N,unconnected-(J2-Pad1)*%
X82224880Y-82524600D03*
%TO.P,J2,2*%
%TO.N,GND*%
X74726800Y-82522060D03*
%TO.P,J2,3*%
%TO.N,unconnected-(J2-Pad3)*%
X67228720Y-82524600D03*
%TO.P,J2,4*%
%TO.N,/MIDI_CON_VTX+*%
X79722980Y-80022700D03*
%TO.P,J2,5*%
%TO.N,/MIDI_CON_VTX-*%
X69730620Y-80022700D03*
%TD*%
D12*
%TO.P,R3,1*%
%TO.N,Net-(R3-Pad1)*%
X66158840Y-60248800D03*
D13*
%TO.P,R3,2*%
%TO.N,Net-(Q2-Pad1)*%
X66158840Y-52628800D03*
%TD*%
D12*
%TO.P,R1,1*%
%TO.N,/UART_TX*%
X69308440Y-60248800D03*
D13*
%TO.P,R1,2*%
%TO.N,Net-(Q1-Pad2)*%
X69308440Y-52628800D03*
%TD*%
D16*
%TO.P,R2,1*%
%TO.N,Net-(Q1-Pad1)*%
X83837240Y-63550800D03*
D17*
%TO.P,R2,2*%
%TO.N,/VTX*%
X78757240Y-63550800D03*
%TD*%
D12*
%TO.P,R5,1*%
%TO.N,Net-(R5-Pad1)*%
X79925640Y-66458461D03*
D13*
%TO.P,R5,2*%
%TO.N,/MIDI_CON_VTX+*%
X79925640Y-74078461D03*
%TD*%
D10*
%TO.P,Q1,1,D*%
%TO.N,Net-(Q1-Pad1)*%
X80122640Y-54679000D03*
D11*
%TO.P,Q1,2,G*%
%TO.N,Net-(Q1-Pad2)*%
X81392640Y-54679000D03*
%TO.P,Q1,3,S*%
%TO.N,GND*%
X82662640Y-54679000D03*
%TD*%
D18*
%TO.P,SW1,1,A*%
%TO.N,Net-(R5-Pad1)*%
X69105240Y-66043800D03*
D16*
%TO.P,SW1,2,B*%
%TO.N,/VTX*%
X69105240Y-68543800D03*
%TO.P,SW1,3,C*%
%TO.N,Net-(SW1-Pad3)*%
X69105240Y-71043800D03*
%TO.P,SW1,4,A*%
%TO.N,Net-(R3-Pad1)*%
X65805240Y-66043800D03*
%TO.P,SW1,5,B*%
%TO.N,/MIDI_CON_VTX-*%
X65805240Y-68543800D03*
%TO.P,SW1,6,C*%
%TO.N,Net-(R4-Pad1)*%
X65805240Y-71043800D03*
%TD*%
D19*
%TO.P,J1,1,Pin_1*%
%TO.N,GND*%
X73728040Y-58343800D03*
D20*
%TO.P,J1,2,Pin_2*%
%TO.N,/UART_TX*%
X73728040Y-55843800D03*
%TO.P,J1,3,Pin_3*%
%TO.N,/VTX*%
X73728040Y-53343800D03*
%TD*%
D16*
%TO.P,R4,1*%
%TO.N,Net-(R4-Pad1)*%
X71391240Y-63550800D03*
D17*
%TO.P,R4,2*%
%TO.N,Net-(Q2-Pad1)*%
X76471240Y-63550800D03*
%TD*%
D21*
%TO.N,/VTX*%
X73728040Y-53343800D02*
X78757240Y-58373000D01*
X78757240Y-58373000D02*
X78757240Y-63550800D01*
%TO.N,Net-(R4-Pad1)*%
X67200240Y-64947800D02*
X68597240Y-63550800D01*
X65805240Y-71043800D02*
X67200240Y-69648800D01*
X67200240Y-69648800D02*
X67200240Y-64947800D01*
X68597240Y-63550800D02*
X71391240Y-63550800D01*
%TD*%
%TA.AperFunction,Conductor*%
%TO.N,GND*%
G36*
X84320421Y-44851502D02*
G01*
X84366914Y-44905158D01*
X84378300Y-44957500D01*
X84378300Y-62280439D01*
X84358298Y-62348560D01*
X84304642Y-62395053D01*
X84234368Y-62405157D01*
X84219689Y-62402146D01*
X84053210Y-62357538D01*
X84053208Y-62357538D01*
X84047895Y-62356114D01*
X83837240Y-62337684D01*
X83626585Y-62356114D01*
X83621272Y-62357538D01*
X83621270Y-62357538D01*
X83427640Y-62409421D01*
X83427638Y-62409422D01*
X83422330Y-62410844D01*
X83417349Y-62413166D01*
X83417348Y-62413167D01*
X83235663Y-62497888D01*
X83235660Y-62497890D01*
X83230682Y-62500211D01*
X83057464Y-62621499D01*
X82907939Y-62771024D01*
X82786651Y-62944242D01*
X82784330Y-62949220D01*
X82784328Y-62949223D01*
X82720861Y-63085328D01*
X82697284Y-63135890D01*
X82642554Y-63340145D01*
X82624124Y-63550800D01*
X82642554Y-63761455D01*
X82697284Y-63965710D01*
X82699606Y-63970691D01*
X82699607Y-63970692D01*
X82773174Y-64128456D01*
X82786651Y-64157358D01*
X82907939Y-64330576D01*
X83057464Y-64480101D01*
X83230682Y-64601389D01*
X83235660Y-64603710D01*
X83235663Y-64603712D01*
X83386392Y-64673998D01*
X83422330Y-64690756D01*
X83427638Y-64692178D01*
X83427640Y-64692179D01*
X83621270Y-64744062D01*
X83621272Y-64744062D01*
X83626585Y-64745486D01*
X83837240Y-64763916D01*
X84047895Y-64745486D01*
X84053208Y-64744062D01*
X84053210Y-64744062D01*
X84219689Y-64699454D01*
X84290665Y-64701144D01*
X84349461Y-64740938D01*
X84377409Y-64806202D01*
X84378300Y-64821161D01*
X84378300Y-65638503D01*
X84358298Y-65706624D01*
X84304642Y-65753117D01*
X84234368Y-65763221D01*
X84169788Y-65733727D01*
X84149087Y-65710774D01*
X84084597Y-65618672D01*
X84084595Y-65618669D01*
X84081438Y-65614161D01*
X83919540Y-65452263D01*
X83915032Y-65449106D01*
X83915029Y-65449104D01*
X83836851Y-65394363D01*
X83731989Y-65320938D01*
X83727007Y-65318615D01*
X83727002Y-65318612D01*
X83529465Y-65226500D01*
X83529464Y-65226500D01*
X83524483Y-65224177D01*
X83519175Y-65222755D01*
X83519173Y-65222754D01*
X83308642Y-65166342D01*
X83308640Y-65166342D01*
X83303327Y-65164918D01*
X83075240Y-65144963D01*
X82847153Y-65164918D01*
X82841840Y-65166342D01*
X82841838Y-65166342D01*
X82631307Y-65222754D01*
X82631305Y-65222755D01*
X82625997Y-65224177D01*
X82621016Y-65226500D01*
X82621015Y-65226500D01*
X82423478Y-65318612D01*
X82423473Y-65318615D01*
X82418491Y-65320938D01*
X82313629Y-65394363D01*
X82235451Y-65449104D01*
X82235448Y-65449106D01*
X82230940Y-65452263D01*
X82069042Y-65614161D01*
X81937717Y-65801712D01*
X81935394Y-65806694D01*
X81935391Y-65806699D01*
X81843279Y-66004236D01*
X81840956Y-66009218D01*
X81781697Y-66230374D01*
X81761742Y-66458461D01*
X81781697Y-66686548D01*
X81783121Y-66691861D01*
X81783121Y-66691863D01*
X81828580Y-66861515D01*
X81840956Y-66907704D01*
X81843279Y-66912685D01*
X81843279Y-66912686D01*
X81935391Y-67110223D01*
X81935394Y-67110228D01*
X81937717Y-67115210D01*
X82069042Y-67302761D01*
X82230940Y-67464659D01*
X82235448Y-67467816D01*
X82235451Y-67467818D01*
X82271716Y-67493211D01*
X82418491Y-67595984D01*
X82423473Y-67598307D01*
X82423478Y-67598310D01*
X82621015Y-67690422D01*
X82625997Y-67692745D01*
X82631305Y-67694167D01*
X82631307Y-67694168D01*
X82841838Y-67750580D01*
X82841840Y-67750580D01*
X82847153Y-67752004D01*
X83075240Y-67771959D01*
X83303327Y-67752004D01*
X83308640Y-67750580D01*
X83308642Y-67750580D01*
X83519173Y-67694168D01*
X83519175Y-67694167D01*
X83524483Y-67692745D01*
X83529465Y-67690422D01*
X83727002Y-67598310D01*
X83727007Y-67598307D01*
X83731989Y-67595984D01*
X83878764Y-67493211D01*
X83915029Y-67467818D01*
X83915032Y-67467816D01*
X83919540Y-67464659D01*
X84081438Y-67302761D01*
X84149088Y-67206147D01*
X84204544Y-67161820D01*
X84275163Y-67154511D01*
X84338524Y-67186541D01*
X84374509Y-67247743D01*
X84378300Y-67278419D01*
X84378300Y-73258503D01*
X84358298Y-73326624D01*
X84304642Y-73373117D01*
X84234368Y-73383221D01*
X84169788Y-73353727D01*
X84149087Y-73330774D01*
X84084597Y-73238672D01*
X84084595Y-73238669D01*
X84081438Y-73234161D01*
X83919540Y-73072263D01*
X83915032Y-73069106D01*
X83915029Y-73069104D01*
X83745836Y-72950634D01*
X83731989Y-72940938D01*
X83727007Y-72938615D01*
X83727002Y-72938612D01*
X83529465Y-72846500D01*
X83529464Y-72846500D01*
X83524483Y-72844177D01*
X83519175Y-72842755D01*
X83519173Y-72842754D01*
X83308642Y-72786342D01*
X83308640Y-72786342D01*
X83303327Y-72784918D01*
X83075240Y-72764963D01*
X82847153Y-72784918D01*
X82841840Y-72786342D01*
X82841838Y-72786342D01*
X82631307Y-72842754D01*
X82631305Y-72842755D01*
X82625997Y-72844177D01*
X82621016Y-72846500D01*
X82621015Y-72846500D01*
X82423478Y-72938612D01*
X82423473Y-72938615D01*
X82418491Y-72940938D01*
X82404644Y-72950634D01*
X82235451Y-73069104D01*
X82235448Y-73069106D01*
X82230940Y-73072263D01*
X82069042Y-73234161D01*
X81937717Y-73421712D01*
X81935394Y-73426694D01*
X81935391Y-73426699D01*
X81843279Y-73624236D01*
X81840956Y-73629218D01*
X81781697Y-73850374D01*
X81761742Y-74078461D01*
X81781697Y-74306548D01*
X81840956Y-74527704D01*
X81843279Y-74532685D01*
X81843279Y-74532686D01*
X81935391Y-74730223D01*
X81935394Y-74730228D01*
X81937717Y-74735210D01*
X82069042Y-74922761D01*
X82230940Y-75084659D01*
X82235448Y-75087816D01*
X82235451Y-75087818D01*
X82313629Y-75142559D01*
X82418491Y-75215984D01*
X82423473Y-75218307D01*
X82423478Y-75218310D01*
X82621015Y-75310422D01*
X82625997Y-75312745D01*
X82631305Y-75314167D01*
X82631307Y-75314168D01*
X82841838Y-75370580D01*
X82841840Y-75370580D01*
X82847153Y-75372004D01*
X83075240Y-75391959D01*
X83303327Y-75372004D01*
X83308640Y-75370580D01*
X83308642Y-75370580D01*
X83519173Y-75314168D01*
X83519175Y-75314167D01*
X83524483Y-75312745D01*
X83529465Y-75310422D01*
X83727002Y-75218310D01*
X83727007Y-75218307D01*
X83731989Y-75215984D01*
X83836851Y-75142559D01*
X83915029Y-75087818D01*
X83915032Y-75087816D01*
X83919540Y-75084659D01*
X84081438Y-74922761D01*
X84149088Y-74826147D01*
X84204544Y-74781820D01*
X84275163Y-74774511D01*
X84338524Y-74806541D01*
X84374509Y-74867743D01*
X84378300Y-74898419D01*
X84378300Y-94539300D01*
X84358298Y-94607421D01*
X84304642Y-94653914D01*
X84252300Y-94665300D01*
X65201300Y-94665300D01*
X65133179Y-94645298D01*
X65086686Y-94591642D01*
X65075300Y-94539300D01*
X65075300Y-92473347D01*
X67963034Y-92473347D01*
X67963258Y-92478013D01*
X67963258Y-92478018D01*
X67969532Y-92608617D01*
X67975572Y-92734369D01*
X68026554Y-92990671D01*
X68114859Y-93236621D01*
X68238548Y-93466818D01*
X68241343Y-93470562D01*
X68241345Y-93470564D01*
X68392112Y-93672466D01*
X68392117Y-93672472D01*
X68394904Y-93676204D01*
X68398213Y-93679484D01*
X68398218Y-93679490D01*
X68577175Y-93856891D01*
X68580492Y-93860179D01*
X68584254Y-93862937D01*
X68584257Y-93862940D01*
X68787460Y-94011935D01*
X68791234Y-94014702D01*
X68795377Y-94016882D01*
X68795379Y-94016883D01*
X69018352Y-94134195D01*
X69018357Y-94134197D01*
X69022502Y-94136378D01*
X69026925Y-94137923D01*
X69026926Y-94137923D01*
X69264797Y-94220991D01*
X69264803Y-94220993D01*
X69269214Y-94222533D01*
X69273807Y-94223405D01*
X69521361Y-94270405D01*
X69521364Y-94270405D01*
X69525950Y-94271276D01*
X69656511Y-94276406D01*
X69782404Y-94281353D01*
X69782410Y-94281353D01*
X69787072Y-94281536D01*
X69879086Y-94271459D01*
X70042188Y-94253597D01*
X70042194Y-94253596D01*
X70046841Y-94253087D01*
X70299552Y-94186553D01*
X70539654Y-94083398D01*
X70543634Y-94080935D01*
X70543638Y-94080933D01*
X70757897Y-93948345D01*
X70757901Y-93948342D01*
X70761870Y-93945886D01*
X70961320Y-93777039D01*
X71053028Y-93672466D01*
X71130540Y-93584081D01*
X71130543Y-93584076D01*
X71133622Y-93580566D01*
X71274991Y-93360783D01*
X71382321Y-93122519D01*
X71453255Y-92871008D01*
X71486234Y-92611774D01*
X71488650Y-92519500D01*
X71485220Y-92473347D01*
X77965554Y-92473347D01*
X77965778Y-92478013D01*
X77965778Y-92478018D01*
X77972052Y-92608617D01*
X77978092Y-92734369D01*
X78029074Y-92990671D01*
X78117379Y-93236621D01*
X78241068Y-93466818D01*
X78243863Y-93470562D01*
X78243865Y-93470564D01*
X78394632Y-93672466D01*
X78394637Y-93672472D01*
X78397424Y-93676204D01*
X78400733Y-93679484D01*
X78400738Y-93679490D01*
X78579695Y-93856891D01*
X78583012Y-93860179D01*
X78586774Y-93862937D01*
X78586777Y-93862940D01*
X78789980Y-94011935D01*
X78793754Y-94014702D01*
X78797897Y-94016882D01*
X78797899Y-94016883D01*
X79020872Y-94134195D01*
X79020877Y-94134197D01*
X79025022Y-94136378D01*
X79029445Y-94137923D01*
X79029446Y-94137923D01*
X79267317Y-94220991D01*
X79267323Y-94220993D01*
X79271734Y-94222533D01*
X79276327Y-94223405D01*
X79523881Y-94270405D01*
X79523884Y-94270405D01*
X79528470Y-94271276D01*
X79659031Y-94276406D01*
X79784924Y-94281353D01*
X79784930Y-94281353D01*
X79789592Y-94281536D01*
X79881606Y-94271459D01*
X80044708Y-94253597D01*
X80044714Y-94253596D01*
X80049361Y-94253087D01*
X80302072Y-94186553D01*
X80542174Y-94083398D01*
X80546154Y-94080935D01*
X80546158Y-94080933D01*
X80760417Y-93948345D01*
X80760421Y-93948342D01*
X80764390Y-93945886D01*
X80963840Y-93777039D01*
X81055548Y-93672466D01*
X81133060Y-93584081D01*
X81133063Y-93584076D01*
X81136142Y-93580566D01*
X81277511Y-93360783D01*
X81384841Y-93122519D01*
X81455775Y-92871008D01*
X81488754Y-92611774D01*
X81491170Y-92519500D01*
X81471804Y-92258896D01*
X81462550Y-92217997D01*
X81415161Y-92008574D01*
X81414130Y-92004017D01*
X81412437Y-91999663D01*
X81321110Y-91764815D01*
X81321109Y-91764813D01*
X81319417Y-91760462D01*
X81189744Y-91533581D01*
X81027961Y-91328360D01*
X80837621Y-91149306D01*
X80622906Y-91000353D01*
X80581659Y-90980012D01*
X80392721Y-90886838D01*
X80392718Y-90886837D01*
X80388533Y-90884773D01*
X80342392Y-90870003D01*
X80289793Y-90853166D01*
X80139650Y-90805105D01*
X80135043Y-90804355D01*
X80135040Y-90804354D01*
X79886336Y-90763850D01*
X79886337Y-90763850D01*
X79881725Y-90763099D01*
X79755040Y-90761441D01*
X79625102Y-90759740D01*
X79625099Y-90759740D01*
X79620425Y-90759679D01*
X79361489Y-90794918D01*
X79356999Y-90796227D01*
X79356993Y-90796228D01*
X79250315Y-90827322D01*
X79110606Y-90868044D01*
X79106359Y-90870002D01*
X79106356Y-90870003D01*
X79069838Y-90886838D01*
X78873287Y-90977449D01*
X78838353Y-91000353D01*
X78658660Y-91118165D01*
X78658655Y-91118168D01*
X78654747Y-91120731D01*
X78459785Y-91294741D01*
X78292685Y-91495657D01*
X78157117Y-91719065D01*
X78155308Y-91723379D01*
X78155306Y-91723383D01*
X78139758Y-91760462D01*
X78056061Y-91960057D01*
X77991736Y-92213339D01*
X77965554Y-92473347D01*
X71485220Y-92473347D01*
X71469284Y-92258896D01*
X71460030Y-92217997D01*
X71412641Y-92008574D01*
X71411610Y-92004017D01*
X71409917Y-91999663D01*
X71318590Y-91764815D01*
X71318589Y-91764813D01*
X71316897Y-91760462D01*
X71187224Y-91533581D01*
X71025441Y-91328360D01*
X70835101Y-91149306D01*
X70620386Y-91000353D01*
X70579139Y-90980012D01*
X70390201Y-90886838D01*
X70390198Y-90886837D01*
X70386013Y-90884773D01*
X70339872Y-90870003D01*
X70287273Y-90853166D01*
X70137130Y-90805105D01*
X70132523Y-90804355D01*
X70132520Y-90804354D01*
X69883816Y-90763850D01*
X69883817Y-90763850D01*
X69879205Y-90763099D01*
X69752520Y-90761441D01*
X69622582Y-90759740D01*
X69622579Y-90759740D01*
X69617905Y-90759679D01*
X69358969Y-90794918D01*
X69354479Y-90796227D01*
X69354473Y-90796228D01*
X69247795Y-90827322D01*
X69108086Y-90868044D01*
X69103839Y-90870002D01*
X69103836Y-90870003D01*
X69067318Y-90886838D01*
X68870767Y-90977449D01*
X68835833Y-91000353D01*
X68656140Y-91118165D01*
X68656135Y-91118168D01*
X68652227Y-91120731D01*
X68457265Y-91294741D01*
X68290165Y-91495657D01*
X68154597Y-91719065D01*
X68152788Y-91723379D01*
X68152786Y-91723383D01*
X68137238Y-91760462D01*
X68053541Y-91960057D01*
X67989216Y-92213339D01*
X67963034Y-92473347D01*
X65075300Y-92473347D01*
X65075300Y-82478447D01*
X65466214Y-82478447D01*
X65466438Y-82483113D01*
X65466438Y-82483118D01*
X65468769Y-82531640D01*
X65478752Y-82739469D01*
X65529734Y-82995771D01*
X65618039Y-83241721D01*
X65741728Y-83471918D01*
X65744523Y-83475662D01*
X65744525Y-83475664D01*
X65895292Y-83677566D01*
X65895297Y-83677572D01*
X65898084Y-83681304D01*
X65901393Y-83684584D01*
X65901398Y-83684590D01*
X66080355Y-83861991D01*
X66083672Y-83865279D01*
X66087434Y-83868037D01*
X66087437Y-83868040D01*
X66286599Y-84014072D01*
X66294414Y-84019802D01*
X66298557Y-84021982D01*
X66298559Y-84021983D01*
X66521532Y-84139295D01*
X66521537Y-84139297D01*
X66525682Y-84141478D01*
X66530105Y-84143023D01*
X66530106Y-84143023D01*
X66767977Y-84226091D01*
X66767983Y-84226093D01*
X66772394Y-84227633D01*
X66776987Y-84228505D01*
X67024541Y-84275505D01*
X67024544Y-84275505D01*
X67029130Y-84276376D01*
X67159691Y-84281506D01*
X67285584Y-84286453D01*
X67285590Y-84286453D01*
X67290252Y-84286636D01*
X67382266Y-84276559D01*
X67545368Y-84258697D01*
X67545374Y-84258696D01*
X67550021Y-84258187D01*
X67802732Y-84191653D01*
X68042834Y-84088498D01*
X68046814Y-84086035D01*
X68046818Y-84086033D01*
X68261077Y-83953445D01*
X68261081Y-83953442D01*
X68265050Y-83950986D01*
X68288701Y-83930964D01*
X73682641Y-83930964D01*
X73691354Y-83942484D01*
X73788989Y-84014072D01*
X73796899Y-84019015D01*
X74019818Y-84136298D01*
X74028381Y-84140021D01*
X74266187Y-84223068D01*
X74275196Y-84225482D01*
X74522679Y-84272468D01*
X74531934Y-84273522D01*
X74783646Y-84283412D01*
X74792960Y-84283086D01*
X75043357Y-84255664D01*
X75052534Y-84253963D01*
X75296126Y-84189831D01*
X75304945Y-84186794D01*
X75536392Y-84087356D01*
X75544651Y-84083057D01*
X75758868Y-83950496D01*
X75765767Y-83945484D01*
X75774091Y-83932852D01*
X75768027Y-83922497D01*
X74739612Y-82894082D01*
X74725668Y-82886468D01*
X74723835Y-82886599D01*
X74717220Y-82890850D01*
X73689299Y-83918771D01*
X73682641Y-83930964D01*
X68288701Y-83930964D01*
X68464500Y-83782139D01*
X68556208Y-83677566D01*
X68633720Y-83589181D01*
X68633723Y-83589176D01*
X68636802Y-83585666D01*
X68651351Y-83563048D01*
X68775643Y-83369813D01*
X68778171Y-83365883D01*
X68885501Y-83127619D01*
X68951366Y-82894082D01*
X68955165Y-82880612D01*
X68955166Y-82880609D01*
X68956435Y-82876108D01*
X68989414Y-82616874D01*
X68991830Y-82524600D01*
X68988560Y-82480592D01*
X72965019Y-82480592D01*
X72977105Y-82732196D01*
X72978242Y-82741456D01*
X73027385Y-82988517D01*
X73029874Y-82997492D01*
X73114996Y-83234574D01*
X73118793Y-83243102D01*
X73238017Y-83464988D01*
X73243028Y-83472855D01*
X73306475Y-83557821D01*
X73317733Y-83566270D01*
X73330152Y-83559498D01*
X74354778Y-82534872D01*
X74361156Y-82523192D01*
X75091208Y-82523192D01*
X75091339Y-82525025D01*
X75095590Y-82531640D01*
X76126482Y-83562532D01*
X76138862Y-83569292D01*
X76147203Y-83563048D01*
X76273283Y-83367035D01*
X76277730Y-83358843D01*
X76381188Y-83129176D01*
X76384383Y-83120398D01*
X76452755Y-82877966D01*
X76454613Y-82868837D01*
X76486595Y-82617438D01*
X76487076Y-82611152D01*
X76489326Y-82525220D01*
X76489175Y-82518911D01*
X76470394Y-82266182D01*
X76469017Y-82256976D01*
X76413422Y-82011280D01*
X76410698Y-82002369D01*
X76319398Y-81767590D01*
X76315387Y-81759181D01*
X76190388Y-81540480D01*
X76185177Y-81532754D01*
X76147964Y-81485550D01*
X76136038Y-81477078D01*
X76124506Y-81483564D01*
X75098822Y-82509248D01*
X75091208Y-82523192D01*
X74361156Y-82523192D01*
X74362392Y-82520928D01*
X74362261Y-82519095D01*
X74358010Y-82512480D01*
X73328349Y-81482819D01*
X73315041Y-81475552D01*
X73305002Y-81482674D01*
X73294822Y-81494914D01*
X73289410Y-81502501D01*
X73158726Y-81717860D01*
X73154497Y-81726161D01*
X73057085Y-81958461D01*
X73054124Y-81967311D01*
X72992122Y-82211447D01*
X72990500Y-82220644D01*
X72965264Y-82471266D01*
X72965019Y-82480592D01*
X68988560Y-82480592D01*
X68972464Y-82263996D01*
X68963210Y-82223097D01*
X68915821Y-82013674D01*
X68914790Y-82009117D01*
X68827248Y-81784002D01*
X68821201Y-81713265D01*
X68854357Y-81650486D01*
X68916191Y-81615599D01*
X68987070Y-81619680D01*
X69003338Y-81626823D01*
X69027582Y-81639578D01*
X69032005Y-81641123D01*
X69032006Y-81641123D01*
X69269877Y-81724191D01*
X69269883Y-81724193D01*
X69274294Y-81725733D01*
X69278887Y-81726605D01*
X69526441Y-81773605D01*
X69526444Y-81773605D01*
X69531030Y-81774476D01*
X69661591Y-81779606D01*
X69787484Y-81784553D01*
X69787490Y-81784553D01*
X69792152Y-81784736D01*
X69884166Y-81774659D01*
X70047268Y-81756797D01*
X70047274Y-81756796D01*
X70051921Y-81756287D01*
X70304632Y-81689753D01*
X70544734Y-81586598D01*
X70548714Y-81584135D01*
X70548718Y-81584133D01*
X70762977Y-81451545D01*
X70762981Y-81451542D01*
X70766950Y-81449086D01*
X70966400Y-81280239D01*
X71073947Y-81157605D01*
X71114736Y-81111094D01*
X73680247Y-81111094D01*
X73684820Y-81120870D01*
X74713988Y-82150038D01*
X74727932Y-82157652D01*
X74729765Y-82157521D01*
X74736380Y-82153270D01*
X75764988Y-81124662D01*
X75771372Y-81112972D01*
X75761960Y-81100861D01*
X75625230Y-81006008D01*
X75617205Y-81001280D01*
X75391271Y-80889861D01*
X75382639Y-80886374D01*
X75142724Y-80809577D01*
X75133663Y-80807401D01*
X74885032Y-80766909D01*
X74875745Y-80766097D01*
X74623872Y-80762800D01*
X74614560Y-80763370D01*
X74364963Y-80797338D01*
X74355845Y-80799276D01*
X74114020Y-80869762D01*
X74105267Y-80873034D01*
X73876516Y-80978490D01*
X73868361Y-80983010D01*
X73689385Y-81100352D01*
X73680247Y-81111094D01*
X71114736Y-81111094D01*
X71135620Y-81087281D01*
X71135623Y-81087276D01*
X71138702Y-81083766D01*
X71280071Y-80863983D01*
X71387401Y-80625719D01*
X71458335Y-80374208D01*
X71491314Y-80114974D01*
X71493730Y-80022700D01*
X71490300Y-79976547D01*
X77960474Y-79976547D01*
X77960698Y-79981213D01*
X77960698Y-79981218D01*
X77966972Y-80111817D01*
X77973012Y-80237569D01*
X78023994Y-80493871D01*
X78112299Y-80739821D01*
X78114516Y-80743947D01*
X78192925Y-80889873D01*
X78235988Y-80970018D01*
X78238783Y-80973762D01*
X78238785Y-80973764D01*
X78389552Y-81175666D01*
X78389557Y-81175672D01*
X78392344Y-81179404D01*
X78395653Y-81182684D01*
X78395658Y-81182690D01*
X78551451Y-81337128D01*
X78577932Y-81363379D01*
X78581694Y-81366137D01*
X78581697Y-81366140D01*
X78770737Y-81504750D01*
X78788674Y-81517902D01*
X78792817Y-81520082D01*
X78792819Y-81520083D01*
X79015792Y-81637395D01*
X79015797Y-81637397D01*
X79019942Y-81639578D01*
X79024365Y-81641123D01*
X79024366Y-81641123D01*
X79262237Y-81724191D01*
X79262243Y-81724193D01*
X79266654Y-81725733D01*
X79271247Y-81726605D01*
X79518801Y-81773605D01*
X79518804Y-81773605D01*
X79523390Y-81774476D01*
X79653951Y-81779606D01*
X79779844Y-81784553D01*
X79779850Y-81784553D01*
X79784512Y-81784736D01*
X79876526Y-81774659D01*
X80039628Y-81756797D01*
X80039634Y-81756796D01*
X80044281Y-81756287D01*
X80296992Y-81689753D01*
X80388389Y-81650486D01*
X80463443Y-81618241D01*
X80533927Y-81609729D01*
X80597825Y-81640675D01*
X80634848Y-81701254D01*
X80633242Y-81772232D01*
X80629377Y-81782734D01*
X80555689Y-81958461D01*
X80552881Y-81965157D01*
X80488556Y-82218439D01*
X80462374Y-82478447D01*
X80462598Y-82483113D01*
X80462598Y-82483118D01*
X80464929Y-82531640D01*
X80474912Y-82739469D01*
X80525894Y-82995771D01*
X80614199Y-83241721D01*
X80737888Y-83471918D01*
X80740683Y-83475662D01*
X80740685Y-83475664D01*
X80891452Y-83677566D01*
X80891457Y-83677572D01*
X80894244Y-83681304D01*
X80897553Y-83684584D01*
X80897558Y-83684590D01*
X81076515Y-83861991D01*
X81079832Y-83865279D01*
X81083594Y-83868037D01*
X81083597Y-83868040D01*
X81282759Y-84014072D01*
X81290574Y-84019802D01*
X81294717Y-84021982D01*
X81294719Y-84021983D01*
X81517692Y-84139295D01*
X81517697Y-84139297D01*
X81521842Y-84141478D01*
X81526265Y-84143023D01*
X81526266Y-84143023D01*
X81764137Y-84226091D01*
X81764143Y-84226093D01*
X81768554Y-84227633D01*
X81773147Y-84228505D01*
X82020701Y-84275505D01*
X82020704Y-84275505D01*
X82025290Y-84276376D01*
X82155851Y-84281506D01*
X82281744Y-84286453D01*
X82281750Y-84286453D01*
X82286412Y-84286636D01*
X82378426Y-84276559D01*
X82541528Y-84258697D01*
X82541534Y-84258696D01*
X82546181Y-84258187D01*
X82798892Y-84191653D01*
X83038994Y-84088498D01*
X83042974Y-84086035D01*
X83042978Y-84086033D01*
X83257237Y-83953445D01*
X83257241Y-83953442D01*
X83261210Y-83950986D01*
X83460660Y-83782139D01*
X83552368Y-83677566D01*
X83629880Y-83589181D01*
X83629883Y-83589176D01*
X83632962Y-83585666D01*
X83647511Y-83563048D01*
X83771803Y-83369813D01*
X83774331Y-83365883D01*
X83881661Y-83127619D01*
X83947526Y-82894082D01*
X83951325Y-82880612D01*
X83951326Y-82880609D01*
X83952595Y-82876108D01*
X83985574Y-82616874D01*
X83987990Y-82524600D01*
X83968624Y-82263996D01*
X83959370Y-82223097D01*
X83911981Y-82013674D01*
X83910950Y-82009117D01*
X83908326Y-82002369D01*
X83817930Y-81769915D01*
X83817929Y-81769913D01*
X83816237Y-81765562D01*
X83811228Y-81756797D01*
X83742984Y-81637395D01*
X83686564Y-81538681D01*
X83524781Y-81333460D01*
X83334441Y-81154406D01*
X83119726Y-81005453D01*
X83078479Y-80985112D01*
X82889541Y-80891938D01*
X82889538Y-80891937D01*
X82885353Y-80889873D01*
X82879087Y-80887867D01*
X82786613Y-80858266D01*
X82636470Y-80810205D01*
X82631863Y-80809455D01*
X82631860Y-80809454D01*
X82383156Y-80768950D01*
X82383157Y-80768950D01*
X82378545Y-80768199D01*
X82251860Y-80766541D01*
X82121922Y-80764840D01*
X82121919Y-80764840D01*
X82117245Y-80764779D01*
X81858309Y-80800018D01*
X81853819Y-80801327D01*
X81853813Y-80801328D01*
X81784556Y-80821515D01*
X81607426Y-80873144D01*
X81603179Y-80875102D01*
X81603176Y-80875103D01*
X81485468Y-80929367D01*
X81415230Y-80939722D01*
X81350545Y-80910459D01*
X81311948Y-80850870D01*
X81311695Y-80779874D01*
X81317835Y-80763191D01*
X81377838Y-80629988D01*
X81377840Y-80629983D01*
X81379761Y-80625719D01*
X81450695Y-80374208D01*
X81483674Y-80114974D01*
X81486090Y-80022700D01*
X81466724Y-79762096D01*
X81457470Y-79721197D01*
X81410081Y-79511774D01*
X81409050Y-79507217D01*
X81407357Y-79502863D01*
X81316030Y-79268015D01*
X81316029Y-79268013D01*
X81314337Y-79263662D01*
X81184664Y-79036781D01*
X81022881Y-78831560D01*
X80832541Y-78652506D01*
X80617826Y-78503553D01*
X80576579Y-78483212D01*
X80387641Y-78390038D01*
X80387638Y-78390037D01*
X80383453Y-78387973D01*
X80337312Y-78373203D01*
X80284713Y-78356366D01*
X80134570Y-78308305D01*
X80129963Y-78307555D01*
X80129960Y-78307554D01*
X79881256Y-78267050D01*
X79881257Y-78267050D01*
X79876645Y-78266299D01*
X79749960Y-78264641D01*
X79620022Y-78262940D01*
X79620019Y-78262940D01*
X79615345Y-78262879D01*
X79356409Y-78298118D01*
X79351919Y-78299427D01*
X79351913Y-78299428D01*
X79245235Y-78330522D01*
X79105526Y-78371244D01*
X79101279Y-78373202D01*
X79101276Y-78373203D01*
X79064758Y-78390038D01*
X78868207Y-78480649D01*
X78833273Y-78503553D01*
X78653580Y-78621365D01*
X78653575Y-78621368D01*
X78649667Y-78623931D01*
X78454705Y-78797941D01*
X78287605Y-78998857D01*
X78152037Y-79222265D01*
X78150228Y-79226579D01*
X78150226Y-79226583D01*
X78134678Y-79263662D01*
X78050981Y-79463257D01*
X77986656Y-79716539D01*
X77960474Y-79976547D01*
X71490300Y-79976547D01*
X71474364Y-79762096D01*
X71465110Y-79721197D01*
X71417721Y-79511774D01*
X71416690Y-79507217D01*
X71414997Y-79502863D01*
X71323670Y-79268015D01*
X71323669Y-79268013D01*
X71321977Y-79263662D01*
X71192304Y-79036781D01*
X71030521Y-78831560D01*
X70840181Y-78652506D01*
X70625466Y-78503553D01*
X70584219Y-78483212D01*
X70395281Y-78390038D01*
X70395278Y-78390037D01*
X70391093Y-78387973D01*
X70344952Y-78373203D01*
X70292353Y-78356366D01*
X70142210Y-78308305D01*
X70137603Y-78307555D01*
X70137600Y-78307554D01*
X69888896Y-78267050D01*
X69888897Y-78267050D01*
X69884285Y-78266299D01*
X69757600Y-78264641D01*
X69627662Y-78262940D01*
X69627659Y-78262940D01*
X69622985Y-78262879D01*
X69364049Y-78298118D01*
X69359559Y-78299427D01*
X69359553Y-78299428D01*
X69252875Y-78330522D01*
X69113166Y-78371244D01*
X69108919Y-78373202D01*
X69108916Y-78373203D01*
X69072398Y-78390038D01*
X68875847Y-78480649D01*
X68840913Y-78503553D01*
X68661220Y-78621365D01*
X68661215Y-78621368D01*
X68657307Y-78623931D01*
X68462345Y-78797941D01*
X68295245Y-78998857D01*
X68159677Y-79222265D01*
X68157868Y-79226579D01*
X68157866Y-79226583D01*
X68142318Y-79263662D01*
X68058621Y-79463257D01*
X67994296Y-79716539D01*
X67968114Y-79976547D01*
X67968338Y-79981213D01*
X67968338Y-79981218D01*
X67974612Y-80111817D01*
X67980652Y-80237569D01*
X68031634Y-80493871D01*
X68119939Y-80739821D01*
X68122156Y-80743947D01*
X68126505Y-80752041D01*
X68141128Y-80821515D01*
X68115870Y-80887867D01*
X68058748Y-80930029D01*
X67987900Y-80934616D01*
X67959785Y-80924685D01*
X67893381Y-80891938D01*
X67893378Y-80891937D01*
X67889193Y-80889873D01*
X67882927Y-80887867D01*
X67790453Y-80858266D01*
X67640310Y-80810205D01*
X67635703Y-80809455D01*
X67635700Y-80809454D01*
X67386996Y-80768950D01*
X67386997Y-80768950D01*
X67382385Y-80768199D01*
X67255700Y-80766541D01*
X67125762Y-80764840D01*
X67125759Y-80764840D01*
X67121085Y-80764779D01*
X66862149Y-80800018D01*
X66857659Y-80801327D01*
X66857653Y-80801328D01*
X66788396Y-80821515D01*
X66611266Y-80873144D01*
X66607019Y-80875102D01*
X66607016Y-80875103D01*
X66570498Y-80891938D01*
X66373947Y-80982549D01*
X66339013Y-81005453D01*
X66159320Y-81123265D01*
X66159315Y-81123268D01*
X66155407Y-81125831D01*
X66091702Y-81182690D01*
X65979025Y-81283258D01*
X65960445Y-81299841D01*
X65929434Y-81337128D01*
X65798205Y-81494914D01*
X65793345Y-81500757D01*
X65657777Y-81724165D01*
X65655968Y-81728479D01*
X65655966Y-81728483D01*
X65559529Y-81958461D01*
X65556721Y-81965157D01*
X65492396Y-82218439D01*
X65466214Y-82478447D01*
X65075300Y-82478447D01*
X65075300Y-74078461D01*
X78612142Y-74078461D01*
X78632097Y-74306548D01*
X78691356Y-74527704D01*
X78693679Y-74532685D01*
X78693679Y-74532686D01*
X78785791Y-74730223D01*
X78785794Y-74730228D01*
X78788117Y-74735210D01*
X78919442Y-74922761D01*
X79081340Y-75084659D01*
X79085848Y-75087816D01*
X79085851Y-75087818D01*
X79164029Y-75142559D01*
X79268891Y-75215984D01*
X79273873Y-75218307D01*
X79273878Y-75218310D01*
X79471415Y-75310422D01*
X79476397Y-75312745D01*
X79481705Y-75314167D01*
X79481707Y-75314168D01*
X79692238Y-75370580D01*
X79692240Y-75370580D01*
X79697553Y-75372004D01*
X79925640Y-75391959D01*
X80153727Y-75372004D01*
X80159040Y-75370580D01*
X80159042Y-75370580D01*
X80369573Y-75314168D01*
X80369575Y-75314167D01*
X80374883Y-75312745D01*
X80379865Y-75310422D01*
X80577402Y-75218310D01*
X80577407Y-75218307D01*
X80582389Y-75215984D01*
X80687251Y-75142559D01*
X80765429Y-75087818D01*
X80765432Y-75087816D01*
X80769940Y-75084659D01*
X80931838Y-74922761D01*
X81063163Y-74735210D01*
X81065486Y-74730228D01*
X81065489Y-74730223D01*
X81157601Y-74532686D01*
X81157601Y-74532685D01*
X81159924Y-74527704D01*
X81219183Y-74306548D01*
X81239138Y-74078461D01*
X81219183Y-73850374D01*
X81159924Y-73629218D01*
X81157601Y-73624236D01*
X81065489Y-73426699D01*
X81065486Y-73426694D01*
X81063163Y-73421712D01*
X80931838Y-73234161D01*
X80769940Y-73072263D01*
X80765432Y-73069106D01*
X80765429Y-73069104D01*
X80596236Y-72950634D01*
X80582389Y-72940938D01*
X80577407Y-72938615D01*
X80577402Y-72938612D01*
X80379865Y-72846500D01*
X80379864Y-72846500D01*
X80374883Y-72844177D01*
X80369575Y-72842755D01*
X80369573Y-72842754D01*
X80159042Y-72786342D01*
X80159040Y-72786342D01*
X80153727Y-72784918D01*
X79925640Y-72764963D01*
X79697553Y-72784918D01*
X79692240Y-72786342D01*
X79692238Y-72786342D01*
X79481707Y-72842754D01*
X79481705Y-72842755D01*
X79476397Y-72844177D01*
X79471416Y-72846500D01*
X79471415Y-72846500D01*
X79273878Y-72938612D01*
X79273873Y-72938615D01*
X79268891Y-72940938D01*
X79255044Y-72950634D01*
X79085851Y-73069104D01*
X79085848Y-73069106D01*
X79081340Y-73072263D01*
X78919442Y-73234161D01*
X78788117Y-73421712D01*
X78785794Y-73426694D01*
X78785791Y-73426699D01*
X78693679Y-73624236D01*
X78691356Y-73629218D01*
X78632097Y-73850374D01*
X78612142Y-74078461D01*
X65075300Y-74078461D01*
X65075300Y-72234636D01*
X65095302Y-72166515D01*
X65148958Y-72120022D01*
X65219232Y-72109918D01*
X65254550Y-72120441D01*
X65385348Y-72181433D01*
X65390330Y-72183756D01*
X65395638Y-72185178D01*
X65395640Y-72185179D01*
X65589270Y-72237062D01*
X65589272Y-72237062D01*
X65594585Y-72238486D01*
X65805240Y-72256916D01*
X66015895Y-72238486D01*
X66021208Y-72237062D01*
X66021210Y-72237062D01*
X66214840Y-72185179D01*
X66214842Y-72185178D01*
X66220150Y-72183756D01*
X66225132Y-72181433D01*
X66406817Y-72096712D01*
X66406820Y-72096710D01*
X66411798Y-72094389D01*
X66585016Y-71973101D01*
X66734541Y-71823576D01*
X66855829Y-71650358D01*
X66945196Y-71458710D01*
X66999926Y-71254455D01*
X67018356Y-71043800D01*
X67004725Y-70887996D01*
X67000405Y-70838616D01*
X67000404Y-70838612D01*
X66999926Y-70833145D01*
X66998504Y-70827839D01*
X66997693Y-70823239D01*
X67005561Y-70752679D01*
X67032683Y-70712262D01*
X67592493Y-70152452D01*
X67600779Y-70144912D01*
X67607258Y-70140800D01*
X67628299Y-70118394D01*
X67653883Y-70091149D01*
X67656638Y-70088307D01*
X67676375Y-70068570D01*
X67678855Y-70065373D01*
X67686560Y-70056351D01*
X67711399Y-70029900D01*
X67716826Y-70024121D01*
X67720645Y-70017175D01*
X67720647Y-70017172D01*
X67726588Y-70006366D01*
X67737439Y-69989847D01*
X67744998Y-69980101D01*
X67749854Y-69973841D01*
X67752999Y-69966572D01*
X67753002Y-69966568D01*
X67767414Y-69933263D01*
X67772631Y-69922613D01*
X67793935Y-69883860D01*
X67798973Y-69864237D01*
X67805377Y-69845534D01*
X67810273Y-69834220D01*
X67810273Y-69834219D01*
X67813421Y-69826945D01*
X67814660Y-69819122D01*
X67814663Y-69819112D01*
X67820339Y-69783276D01*
X67822745Y-69771656D01*
X67831768Y-69736511D01*
X67831768Y-69736510D01*
X67833740Y-69728830D01*
X67833740Y-69708576D01*
X67835291Y-69688865D01*
X67837220Y-69676686D01*
X67838460Y-69668857D01*
X67834299Y-69624838D01*
X67833740Y-69612981D01*
X67833740Y-69234485D01*
X67853742Y-69166364D01*
X67907398Y-69119871D01*
X67977672Y-69109767D01*
X68042252Y-69139261D01*
X68062951Y-69162212D01*
X68175939Y-69323576D01*
X68325464Y-69473101D01*
X68498682Y-69594389D01*
X68503660Y-69596710D01*
X68503663Y-69596712D01*
X68681428Y-69679605D01*
X68734713Y-69726522D01*
X68754174Y-69794800D01*
X68733632Y-69862760D01*
X68681428Y-69907995D01*
X68503663Y-69990888D01*
X68503660Y-69990890D01*
X68498682Y-69993211D01*
X68325464Y-70114499D01*
X68175939Y-70264024D01*
X68054651Y-70437242D01*
X68052330Y-70442220D01*
X68052328Y-70442223D01*
X67983497Y-70589832D01*
X67965284Y-70628890D01*
X67963862Y-70634198D01*
X67963861Y-70634200D01*
X67932115Y-70752679D01*
X67910554Y-70833145D01*
X67892124Y-71043800D01*
X67910554Y-71254455D01*
X67965284Y-71458710D01*
X68054651Y-71650358D01*
X68175939Y-71823576D01*
X68325464Y-71973101D01*
X68498682Y-72094389D01*
X68503660Y-72096710D01*
X68503663Y-72096712D01*
X68685348Y-72181433D01*
X68690330Y-72183756D01*
X68695638Y-72185178D01*
X68695640Y-72185179D01*
X68889270Y-72237062D01*
X68889272Y-72237062D01*
X68894585Y-72238486D01*
X69105240Y-72256916D01*
X69315895Y-72238486D01*
X69321208Y-72237062D01*
X69321210Y-72237062D01*
X69514840Y-72185179D01*
X69514842Y-72185178D01*
X69520150Y-72183756D01*
X69525132Y-72181433D01*
X69706817Y-72096712D01*
X69706820Y-72096710D01*
X69711798Y-72094389D01*
X69885016Y-71973101D01*
X70034541Y-71823576D01*
X70155829Y-71650358D01*
X70245196Y-71458710D01*
X70250629Y-71438433D01*
X72583983Y-71438433D01*
X72584542Y-71442677D01*
X72584542Y-71442681D01*
X72586890Y-71460514D01*
X72621508Y-71723464D01*
X72697369Y-72000766D01*
X72699053Y-72004714D01*
X72806423Y-72256437D01*
X72810163Y-72265206D01*
X72957801Y-72511891D01*
X73137553Y-72736258D01*
X73346091Y-72934153D01*
X73579557Y-73101916D01*
X73583352Y-73103925D01*
X73583353Y-73103926D01*
X73605109Y-73115445D01*
X73833632Y-73236442D01*
X74103613Y-73335241D01*
X74384504Y-73396485D01*
X74413081Y-73398734D01*
X74607522Y-73414037D01*
X74607531Y-73414037D01*
X74609979Y-73414230D01*
X74765511Y-73414230D01*
X74767647Y-73414084D01*
X74767658Y-73414084D01*
X74975788Y-73399895D01*
X74975794Y-73399894D01*
X74980065Y-73399603D01*
X74984260Y-73398734D01*
X74984262Y-73398734D01*
X75201593Y-73353727D01*
X75261582Y-73341304D01*
X75532583Y-73245337D01*
X75788052Y-73113480D01*
X75791553Y-73111019D01*
X75791557Y-73111017D01*
X75905658Y-73030825D01*
X76023263Y-72948171D01*
X76136705Y-72842754D01*
X76230719Y-72755391D01*
X76230721Y-72755388D01*
X76233862Y-72752470D01*
X76415953Y-72529998D01*
X76566167Y-72284872D01*
X76681723Y-72021628D01*
X76694647Y-71976260D01*
X76759308Y-71749264D01*
X76760484Y-71745136D01*
X76800991Y-71460514D01*
X76801029Y-71453400D01*
X76802475Y-71177313D01*
X76802475Y-71177306D01*
X76802497Y-71173027D01*
X76764972Y-70887996D01*
X76748513Y-70827830D01*
X76730953Y-70763642D01*
X76689111Y-70610694D01*
X76615127Y-70437242D01*
X76578003Y-70350206D01*
X76578001Y-70350202D01*
X76576317Y-70346254D01*
X76460329Y-70152452D01*
X76430883Y-70103251D01*
X76430880Y-70103247D01*
X76428679Y-70099569D01*
X76248927Y-69875202D01*
X76092251Y-69726522D01*
X76043498Y-69680257D01*
X76043495Y-69680255D01*
X76040389Y-69677307D01*
X75806923Y-69509544D01*
X75785083Y-69497980D01*
X75761894Y-69485702D01*
X75552848Y-69375018D01*
X75399960Y-69319069D01*
X75286898Y-69277694D01*
X75286896Y-69277693D01*
X75282867Y-69276219D01*
X75001976Y-69214975D01*
X74970925Y-69212531D01*
X74778958Y-69197423D01*
X74778949Y-69197423D01*
X74776501Y-69197230D01*
X74620969Y-69197230D01*
X74618833Y-69197376D01*
X74618822Y-69197376D01*
X74410692Y-69211565D01*
X74410686Y-69211566D01*
X74406415Y-69211857D01*
X74402220Y-69212726D01*
X74402218Y-69212726D01*
X74297148Y-69234485D01*
X74124898Y-69270156D01*
X73853897Y-69366123D01*
X73598428Y-69497980D01*
X73594927Y-69500441D01*
X73594923Y-69500443D01*
X73581974Y-69509544D01*
X73363217Y-69663289D01*
X73301219Y-69720901D01*
X73157306Y-69854634D01*
X73152618Y-69858990D01*
X72970527Y-70081462D01*
X72820313Y-70326588D01*
X72704757Y-70589832D01*
X72625996Y-70866324D01*
X72585489Y-71150946D01*
X72585467Y-71155235D01*
X72585466Y-71155242D01*
X72584005Y-71434147D01*
X72583983Y-71438433D01*
X70250629Y-71438433D01*
X70299926Y-71254455D01*
X70318356Y-71043800D01*
X70299926Y-70833145D01*
X70278365Y-70752679D01*
X70246619Y-70634200D01*
X70246618Y-70634198D01*
X70245196Y-70628890D01*
X70226983Y-70589832D01*
X70158152Y-70442223D01*
X70158150Y-70442220D01*
X70155829Y-70437242D01*
X70034541Y-70264024D01*
X69885016Y-70114499D01*
X69711798Y-69993211D01*
X69706820Y-69990890D01*
X69706817Y-69990888D01*
X69529052Y-69907995D01*
X69475767Y-69861078D01*
X69456306Y-69792800D01*
X69476848Y-69724840D01*
X69529052Y-69679605D01*
X69706817Y-69596712D01*
X69706820Y-69596710D01*
X69711798Y-69594389D01*
X69885016Y-69473101D01*
X70034541Y-69323576D01*
X70155829Y-69150358D01*
X70170046Y-69119871D01*
X70242873Y-68963692D01*
X70242874Y-68963691D01*
X70245196Y-68958710D01*
X70299926Y-68754455D01*
X70318356Y-68543800D01*
X70299926Y-68333145D01*
X70245196Y-68128890D01*
X70155829Y-67937242D01*
X70034541Y-67764024D01*
X69885016Y-67614499D01*
X69711798Y-67493211D01*
X69706815Y-67490888D01*
X69702045Y-67488133D01*
X69703144Y-67486230D01*
X69656970Y-67445565D01*
X69637517Y-67377286D01*
X69658067Y-67309328D01*
X69712095Y-67263269D01*
X69763513Y-67252300D01*
X69853374Y-67252300D01*
X69915556Y-67245545D01*
X70051945Y-67194415D01*
X70168501Y-67107061D01*
X70255855Y-66990505D01*
X70306985Y-66854116D01*
X70313740Y-66791934D01*
X70313740Y-66458461D01*
X78612142Y-66458461D01*
X78632097Y-66686548D01*
X78633521Y-66691861D01*
X78633521Y-66691863D01*
X78678980Y-66861515D01*
X78691356Y-66907704D01*
X78693679Y-66912685D01*
X78693679Y-66912686D01*
X78785791Y-67110223D01*
X78785794Y-67110228D01*
X78788117Y-67115210D01*
X78919442Y-67302761D01*
X79081340Y-67464659D01*
X79085848Y-67467816D01*
X79085851Y-67467818D01*
X79122116Y-67493211D01*
X79268891Y-67595984D01*
X79273873Y-67598307D01*
X79273878Y-67598310D01*
X79471415Y-67690422D01*
X79476397Y-67692745D01*
X79481705Y-67694167D01*
X79481707Y-67694168D01*
X79692238Y-67750580D01*
X79692240Y-67750580D01*
X79697553Y-67752004D01*
X79925640Y-67771959D01*
X80153727Y-67752004D01*
X80159040Y-67750580D01*
X80159042Y-67750580D01*
X80369573Y-67694168D01*
X80369575Y-67694167D01*
X80374883Y-67692745D01*
X80379865Y-67690422D01*
X80577402Y-67598310D01*
X80577407Y-67598307D01*
X80582389Y-67595984D01*
X80729164Y-67493211D01*
X80765429Y-67467818D01*
X80765432Y-67467816D01*
X80769940Y-67464659D01*
X80931838Y-67302761D01*
X81063163Y-67115210D01*
X81065486Y-67110228D01*
X81065489Y-67110223D01*
X81157601Y-66912686D01*
X81157601Y-66912685D01*
X81159924Y-66907704D01*
X81172301Y-66861515D01*
X81217759Y-66691863D01*
X81217759Y-66691861D01*
X81219183Y-66686548D01*
X81239138Y-66458461D01*
X81219183Y-66230374D01*
X81159924Y-66009218D01*
X81157601Y-66004236D01*
X81065489Y-65806699D01*
X81065486Y-65806694D01*
X81063163Y-65801712D01*
X80931838Y-65614161D01*
X80769940Y-65452263D01*
X80765432Y-65449106D01*
X80765429Y-65449104D01*
X80687251Y-65394363D01*
X80582389Y-65320938D01*
X80577407Y-65318615D01*
X80577402Y-65318612D01*
X80379865Y-65226500D01*
X80379864Y-65226500D01*
X80374883Y-65224177D01*
X80369575Y-65222755D01*
X80369573Y-65222754D01*
X80159042Y-65166342D01*
X80159040Y-65166342D01*
X80153727Y-65164918D01*
X79925640Y-65144963D01*
X79697553Y-65164918D01*
X79692240Y-65166342D01*
X79692238Y-65166342D01*
X79481707Y-65222754D01*
X79481705Y-65222755D01*
X79476397Y-65224177D01*
X79471416Y-65226500D01*
X79471415Y-65226500D01*
X79273878Y-65318612D01*
X79273873Y-65318615D01*
X79268891Y-65320938D01*
X79164029Y-65394363D01*
X79085851Y-65449104D01*
X79085848Y-65449106D01*
X79081340Y-65452263D01*
X78919442Y-65614161D01*
X78788117Y-65801712D01*
X78785794Y-65806694D01*
X78785791Y-65806699D01*
X78693679Y-66004236D01*
X78691356Y-66009218D01*
X78632097Y-66230374D01*
X78612142Y-66458461D01*
X70313740Y-66458461D01*
X70313740Y-65295666D01*
X70306985Y-65233484D01*
X70255855Y-65097095D01*
X70168501Y-64980539D01*
X70051945Y-64893185D01*
X69915556Y-64842055D01*
X69853374Y-64835300D01*
X68512834Y-64835300D01*
X68444713Y-64815298D01*
X68398220Y-64761642D01*
X68388116Y-64691368D01*
X68417610Y-64626788D01*
X68423739Y-64620205D01*
X68822739Y-64221205D01*
X68885051Y-64187179D01*
X68911834Y-64184300D01*
X70293925Y-64184300D01*
X70362046Y-64204302D01*
X70397138Y-64238030D01*
X70461939Y-64330576D01*
X70611464Y-64480101D01*
X70784682Y-64601389D01*
X70789660Y-64603710D01*
X70789663Y-64603712D01*
X70940392Y-64673998D01*
X70976330Y-64690756D01*
X70981638Y-64692178D01*
X70981640Y-64692179D01*
X71175270Y-64744062D01*
X71175272Y-64744062D01*
X71180585Y-64745486D01*
X71391240Y-64763916D01*
X71601895Y-64745486D01*
X71607208Y-64744062D01*
X71607210Y-64744062D01*
X71800840Y-64692179D01*
X71800842Y-64692178D01*
X71806150Y-64690756D01*
X71842088Y-64673998D01*
X71992817Y-64603712D01*
X71992820Y-64603710D01*
X71997798Y-64601389D01*
X72171016Y-64480101D01*
X72320541Y-64330576D01*
X72441829Y-64157358D01*
X72455307Y-64128456D01*
X72528873Y-63970692D01*
X72528874Y-63970691D01*
X72531196Y-63965710D01*
X72585926Y-63761455D01*
X72604356Y-63550800D01*
X72585926Y-63340145D01*
X72531196Y-63135890D01*
X72507619Y-63085328D01*
X72444152Y-62949223D01*
X72444150Y-62949220D01*
X72441829Y-62944242D01*
X72320541Y-62771024D01*
X72171016Y-62621499D01*
X71997798Y-62500211D01*
X71992820Y-62497890D01*
X71992817Y-62497888D01*
X71811132Y-62413167D01*
X71811131Y-62413166D01*
X71806150Y-62410844D01*
X71800842Y-62409422D01*
X71800840Y-62409421D01*
X71607210Y-62357538D01*
X71607208Y-62357538D01*
X71601895Y-62356114D01*
X71391240Y-62337684D01*
X71180585Y-62356114D01*
X71175272Y-62357538D01*
X71175270Y-62357538D01*
X70981640Y-62409421D01*
X70981638Y-62409422D01*
X70976330Y-62410844D01*
X70971349Y-62413166D01*
X70971348Y-62413167D01*
X70789663Y-62497888D01*
X70789660Y-62497890D01*
X70784682Y-62500211D01*
X70611464Y-62621499D01*
X70461939Y-62771024D01*
X70458780Y-62775536D01*
X70397138Y-62863570D01*
X70341681Y-62907899D01*
X70293925Y-62917300D01*
X68676003Y-62917300D01*
X68664819Y-62916773D01*
X68657331Y-62915099D01*
X68649408Y-62915348D01*
X68589273Y-62917238D01*
X68585315Y-62917300D01*
X68557384Y-62917300D01*
X68553469Y-62917795D01*
X68553465Y-62917795D01*
X68553407Y-62917803D01*
X68553378Y-62917806D01*
X68541536Y-62918739D01*
X68497350Y-62920127D01*
X68479984Y-62925172D01*
X68477898Y-62925778D01*
X68458546Y-62929786D01*
X68451475Y-62930680D01*
X68438443Y-62932326D01*
X68431074Y-62935243D01*
X68431072Y-62935244D01*
X68397337Y-62948600D01*
X68386109Y-62952445D01*
X68343647Y-62964782D01*
X68336825Y-62968816D01*
X68336819Y-62968819D01*
X68326208Y-62975094D01*
X68308458Y-62983790D01*
X68296996Y-62988328D01*
X68296991Y-62988331D01*
X68289623Y-62991248D01*
X68283208Y-62995909D01*
X68253865Y-63017227D01*
X68243947Y-63023743D01*
X68225259Y-63034795D01*
X68205877Y-63046258D01*
X68191553Y-63060582D01*
X68176521Y-63073421D01*
X68160133Y-63085328D01*
X68131952Y-63119393D01*
X68123962Y-63128173D01*
X66807987Y-64444148D01*
X66799701Y-64451688D01*
X66793222Y-64455800D01*
X66787797Y-64461577D01*
X66746597Y-64505451D01*
X66743842Y-64508293D01*
X66724105Y-64528030D01*
X66721625Y-64531227D01*
X66713922Y-64540247D01*
X66683654Y-64572479D01*
X66679835Y-64579425D01*
X66679833Y-64579428D01*
X66673892Y-64590234D01*
X66663041Y-64606753D01*
X66650626Y-64622759D01*
X66647481Y-64630028D01*
X66647478Y-64630032D01*
X66633066Y-64663337D01*
X66627849Y-64673987D01*
X66606545Y-64712740D01*
X66604574Y-64720415D01*
X66604574Y-64720416D01*
X66601507Y-64732362D01*
X66595103Y-64751066D01*
X66590527Y-64761642D01*
X66587059Y-64769655D01*
X66585820Y-64777478D01*
X66585817Y-64777488D01*
X66580141Y-64813324D01*
X66577735Y-64824944D01*
X66574982Y-64835669D01*
X66566740Y-64867770D01*
X66566740Y-64875701D01*
X66565758Y-64883475D01*
X66537377Y-64948552D01*
X66478319Y-64987955D01*
X66407333Y-64989173D01*
X66387501Y-64981881D01*
X66225132Y-64906167D01*
X66225131Y-64906166D01*
X66220150Y-64903844D01*
X66214842Y-64902422D01*
X66214840Y-64902421D01*
X66021210Y-64850538D01*
X66021208Y-64850538D01*
X66015895Y-64849114D01*
X65805240Y-64830684D01*
X65594585Y-64849114D01*
X65589272Y-64850538D01*
X65589270Y-64850538D01*
X65395640Y-64902421D01*
X65395638Y-64902422D01*
X65390330Y-64903844D01*
X65385349Y-64906166D01*
X65385348Y-64906167D01*
X65254550Y-64967159D01*
X65184358Y-64977820D01*
X65119545Y-64948840D01*
X65080689Y-64889420D01*
X65075300Y-64852964D01*
X65075300Y-61319948D01*
X65095302Y-61251827D01*
X65148958Y-61205334D01*
X65219232Y-61195230D01*
X65283812Y-61224724D01*
X65290395Y-61230853D01*
X65314540Y-61254998D01*
X65319048Y-61258155D01*
X65319051Y-61258157D01*
X65397229Y-61312898D01*
X65502091Y-61386323D01*
X65507073Y-61388646D01*
X65507078Y-61388649D01*
X65704615Y-61480761D01*
X65709597Y-61483084D01*
X65714905Y-61484506D01*
X65714907Y-61484507D01*
X65925438Y-61540919D01*
X65925440Y-61540919D01*
X65930753Y-61542343D01*
X66158840Y-61562298D01*
X66386927Y-61542343D01*
X66392240Y-61540919D01*
X66392242Y-61540919D01*
X66602773Y-61484507D01*
X66602775Y-61484506D01*
X66608083Y-61483084D01*
X66613065Y-61480761D01*
X66810602Y-61388649D01*
X66810607Y-61388646D01*
X66815589Y-61386323D01*
X66920451Y-61312898D01*
X66998629Y-61258157D01*
X66998632Y-61258155D01*
X67003140Y-61254998D01*
X67165038Y-61093100D01*
X67211975Y-61026068D01*
X67252644Y-60967986D01*
X67296363Y-60905549D01*
X67298686Y-60900567D01*
X67298689Y-60900562D01*
X67390801Y-60703025D01*
X67390801Y-60703024D01*
X67393124Y-60698043D01*
X67452383Y-60476887D01*
X67472338Y-60248800D01*
X67994942Y-60248800D01*
X68014897Y-60476887D01*
X68074156Y-60698043D01*
X68076479Y-60703024D01*
X68076479Y-60703025D01*
X68168591Y-60900562D01*
X68168594Y-60900567D01*
X68170917Y-60905549D01*
X68214636Y-60967986D01*
X68255306Y-61026068D01*
X68302242Y-61093100D01*
X68464140Y-61254998D01*
X68468648Y-61258155D01*
X68468651Y-61258157D01*
X68546829Y-61312898D01*
X68651691Y-61386323D01*
X68656673Y-61388646D01*
X68656678Y-61388649D01*
X68854215Y-61480761D01*
X68859197Y-61483084D01*
X68864505Y-61484506D01*
X68864507Y-61484507D01*
X69075038Y-61540919D01*
X69075040Y-61540919D01*
X69080353Y-61542343D01*
X69308440Y-61562298D01*
X69536527Y-61542343D01*
X69541840Y-61540919D01*
X69541842Y-61540919D01*
X69752373Y-61484507D01*
X69752375Y-61484506D01*
X69757683Y-61483084D01*
X69762665Y-61480761D01*
X69960202Y-61388649D01*
X69960207Y-61388646D01*
X69965189Y-61386323D01*
X70070051Y-61312898D01*
X70148229Y-61258157D01*
X70148232Y-61258155D01*
X70152740Y-61254998D01*
X70314638Y-61093100D01*
X70361575Y-61026068D01*
X70402244Y-60967986D01*
X70445963Y-60905549D01*
X70448286Y-60900567D01*
X70448289Y-60900562D01*
X70540401Y-60703025D01*
X70540401Y-60703024D01*
X70542724Y-60698043D01*
X70601983Y-60476887D01*
X70621938Y-60248800D01*
X70601983Y-60020713D01*
X70542724Y-59799557D01*
X70540401Y-59794575D01*
X70448289Y-59597038D01*
X70448286Y-59597033D01*
X70445963Y-59592051D01*
X70367456Y-59479931D01*
X70317797Y-59409011D01*
X70317795Y-59409008D01*
X70314638Y-59404500D01*
X70152740Y-59242602D01*
X70148232Y-59239445D01*
X70148229Y-59239443D01*
X70059982Y-59177652D01*
X69965189Y-59111277D01*
X69960207Y-59108954D01*
X69960202Y-59108951D01*
X69762665Y-59016839D01*
X69762664Y-59016839D01*
X69757683Y-59014516D01*
X69752375Y-59013094D01*
X69752373Y-59013093D01*
X69669530Y-58990895D01*
X72245041Y-58990895D01*
X72245378Y-58997414D01*
X72255297Y-59093006D01*
X72258189Y-59106400D01*
X72309628Y-59260584D01*
X72315801Y-59273762D01*
X72401103Y-59411607D01*
X72410139Y-59423008D01*
X72524869Y-59537539D01*
X72536280Y-59546551D01*
X72674283Y-59631616D01*
X72687464Y-59637763D01*
X72841750Y-59688938D01*
X72855126Y-59691805D01*
X72949478Y-59701472D01*
X72955894Y-59701800D01*
X73455925Y-59701800D01*
X73471164Y-59697325D01*
X73472369Y-59695935D01*
X73474040Y-59688252D01*
X73474040Y-59683684D01*
X73982040Y-59683684D01*
X73986515Y-59698923D01*
X73987905Y-59700128D01*
X73995588Y-59701799D01*
X74500135Y-59701799D01*
X74506654Y-59701462D01*
X74602246Y-59691543D01*
X74615640Y-59688651D01*
X74769824Y-59637212D01*
X74783002Y-59631039D01*
X74920847Y-59545737D01*
X74932248Y-59536701D01*
X75046779Y-59421971D01*
X75055791Y-59410560D01*
X75140856Y-59272557D01*
X75147003Y-59259376D01*
X75198178Y-59105090D01*
X75201045Y-59091714D01*
X75210712Y-58997362D01*
X75211040Y-58990946D01*
X75211040Y-58615915D01*
X75206565Y-58600676D01*
X75205175Y-58599471D01*
X75197492Y-58597800D01*
X74000155Y-58597800D01*
X73984916Y-58602275D01*
X73983711Y-58603665D01*
X73982040Y-58611348D01*
X73982040Y-59683684D01*
X73474040Y-59683684D01*
X73474040Y-58615915D01*
X73469565Y-58600676D01*
X73468175Y-58599471D01*
X73460492Y-58597800D01*
X72263156Y-58597800D01*
X72247917Y-58602275D01*
X72246712Y-58603665D01*
X72245041Y-58611348D01*
X72245041Y-58990895D01*
X69669530Y-58990895D01*
X69541842Y-58956681D01*
X69541840Y-58956681D01*
X69536527Y-58955257D01*
X69308440Y-58935302D01*
X69080353Y-58955257D01*
X69075040Y-58956681D01*
X69075038Y-58956681D01*
X68864507Y-59013093D01*
X68864505Y-59013094D01*
X68859197Y-59014516D01*
X68854216Y-59016839D01*
X68854215Y-59016839D01*
X68656678Y-59108951D01*
X68656673Y-59108954D01*
X68651691Y-59111277D01*
X68556898Y-59177652D01*
X68468651Y-59239443D01*
X68468648Y-59239445D01*
X68464140Y-59242602D01*
X68302242Y-59404500D01*
X68299085Y-59409008D01*
X68299083Y-59409011D01*
X68249424Y-59479931D01*
X68170917Y-59592051D01*
X68168594Y-59597033D01*
X68168591Y-59597038D01*
X68076479Y-59794575D01*
X68074156Y-59799557D01*
X68014897Y-60020713D01*
X67994942Y-60248800D01*
X67472338Y-60248800D01*
X67452383Y-60020713D01*
X67393124Y-59799557D01*
X67390801Y-59794575D01*
X67298689Y-59597038D01*
X67298686Y-59597033D01*
X67296363Y-59592051D01*
X67217856Y-59479931D01*
X67168197Y-59409011D01*
X67168195Y-59409008D01*
X67165038Y-59404500D01*
X67003140Y-59242602D01*
X66998632Y-59239445D01*
X66998629Y-59239443D01*
X66910382Y-59177652D01*
X66815589Y-59111277D01*
X66810607Y-59108954D01*
X66810602Y-59108951D01*
X66613065Y-59016839D01*
X66613064Y-59016839D01*
X66608083Y-59014516D01*
X66602775Y-59013094D01*
X66602773Y-59013093D01*
X66392242Y-58956681D01*
X66392240Y-58956681D01*
X66386927Y-58955257D01*
X66158840Y-58935302D01*
X65930753Y-58955257D01*
X65925440Y-58956681D01*
X65925438Y-58956681D01*
X65714907Y-59013093D01*
X65714905Y-59013094D01*
X65709597Y-59014516D01*
X65704616Y-59016839D01*
X65704615Y-59016839D01*
X65507078Y-59108951D01*
X65507073Y-59108954D01*
X65502091Y-59111277D01*
X65407298Y-59177652D01*
X65319051Y-59239443D01*
X65319048Y-59239445D01*
X65314540Y-59242602D01*
X65290395Y-59266747D01*
X65228083Y-59300773D01*
X65157268Y-59295708D01*
X65100432Y-59253161D01*
X65075621Y-59186641D01*
X65075300Y-59177652D01*
X65075300Y-55779574D01*
X72241142Y-55779574D01*
X72241342Y-55784903D01*
X72241342Y-55784905D01*
X72244898Y-55879615D01*
X72249791Y-56009958D01*
X72297133Y-56235591D01*
X72381816Y-56450021D01*
X72501417Y-56647117D01*
X72504914Y-56651147D01*
X72591478Y-56750903D01*
X72652517Y-56821245D01*
X72656648Y-56824632D01*
X72688569Y-56850806D01*
X72728564Y-56909466D01*
X72730495Y-56980436D01*
X72693750Y-57041184D01*
X72674981Y-57055384D01*
X72535233Y-57141863D01*
X72523832Y-57150899D01*
X72409301Y-57265629D01*
X72400289Y-57277040D01*
X72315224Y-57415043D01*
X72309077Y-57428224D01*
X72257902Y-57582510D01*
X72255035Y-57595886D01*
X72245368Y-57690238D01*
X72245040Y-57696655D01*
X72245040Y-58071685D01*
X72249515Y-58086924D01*
X72250905Y-58088129D01*
X72258588Y-58089800D01*
X75192924Y-58089800D01*
X75208163Y-58085325D01*
X75209368Y-58083935D01*
X75211039Y-58076252D01*
X75211039Y-57696705D01*
X75210702Y-57690186D01*
X75200783Y-57594594D01*
X75197891Y-57581200D01*
X75146452Y-57427016D01*
X75140279Y-57413838D01*
X75054977Y-57275993D01*
X75045941Y-57264592D01*
X74931211Y-57150061D01*
X74919797Y-57141047D01*
X74780327Y-57055077D01*
X74732833Y-57002305D01*
X74721409Y-56932234D01*
X74749683Y-56867110D01*
X74759470Y-56856647D01*
X74793031Y-56824632D01*
X74874175Y-56747224D01*
X75011794Y-56562258D01*
X75116280Y-56356749D01*
X75152361Y-56240552D01*
X75183064Y-56141671D01*
X75184647Y-56136573D01*
X75202636Y-56000844D01*
X75231415Y-55935942D01*
X75290714Y-55896902D01*
X75361707Y-55896119D01*
X75416639Y-55928304D01*
X78086835Y-58598500D01*
X78120861Y-58660812D01*
X78123740Y-58687595D01*
X78123740Y-62453485D01*
X78103738Y-62521606D01*
X78070010Y-62556698D01*
X77977464Y-62621499D01*
X77827939Y-62771024D01*
X77824780Y-62775536D01*
X77717453Y-62928815D01*
X77661996Y-62973144D01*
X77591377Y-62980453D01*
X77528016Y-62948423D01*
X77511027Y-62928815D01*
X77403700Y-62775536D01*
X77400541Y-62771024D01*
X77251016Y-62621499D01*
X77077798Y-62500211D01*
X77072820Y-62497890D01*
X77072817Y-62497888D01*
X76891132Y-62413167D01*
X76891131Y-62413166D01*
X76886150Y-62410844D01*
X76880842Y-62409422D01*
X76880840Y-62409421D01*
X76687210Y-62357538D01*
X76687208Y-62357538D01*
X76681895Y-62356114D01*
X76471240Y-62337684D01*
X76260585Y-62356114D01*
X76255272Y-62357538D01*
X76255270Y-62357538D01*
X76061640Y-62409421D01*
X76061638Y-62409422D01*
X76056330Y-62410844D01*
X76051349Y-62413166D01*
X76051348Y-62413167D01*
X75869663Y-62497888D01*
X75869660Y-62497890D01*
X75864682Y-62500211D01*
X75691464Y-62621499D01*
X75541939Y-62771024D01*
X75420651Y-62944242D01*
X75418330Y-62949220D01*
X75418328Y-62949223D01*
X75354861Y-63085328D01*
X75331284Y-63135890D01*
X75276554Y-63340145D01*
X75258124Y-63550800D01*
X75276554Y-63761455D01*
X75331284Y-63965710D01*
X75333606Y-63970691D01*
X75333607Y-63970692D01*
X75407174Y-64128456D01*
X75420651Y-64157358D01*
X75541939Y-64330576D01*
X75691464Y-64480101D01*
X75864682Y-64601389D01*
X75869660Y-64603710D01*
X75869663Y-64603712D01*
X76020392Y-64673998D01*
X76056330Y-64690756D01*
X76061638Y-64692178D01*
X76061640Y-64692179D01*
X76255270Y-64744062D01*
X76255272Y-64744062D01*
X76260585Y-64745486D01*
X76471240Y-64763916D01*
X76681895Y-64745486D01*
X76687208Y-64744062D01*
X76687210Y-64744062D01*
X76880840Y-64692179D01*
X76880842Y-64692178D01*
X76886150Y-64690756D01*
X76922088Y-64673998D01*
X77072817Y-64603712D01*
X77072820Y-64603710D01*
X77077798Y-64601389D01*
X77251016Y-64480101D01*
X77400541Y-64330576D01*
X77511027Y-64172785D01*
X77566484Y-64128456D01*
X77637103Y-64121147D01*
X77700464Y-64153177D01*
X77717453Y-64172785D01*
X77827939Y-64330576D01*
X77977464Y-64480101D01*
X78150682Y-64601389D01*
X78155660Y-64603710D01*
X78155663Y-64603712D01*
X78306392Y-64673998D01*
X78342330Y-64690756D01*
X78347638Y-64692178D01*
X78347640Y-64692179D01*
X78541270Y-64744062D01*
X78541272Y-64744062D01*
X78546585Y-64745486D01*
X78757240Y-64763916D01*
X78967895Y-64745486D01*
X78973208Y-64744062D01*
X78973210Y-64744062D01*
X79166840Y-64692179D01*
X79166842Y-64692178D01*
X79172150Y-64690756D01*
X79208088Y-64673998D01*
X79358817Y-64603712D01*
X79358820Y-64603710D01*
X79363798Y-64601389D01*
X79537016Y-64480101D01*
X79686541Y-64330576D01*
X79807829Y-64157358D01*
X79821307Y-64128456D01*
X79894873Y-63970692D01*
X79894874Y-63970691D01*
X79897196Y-63965710D01*
X79951926Y-63761455D01*
X79970356Y-63550800D01*
X79951926Y-63340145D01*
X79897196Y-63135890D01*
X79873619Y-63085328D01*
X79810152Y-62949223D01*
X79810150Y-62949220D01*
X79807829Y-62944242D01*
X79686541Y-62771024D01*
X79537016Y-62621499D01*
X79444470Y-62556698D01*
X79400141Y-62501241D01*
X79390740Y-62453485D01*
X79390740Y-61140682D01*
X79410742Y-61072561D01*
X79464398Y-61026068D01*
X79530346Y-61015419D01*
X79546104Y-61017131D01*
X79546114Y-61017132D01*
X79549506Y-61017500D01*
X80695774Y-61017500D01*
X80757956Y-61010745D01*
X80799263Y-60995260D01*
X80885936Y-60962768D01*
X80885939Y-60962766D01*
X80894345Y-60959615D01*
X80901534Y-60954227D01*
X80901777Y-60954094D01*
X80971134Y-60938924D01*
X80999547Y-60944248D01*
X81183820Y-61001290D01*
X81189945Y-61001934D01*
X81189946Y-61001934D01*
X81379262Y-61021832D01*
X81379263Y-61021832D01*
X81385390Y-61022476D01*
X81468654Y-61014898D01*
X81581097Y-61004665D01*
X81581100Y-61004664D01*
X81587236Y-61004106D01*
X81593142Y-61002368D01*
X81593146Y-61002367D01*
X81775760Y-60948620D01*
X81775759Y-60948620D01*
X81781669Y-60946881D01*
X81787126Y-60944028D01*
X81787129Y-60944027D01*
X81955821Y-60855838D01*
X81955825Y-60855835D01*
X81961285Y-60852981D01*
X81961537Y-60852779D01*
X82027552Y-60832799D01*
X82088525Y-60847959D01*
X82254982Y-60937962D01*
X82266287Y-60942714D01*
X82391332Y-60981422D01*
X82405435Y-60981628D01*
X82408640Y-60974873D01*
X82408640Y-60967986D01*
X82916640Y-60967986D01*
X82920613Y-60981517D01*
X82928408Y-60982637D01*
X83045572Y-60948154D01*
X83056940Y-60943561D01*
X83225551Y-60855414D01*
X83235813Y-60848698D01*
X83384083Y-60729485D01*
X83392853Y-60720897D01*
X83515139Y-60575162D01*
X83522077Y-60565031D01*
X83613734Y-60398308D01*
X83618564Y-60387038D01*
X83676092Y-60205685D01*
X83678642Y-60193691D01*
X83695247Y-60045650D01*
X83695640Y-60038626D01*
X83695640Y-60031115D01*
X83691165Y-60015876D01*
X83689775Y-60014671D01*
X83682092Y-60013000D01*
X82934755Y-60013000D01*
X82919516Y-60017475D01*
X82918311Y-60018865D01*
X82916640Y-60026548D01*
X82916640Y-60967986D01*
X82408640Y-60967986D01*
X82408640Y-60205242D01*
X82409425Y-60191197D01*
X82425747Y-60045683D01*
X82426140Y-60042183D01*
X82426140Y-59486885D01*
X82916640Y-59486885D01*
X82921115Y-59502124D01*
X82922505Y-59503329D01*
X82930188Y-59505000D01*
X83677525Y-59505000D01*
X83692764Y-59500525D01*
X83693969Y-59499135D01*
X83695640Y-59491452D01*
X83695640Y-59486110D01*
X83695340Y-59479965D01*
X83681470Y-59338519D01*
X83679087Y-59326481D01*
X83624098Y-59144349D01*
X83619423Y-59133007D01*
X83530105Y-58965023D01*
X83523318Y-58954807D01*
X83403068Y-58807366D01*
X83394424Y-58798662D01*
X83247831Y-58677390D01*
X83237660Y-58670530D01*
X83070298Y-58580038D01*
X83058993Y-58575286D01*
X82933948Y-58536578D01*
X82919845Y-58536372D01*
X82916640Y-58543127D01*
X82916640Y-59486885D01*
X82426140Y-59486885D01*
X82426140Y-59482996D01*
X82411363Y-59332287D01*
X82410672Y-59329998D01*
X82408640Y-59309276D01*
X82408640Y-58550014D01*
X82404667Y-58536483D01*
X82396872Y-58535363D01*
X82279708Y-58569846D01*
X82268340Y-58574439D01*
X82099733Y-58662584D01*
X82096657Y-58664597D01*
X82094818Y-58665154D01*
X82094270Y-58665440D01*
X82094216Y-58665336D01*
X82028704Y-58685161D01*
X81967734Y-58670001D01*
X81954017Y-58662584D01*
X81795075Y-58576644D01*
X81661718Y-58535363D01*
X81607347Y-58518532D01*
X81607344Y-58518531D01*
X81601460Y-58516710D01*
X81595335Y-58516066D01*
X81595334Y-58516066D01*
X81406018Y-58496168D01*
X81406017Y-58496168D01*
X81399890Y-58495524D01*
X81316626Y-58503102D01*
X81204183Y-58513335D01*
X81204180Y-58513336D01*
X81198044Y-58513894D01*
X81192138Y-58515632D01*
X81192134Y-58515633D01*
X81009519Y-58569380D01*
X81009517Y-58569381D01*
X81008133Y-58569788D01*
X81003611Y-58571119D01*
X81003358Y-58570260D01*
X80937978Y-58576714D01*
X80901234Y-58563548D01*
X80894345Y-58558385D01*
X80885944Y-58555236D01*
X80885941Y-58555234D01*
X80774174Y-58513335D01*
X80757956Y-58507255D01*
X80695774Y-58500500D01*
X79549506Y-58500500D01*
X79530858Y-58502526D01*
X79460976Y-58489998D01*
X79408960Y-58441678D01*
X79391312Y-58381223D01*
X79390802Y-58365003D01*
X79390740Y-58361043D01*
X79390740Y-58333144D01*
X79390236Y-58329153D01*
X79389303Y-58317311D01*
X79388163Y-58281036D01*
X79387914Y-58273111D01*
X79385702Y-58265497D01*
X79385701Y-58265492D01*
X79382263Y-58253659D01*
X79378252Y-58234295D01*
X79376707Y-58222064D01*
X79375714Y-58214203D01*
X79372797Y-58206836D01*
X79372796Y-58206831D01*
X79359438Y-58173092D01*
X79355594Y-58161865D01*
X79345470Y-58127022D01*
X79343258Y-58119407D01*
X79332947Y-58101972D01*
X79324252Y-58084224D01*
X79316792Y-58065383D01*
X79290804Y-58029613D01*
X79284288Y-58019693D01*
X79265820Y-57988465D01*
X79265818Y-57988462D01*
X79261782Y-57981638D01*
X79247461Y-57967317D01*
X79234620Y-57952283D01*
X79227371Y-57942306D01*
X79222712Y-57935893D01*
X79188635Y-57907702D01*
X79179856Y-57899712D01*
X76757279Y-55477134D01*
X79089140Y-55477134D01*
X79095895Y-55539316D01*
X79147025Y-55675705D01*
X79234379Y-55792261D01*
X79350935Y-55879615D01*
X79487324Y-55930745D01*
X79549506Y-55937500D01*
X80695774Y-55937500D01*
X80757956Y-55930745D01*
X80818559Y-55908026D01*
X80885936Y-55882768D01*
X80885939Y-55882766D01*
X80894345Y-55879615D01*
X80901534Y-55874227D01*
X80901777Y-55874094D01*
X80971134Y-55858924D01*
X80999547Y-55864248D01*
X81183820Y-55921290D01*
X81189945Y-55921934D01*
X81189946Y-55921934D01*
X81379262Y-55941832D01*
X81379263Y-55941832D01*
X81385390Y-55942476D01*
X81468654Y-55934898D01*
X81581097Y-55924665D01*
X81581100Y-55924664D01*
X81587236Y-55924106D01*
X81593142Y-55922368D01*
X81593146Y-55922367D01*
X81775760Y-55868620D01*
X81775759Y-55868620D01*
X81781669Y-55866881D01*
X81787126Y-55864028D01*
X81787129Y-55864027D01*
X81955821Y-55775838D01*
X81955825Y-55775835D01*
X81961285Y-55772981D01*
X81961537Y-55772779D01*
X82027552Y-55752799D01*
X82088525Y-55767959D01*
X82254982Y-55857962D01*
X82266287Y-55862714D01*
X82391332Y-55901422D01*
X82405435Y-55901628D01*
X82408640Y-55894873D01*
X82408640Y-55887986D01*
X82916640Y-55887986D01*
X82920613Y-55901517D01*
X82928408Y-55902637D01*
X83045572Y-55868154D01*
X83056940Y-55863561D01*
X83225551Y-55775414D01*
X83235813Y-55768698D01*
X83384083Y-55649485D01*
X83392853Y-55640897D01*
X83515139Y-55495162D01*
X83522077Y-55485031D01*
X83613734Y-55318308D01*
X83618564Y-55307038D01*
X83676092Y-55125685D01*
X83678642Y-55113691D01*
X83695247Y-54965650D01*
X83695640Y-54958626D01*
X83695640Y-54951115D01*
X83691165Y-54935876D01*
X83689775Y-54934671D01*
X83682092Y-54933000D01*
X82934755Y-54933000D01*
X82919516Y-54937475D01*
X82918311Y-54938865D01*
X82916640Y-54946548D01*
X82916640Y-55887986D01*
X82408640Y-55887986D01*
X82408640Y-55125242D01*
X82409425Y-55111197D01*
X82425747Y-54965683D01*
X82426140Y-54962183D01*
X82426140Y-54406885D01*
X82916640Y-54406885D01*
X82921115Y-54422124D01*
X82922505Y-54423329D01*
X82930188Y-54425000D01*
X83677525Y-54425000D01*
X83692764Y-54420525D01*
X83693969Y-54419135D01*
X83695640Y-54411452D01*
X83695640Y-54406110D01*
X83695340Y-54399965D01*
X83681470Y-54258519D01*
X83679087Y-54246481D01*
X83624098Y-54064349D01*
X83619423Y-54053007D01*
X83530105Y-53885023D01*
X83523318Y-53874807D01*
X83403068Y-53727366D01*
X83394424Y-53718662D01*
X83247831Y-53597390D01*
X83237660Y-53590530D01*
X83070298Y-53500038D01*
X83058993Y-53495286D01*
X82933948Y-53456578D01*
X82919845Y-53456372D01*
X82916640Y-53463127D01*
X82916640Y-54406885D01*
X82426140Y-54406885D01*
X82426140Y-54402996D01*
X82411363Y-54252287D01*
X82410672Y-54249998D01*
X82408640Y-54229276D01*
X82408640Y-53470014D01*
X82404667Y-53456483D01*
X82396872Y-53455363D01*
X82279708Y-53489846D01*
X82268340Y-53494439D01*
X82099733Y-53582584D01*
X82096657Y-53584597D01*
X82094818Y-53585154D01*
X82094270Y-53585440D01*
X82094216Y-53585336D01*
X82028704Y-53605161D01*
X81967734Y-53590001D01*
X81936142Y-53572919D01*
X81795075Y-53496644D01*
X81661718Y-53455363D01*
X81607347Y-53438532D01*
X81607344Y-53438531D01*
X81601460Y-53436710D01*
X81595335Y-53436066D01*
X81595334Y-53436066D01*
X81406018Y-53416168D01*
X81406017Y-53416168D01*
X81399890Y-53415524D01*
X81316626Y-53423102D01*
X81204183Y-53433335D01*
X81204180Y-53433336D01*
X81198044Y-53433894D01*
X81192138Y-53435632D01*
X81192134Y-53435633D01*
X81009519Y-53489380D01*
X81009517Y-53489381D01*
X81008133Y-53489788D01*
X81003611Y-53491119D01*
X81003358Y-53490260D01*
X80937978Y-53496714D01*
X80901234Y-53483548D01*
X80894345Y-53478385D01*
X80885944Y-53475236D01*
X80885941Y-53475234D01*
X80774174Y-53433335D01*
X80757956Y-53427255D01*
X80695774Y-53420500D01*
X79549506Y-53420500D01*
X79487324Y-53427255D01*
X79350935Y-53478385D01*
X79234379Y-53565739D01*
X79147025Y-53682295D01*
X79095895Y-53818684D01*
X79089140Y-53880866D01*
X79089140Y-55477134D01*
X76757279Y-55477134D01*
X75174963Y-53894818D01*
X75140937Y-53832506D01*
X75143726Y-53768358D01*
X75183064Y-53641671D01*
X75184647Y-53636573D01*
X75190416Y-53593044D01*
X75214238Y-53413311D01*
X75214238Y-53413306D01*
X75214938Y-53408026D01*
X75206289Y-53177642D01*
X75158947Y-52952009D01*
X75156988Y-52947048D01*
X75076225Y-52742544D01*
X75076224Y-52742542D01*
X75074264Y-52737579D01*
X75011578Y-52634275D01*
X74957430Y-52545043D01*
X74954663Y-52540483D01*
X74867795Y-52440376D01*
X74807063Y-52370388D01*
X74807061Y-52370386D01*
X74803563Y-52366355D01*
X74762010Y-52332284D01*
X74629413Y-52223560D01*
X74629407Y-52223556D01*
X74625285Y-52220176D01*
X74620649Y-52217537D01*
X74620646Y-52217535D01*
X74429569Y-52108768D01*
X74424926Y-52106125D01*
X74208215Y-52027463D01*
X74202966Y-52026514D01*
X74202963Y-52026513D01*
X73985432Y-51987177D01*
X73985425Y-51987176D01*
X73981348Y-51986439D01*
X73963626Y-51985603D01*
X73958684Y-51985370D01*
X73958677Y-51985370D01*
X73957196Y-51985300D01*
X73545150Y-51985300D01*
X73478231Y-51990978D01*
X73378631Y-51999429D01*
X73378627Y-51999430D01*
X73373320Y-51999880D01*
X73368165Y-52001218D01*
X73368159Y-52001219D01*
X73155337Y-52056457D01*
X73155333Y-52056458D01*
X73150168Y-52057799D01*
X73145302Y-52059991D01*
X73145299Y-52059992D01*
X73037020Y-52108768D01*
X72939965Y-52152488D01*
X72748721Y-52281241D01*
X72581905Y-52440376D01*
X72444286Y-52625342D01*
X72339800Y-52830851D01*
X72338218Y-52835945D01*
X72338217Y-52835948D01*
X72276155Y-53035820D01*
X72271433Y-53051027D01*
X72270732Y-53056316D01*
X72255344Y-53172423D01*
X72241142Y-53279574D01*
X72241342Y-53284903D01*
X72241342Y-53284905D01*
X72244261Y-53362644D01*
X72249791Y-53509958D01*
X72250886Y-53515177D01*
X72267224Y-53593044D01*
X72297133Y-53735591D01*
X72299091Y-53740550D01*
X72299092Y-53740552D01*
X72371075Y-53922822D01*
X72381816Y-53950021D01*
X72384583Y-53954580D01*
X72384584Y-53954583D01*
X72447496Y-54058258D01*
X72501417Y-54147117D01*
X72504914Y-54151147D01*
X72597999Y-54258418D01*
X72652517Y-54321245D01*
X72656648Y-54324632D01*
X72826667Y-54464040D01*
X72826673Y-54464044D01*
X72830795Y-54467424D01*
X72862290Y-54485352D01*
X72911595Y-54536432D01*
X72925457Y-54606062D01*
X72899474Y-54672133D01*
X72870324Y-54699373D01*
X72748721Y-54781241D01*
X72581905Y-54940376D01*
X72444286Y-55125342D01*
X72339800Y-55330851D01*
X72338218Y-55335945D01*
X72338217Y-55335948D01*
X72293323Y-55480531D01*
X72271433Y-55551027D01*
X72270732Y-55556316D01*
X72241965Y-55773365D01*
X72241142Y-55779574D01*
X65075300Y-55779574D01*
X65075300Y-53699948D01*
X65095302Y-53631827D01*
X65148958Y-53585334D01*
X65219232Y-53575230D01*
X65283812Y-53604724D01*
X65290395Y-53610853D01*
X65314540Y-53634998D01*
X65319048Y-53638155D01*
X65319051Y-53638157D01*
X65324070Y-53641671D01*
X65502091Y-53766323D01*
X65507073Y-53768646D01*
X65507078Y-53768649D01*
X65662278Y-53841019D01*
X65709597Y-53863084D01*
X65714905Y-53864506D01*
X65714907Y-53864507D01*
X65925438Y-53920919D01*
X65925440Y-53920919D01*
X65930753Y-53922343D01*
X66158840Y-53942298D01*
X66386927Y-53922343D01*
X66392240Y-53920919D01*
X66392242Y-53920919D01*
X66602773Y-53864507D01*
X66602775Y-53864506D01*
X66608083Y-53863084D01*
X66655402Y-53841019D01*
X66810602Y-53768649D01*
X66810607Y-53768646D01*
X66815589Y-53766323D01*
X66993610Y-53641671D01*
X66998629Y-53638157D01*
X66998632Y-53638155D01*
X67003140Y-53634998D01*
X67165038Y-53473100D01*
X67172022Y-53463127D01*
X67293206Y-53290057D01*
X67296363Y-53285549D01*
X67298686Y-53280567D01*
X67298689Y-53280562D01*
X67390801Y-53083025D01*
X67390801Y-53083024D01*
X67393124Y-53078043D01*
X67452383Y-52856887D01*
X67472338Y-52628800D01*
X67994942Y-52628800D01*
X68014897Y-52856887D01*
X68074156Y-53078043D01*
X68076479Y-53083024D01*
X68076479Y-53083025D01*
X68168591Y-53280562D01*
X68168594Y-53280567D01*
X68170917Y-53285549D01*
X68174074Y-53290057D01*
X68295259Y-53463127D01*
X68302242Y-53473100D01*
X68464140Y-53634998D01*
X68468648Y-53638155D01*
X68468651Y-53638157D01*
X68473670Y-53641671D01*
X68651691Y-53766323D01*
X68656673Y-53768646D01*
X68656678Y-53768649D01*
X68811878Y-53841019D01*
X68859197Y-53863084D01*
X68864505Y-53864506D01*
X68864507Y-53864507D01*
X69075038Y-53920919D01*
X69075040Y-53920919D01*
X69080353Y-53922343D01*
X69308440Y-53942298D01*
X69536527Y-53922343D01*
X69541840Y-53920919D01*
X69541842Y-53920919D01*
X69752373Y-53864507D01*
X69752375Y-53864506D01*
X69757683Y-53863084D01*
X69805002Y-53841019D01*
X69960202Y-53768649D01*
X69960207Y-53768646D01*
X69965189Y-53766323D01*
X70143210Y-53641671D01*
X70148229Y-53638157D01*
X70148232Y-53638155D01*
X70152740Y-53634998D01*
X70314638Y-53473100D01*
X70321622Y-53463127D01*
X70442806Y-53290057D01*
X70445963Y-53285549D01*
X70448286Y-53280567D01*
X70448289Y-53280562D01*
X70540401Y-53083025D01*
X70540401Y-53083024D01*
X70542724Y-53078043D01*
X70601983Y-52856887D01*
X70621938Y-52628800D01*
X70601983Y-52400713D01*
X70600559Y-52395398D01*
X70544147Y-52184867D01*
X70544146Y-52184865D01*
X70542724Y-52179557D01*
X70509715Y-52108768D01*
X70448289Y-51977038D01*
X70448286Y-51977033D01*
X70445963Y-51972051D01*
X70314638Y-51784500D01*
X70152740Y-51622602D01*
X70148232Y-51619445D01*
X70148229Y-51619443D01*
X70059982Y-51557652D01*
X69965189Y-51491277D01*
X69960207Y-51488954D01*
X69960202Y-51488951D01*
X69762665Y-51396839D01*
X69762664Y-51396839D01*
X69757683Y-51394516D01*
X69752375Y-51393094D01*
X69752373Y-51393093D01*
X69541842Y-51336681D01*
X69541840Y-51336681D01*
X69536527Y-51335257D01*
X69308440Y-51315302D01*
X69080353Y-51335257D01*
X69075040Y-51336681D01*
X69075038Y-51336681D01*
X68864507Y-51393093D01*
X68864505Y-51393094D01*
X68859197Y-51394516D01*
X68854216Y-51396839D01*
X68854215Y-51396839D01*
X68656678Y-51488951D01*
X68656673Y-51488954D01*
X68651691Y-51491277D01*
X68556898Y-51557652D01*
X68468651Y-51619443D01*
X68468648Y-51619445D01*
X68464140Y-51622602D01*
X68302242Y-51784500D01*
X68170917Y-51972051D01*
X68168594Y-51977033D01*
X68168591Y-51977038D01*
X68107165Y-52108768D01*
X68074156Y-52179557D01*
X68072734Y-52184865D01*
X68072733Y-52184867D01*
X68016321Y-52395398D01*
X68014897Y-52400713D01*
X67994942Y-52628800D01*
X67472338Y-52628800D01*
X67452383Y-52400713D01*
X67450959Y-52395398D01*
X67394547Y-52184867D01*
X67394546Y-52184865D01*
X67393124Y-52179557D01*
X67360115Y-52108768D01*
X67298689Y-51977038D01*
X67298686Y-51977033D01*
X67296363Y-51972051D01*
X67165038Y-51784500D01*
X67003140Y-51622602D01*
X66998632Y-51619445D01*
X66998629Y-51619443D01*
X66910382Y-51557652D01*
X66815589Y-51491277D01*
X66810607Y-51488954D01*
X66810602Y-51488951D01*
X66613065Y-51396839D01*
X66613064Y-51396839D01*
X66608083Y-51394516D01*
X66602775Y-51393094D01*
X66602773Y-51393093D01*
X66392242Y-51336681D01*
X66392240Y-51336681D01*
X66386927Y-51335257D01*
X66158840Y-51315302D01*
X65930753Y-51335257D01*
X65925440Y-51336681D01*
X65925438Y-51336681D01*
X65714907Y-51393093D01*
X65714905Y-51393094D01*
X65709597Y-51394516D01*
X65704616Y-51396839D01*
X65704615Y-51396839D01*
X65507078Y-51488951D01*
X65507073Y-51488954D01*
X65502091Y-51491277D01*
X65407298Y-51557652D01*
X65319051Y-51619443D01*
X65319048Y-51619445D01*
X65314540Y-51622602D01*
X65290395Y-51646747D01*
X65228083Y-51680773D01*
X65157268Y-51675708D01*
X65100432Y-51633161D01*
X65075621Y-51566641D01*
X65075300Y-51557652D01*
X65075300Y-48037103D01*
X66087283Y-48037103D01*
X66124808Y-48322134D01*
X66200669Y-48599436D01*
X66313463Y-48863876D01*
X66461101Y-49110561D01*
X66640853Y-49334928D01*
X66849391Y-49532823D01*
X67082857Y-49700586D01*
X67086652Y-49702595D01*
X67086653Y-49702596D01*
X67108409Y-49714115D01*
X67336932Y-49835112D01*
X67606913Y-49933911D01*
X67887804Y-49995155D01*
X67916381Y-49997404D01*
X68110822Y-50012707D01*
X68110831Y-50012707D01*
X68113279Y-50012900D01*
X68268811Y-50012900D01*
X68270947Y-50012754D01*
X68270958Y-50012754D01*
X68479088Y-49998565D01*
X68479094Y-49998564D01*
X68483365Y-49998273D01*
X68487560Y-49997404D01*
X68487562Y-49997404D01*
X68624123Y-49969124D01*
X68764882Y-49939974D01*
X69035883Y-49844007D01*
X69291352Y-49712150D01*
X69294853Y-49709689D01*
X69294857Y-49709687D01*
X69408958Y-49629495D01*
X69526563Y-49546841D01*
X69737162Y-49351140D01*
X69919253Y-49128668D01*
X70069467Y-48883542D01*
X70185023Y-48620298D01*
X70263784Y-48343806D01*
X70304291Y-48059184D01*
X70304385Y-48041351D01*
X70304407Y-48037103D01*
X79157283Y-48037103D01*
X79194808Y-48322134D01*
X79270669Y-48599436D01*
X79383463Y-48863876D01*
X79531101Y-49110561D01*
X79710853Y-49334928D01*
X79919391Y-49532823D01*
X80152857Y-49700586D01*
X80156652Y-49702595D01*
X80156653Y-49702596D01*
X80178409Y-49714115D01*
X80406932Y-49835112D01*
X80676913Y-49933911D01*
X80957804Y-49995155D01*
X80986381Y-49997404D01*
X81180822Y-50012707D01*
X81180831Y-50012707D01*
X81183279Y-50012900D01*
X81338811Y-50012900D01*
X81340947Y-50012754D01*
X81340958Y-50012754D01*
X81549088Y-49998565D01*
X81549094Y-49998564D01*
X81553365Y-49998273D01*
X81557560Y-49997404D01*
X81557562Y-49997404D01*
X81694123Y-49969124D01*
X81834882Y-49939974D01*
X82105883Y-49844007D01*
X82361352Y-49712150D01*
X82364853Y-49709689D01*
X82364857Y-49709687D01*
X82478958Y-49629495D01*
X82596563Y-49546841D01*
X82807162Y-49351140D01*
X82989253Y-49128668D01*
X83139467Y-48883542D01*
X83255023Y-48620298D01*
X83333784Y-48343806D01*
X83374291Y-48059184D01*
X83374385Y-48041351D01*
X83375775Y-47775983D01*
X83375775Y-47775976D01*
X83375797Y-47771697D01*
X83338272Y-47486666D01*
X83262411Y-47209364D01*
X83149617Y-46944924D01*
X83001979Y-46698239D01*
X82822227Y-46473872D01*
X82613689Y-46275977D01*
X82380223Y-46108214D01*
X82358383Y-46096650D01*
X82335194Y-46084372D01*
X82126148Y-45973688D01*
X81856167Y-45874889D01*
X81575276Y-45813645D01*
X81544225Y-45811201D01*
X81352258Y-45796093D01*
X81352249Y-45796093D01*
X81349801Y-45795900D01*
X81194269Y-45795900D01*
X81192133Y-45796046D01*
X81192122Y-45796046D01*
X80983992Y-45810235D01*
X80983986Y-45810236D01*
X80979715Y-45810527D01*
X80975520Y-45811396D01*
X80975518Y-45811396D01*
X80838957Y-45839676D01*
X80698198Y-45868826D01*
X80427197Y-45964793D01*
X80171728Y-46096650D01*
X80168227Y-46099111D01*
X80168223Y-46099113D01*
X80158134Y-46106204D01*
X79936517Y-46261959D01*
X79725918Y-46457660D01*
X79543827Y-46680132D01*
X79393613Y-46925258D01*
X79278057Y-47188502D01*
X79199296Y-47464994D01*
X79158789Y-47749616D01*
X79158767Y-47753905D01*
X79158766Y-47753912D01*
X79157305Y-48032817D01*
X79157283Y-48037103D01*
X70304407Y-48037103D01*
X70305775Y-47775983D01*
X70305775Y-47775976D01*
X70305797Y-47771697D01*
X70268272Y-47486666D01*
X70192411Y-47209364D01*
X70079617Y-46944924D01*
X69931979Y-46698239D01*
X69752227Y-46473872D01*
X69543689Y-46275977D01*
X69310223Y-46108214D01*
X69288383Y-46096650D01*
X69265194Y-46084372D01*
X69056148Y-45973688D01*
X68786167Y-45874889D01*
X68505276Y-45813645D01*
X68474225Y-45811201D01*
X68282258Y-45796093D01*
X68282249Y-45796093D01*
X68279801Y-45795900D01*
X68124269Y-45795900D01*
X68122133Y-45796046D01*
X68122122Y-45796046D01*
X67913992Y-45810235D01*
X67913986Y-45810236D01*
X67909715Y-45810527D01*
X67905520Y-45811396D01*
X67905518Y-45811396D01*
X67768957Y-45839676D01*
X67628198Y-45868826D01*
X67357197Y-45964793D01*
X67101728Y-46096650D01*
X67098227Y-46099111D01*
X67098223Y-46099113D01*
X67088134Y-46106204D01*
X66866517Y-46261959D01*
X66655918Y-46457660D01*
X66473827Y-46680132D01*
X66323613Y-46925258D01*
X66208057Y-47188502D01*
X66129296Y-47464994D01*
X66088789Y-47749616D01*
X66088767Y-47753905D01*
X66088766Y-47753912D01*
X66087305Y-48032817D01*
X66087283Y-48037103D01*
X65075300Y-48037103D01*
X65075300Y-44957500D01*
X65095302Y-44889379D01*
X65148958Y-44842886D01*
X65201300Y-44831500D01*
X84252300Y-44831500D01*
X84320421Y-44851502D01*
G37*
%TD.AperFunction*%
%TD*%
M02*
