%TF.GenerationSoftware,KiCad,Pcbnew,6.0.7-f9a2dced07~116~ubuntu20.04.1*%
%TF.CreationDate,2022-09-11T17:48:59+02:00*%
%TF.ProjectId,MIDI_OUT,4d494449-5f4f-4555-942e-6b696361645f,2.0*%
%TF.SameCoordinates,Original*%
%TF.FileFunction,Legend,Top*%
%TF.FilePolarity,Positive*%
%FSLAX46Y46*%
G04 Gerber Fmt 4.6, Leading zero omitted, Abs format (unit mm)*
G04 Created by KiCad (PCBNEW 6.0.7-f9a2dced07~116~ubuntu20.04.1) date 2022-09-11 17:48:59*
%MOMM*%
%LPD*%
G01*
G04 APERTURE LIST*
%ADD10C,0.125000*%
%ADD11C,0.150000*%
%ADD12C,0.100000*%
%ADD13C,0.304800*%
%ADD14C,0.120000*%
%ADD15C,0.010000*%
%ADD16C,2.499360*%
G04 APERTURE END LIST*
D10*
X77829753Y-58724752D02*
X77805943Y-58772371D01*
X77805943Y-58843800D01*
X77829753Y-58915228D01*
X77877372Y-58962847D01*
X77924991Y-58986657D01*
X78020229Y-59010466D01*
X78091657Y-59010466D01*
X78186895Y-58986657D01*
X78234514Y-58962847D01*
X78282133Y-58915228D01*
X78305943Y-58843800D01*
X78305943Y-58796180D01*
X78282133Y-58724752D01*
X78258324Y-58700942D01*
X78091657Y-58700942D01*
X78091657Y-58796180D01*
X78305943Y-58486657D02*
X77805943Y-58486657D01*
X78305943Y-58200942D01*
X77805943Y-58200942D01*
X78305943Y-57962847D02*
X77805943Y-57962847D01*
X77805943Y-57843800D01*
X77829753Y-57772371D01*
X77877372Y-57724752D01*
X77924991Y-57700942D01*
X78020229Y-57677133D01*
X78091657Y-57677133D01*
X78186895Y-57700942D01*
X78234514Y-57724752D01*
X78282133Y-57772371D01*
X78305943Y-57843800D01*
X78305943Y-57962847D01*
D11*
X67035163Y-62063380D02*
X66558973Y-62063380D01*
X66511354Y-62539571D01*
X66558973Y-62491952D01*
X66654211Y-62444333D01*
X66892306Y-62444333D01*
X66987544Y-62491952D01*
X67035163Y-62539571D01*
X67082782Y-62634809D01*
X67082782Y-62872904D01*
X67035163Y-62968142D01*
X66987544Y-63015761D01*
X66892306Y-63063380D01*
X66654211Y-63063380D01*
X66558973Y-63015761D01*
X66511354Y-62968142D01*
X67368497Y-62063380D02*
X67701830Y-63063380D01*
X68035163Y-62063380D01*
D12*
X77812931Y-56300943D02*
X77812931Y-55958086D01*
X78412931Y-56129515D02*
X77812931Y-56129515D01*
X77812931Y-55815229D02*
X78412931Y-55415229D01*
X77812931Y-55415229D02*
X78412931Y-55815229D01*
X72553040Y-61469628D02*
X72553040Y-61955342D01*
X72581611Y-62012485D01*
X72610182Y-62041057D01*
X72667325Y-62069628D01*
X72781611Y-62069628D01*
X72838754Y-62041057D01*
X72867325Y-62012485D01*
X72895897Y-61955342D01*
X72895897Y-61469628D01*
X73153040Y-61898200D02*
X73438754Y-61898200D01*
X73095897Y-62069628D02*
X73295897Y-61469628D01*
X73495897Y-62069628D01*
X74038754Y-62069628D02*
X73838754Y-61783914D01*
X73695897Y-62069628D02*
X73695897Y-61469628D01*
X73924468Y-61469628D01*
X73981611Y-61498200D01*
X74010182Y-61526771D01*
X74038754Y-61583914D01*
X74038754Y-61669628D01*
X74010182Y-61726771D01*
X73981611Y-61755342D01*
X73924468Y-61783914D01*
X73695897Y-61783914D01*
X74210182Y-61469628D02*
X74553040Y-61469628D01*
X74381611Y-62069628D02*
X74381611Y-61469628D01*
X75124468Y-61469628D02*
X75467325Y-61469628D01*
X75295897Y-62069628D02*
X75295897Y-61469628D01*
X75610182Y-61469628D02*
X76010182Y-62069628D01*
X76010182Y-61469628D02*
X75610182Y-62069628D01*
D11*
X66190744Y-74052180D02*
X66809792Y-74052180D01*
X66476459Y-74433133D01*
X66619316Y-74433133D01*
X66714554Y-74480752D01*
X66762173Y-74528371D01*
X66809792Y-74623609D01*
X66809792Y-74861704D01*
X66762173Y-74956942D01*
X66714554Y-75004561D01*
X66619316Y-75052180D01*
X66333601Y-75052180D01*
X66238363Y-75004561D01*
X66190744Y-74956942D01*
X67095506Y-74052180D02*
X67428840Y-75052180D01*
X67762173Y-74052180D01*
X68000268Y-74052180D02*
X68619316Y-74052180D01*
X68285982Y-74433133D01*
X68428840Y-74433133D01*
X68524078Y-74480752D01*
X68571697Y-74528371D01*
X68619316Y-74623609D01*
X68619316Y-74861704D01*
X68571697Y-74956942D01*
X68524078Y-75004561D01*
X68428840Y-75052180D01*
X68143125Y-75052180D01*
X68047887Y-75004561D01*
X68000268Y-74956942D01*
D12*
X77812931Y-54058086D02*
X78412931Y-53858086D01*
X77812931Y-53658086D01*
X77812931Y-53543801D02*
X77812931Y-53200943D01*
X78412931Y-53372372D02*
X77812931Y-53372372D01*
X77812931Y-53058086D02*
X78412931Y-52658086D01*
X77812931Y-52658086D02*
X78412931Y-53058086D01*
X72377354Y-46153035D02*
X72377354Y-45403035D01*
X72627354Y-45938750D01*
X72877354Y-45403035D01*
X72877354Y-46153035D01*
X73234497Y-46153035D02*
X73234497Y-45403035D01*
X73591640Y-46153035D02*
X73591640Y-45403035D01*
X73770211Y-45403035D01*
X73877354Y-45438750D01*
X73948782Y-45510178D01*
X73984497Y-45581607D01*
X74020211Y-45724464D01*
X74020211Y-45831607D01*
X73984497Y-45974464D01*
X73948782Y-46045892D01*
X73877354Y-46117321D01*
X73770211Y-46153035D01*
X73591640Y-46153035D01*
X74341640Y-46153035D02*
X74341640Y-45403035D01*
X75413068Y-45403035D02*
X75555925Y-45403035D01*
X75627354Y-45438750D01*
X75698782Y-45510178D01*
X75734497Y-45653035D01*
X75734497Y-45903035D01*
X75698782Y-46045892D01*
X75627354Y-46117321D01*
X75555925Y-46153035D01*
X75413068Y-46153035D01*
X75341640Y-46117321D01*
X75270211Y-46045892D01*
X75234497Y-45903035D01*
X75234497Y-45653035D01*
X75270211Y-45510178D01*
X75341640Y-45438750D01*
X75413068Y-45403035D01*
X76377354Y-45653035D02*
X76377354Y-46153035D01*
X76055925Y-45653035D02*
X76055925Y-46045892D01*
X76091640Y-46117321D01*
X76163068Y-46153035D01*
X76270211Y-46153035D01*
X76341640Y-46117321D01*
X76377354Y-46081607D01*
X76627354Y-45653035D02*
X76913068Y-45653035D01*
X76734497Y-45403035D02*
X76734497Y-46045892D01*
X76770211Y-46117321D01*
X76841640Y-46153035D01*
X76913068Y-46153035D01*
X72555925Y-46967678D02*
X72663068Y-47003392D01*
X72698782Y-47039107D01*
X72734497Y-47110535D01*
X72734497Y-47217678D01*
X72698782Y-47289107D01*
X72663068Y-47324821D01*
X72591640Y-47360535D01*
X72305925Y-47360535D01*
X72305925Y-46610535D01*
X72555925Y-46610535D01*
X72627354Y-46646250D01*
X72663068Y-46681964D01*
X72698782Y-46753392D01*
X72698782Y-46824821D01*
X72663068Y-46896250D01*
X72627354Y-46931964D01*
X72555925Y-46967678D01*
X72305925Y-46967678D01*
X73055925Y-47360535D02*
X73055925Y-46860535D01*
X73055925Y-47003392D02*
X73091640Y-46931964D01*
X73127354Y-46896250D01*
X73198782Y-46860535D01*
X73270211Y-46860535D01*
X73805925Y-47324821D02*
X73734497Y-47360535D01*
X73591640Y-47360535D01*
X73520211Y-47324821D01*
X73484497Y-47253392D01*
X73484497Y-46967678D01*
X73520211Y-46896250D01*
X73591640Y-46860535D01*
X73734497Y-46860535D01*
X73805925Y-46896250D01*
X73841640Y-46967678D01*
X73841640Y-47039107D01*
X73484497Y-47110535D01*
X74484497Y-47360535D02*
X74484497Y-46967678D01*
X74448782Y-46896250D01*
X74377354Y-46860535D01*
X74234497Y-46860535D01*
X74163068Y-46896250D01*
X74484497Y-47324821D02*
X74413068Y-47360535D01*
X74234497Y-47360535D01*
X74163068Y-47324821D01*
X74127354Y-47253392D01*
X74127354Y-47181964D01*
X74163068Y-47110535D01*
X74234497Y-47074821D01*
X74413068Y-47074821D01*
X74484497Y-47039107D01*
X74841640Y-47360535D02*
X74841640Y-46610535D01*
X74913068Y-47074821D02*
X75127354Y-47360535D01*
X75127354Y-46860535D02*
X74841640Y-47146250D01*
X75555925Y-47360535D02*
X75484497Y-47324821D01*
X75448782Y-47289107D01*
X75413068Y-47217678D01*
X75413068Y-47003392D01*
X75448782Y-46931964D01*
X75484497Y-46896250D01*
X75555925Y-46860535D01*
X75663068Y-46860535D01*
X75734497Y-46896250D01*
X75770211Y-46931964D01*
X75805925Y-47003392D01*
X75805925Y-47217678D01*
X75770211Y-47289107D01*
X75734497Y-47324821D01*
X75663068Y-47360535D01*
X75555925Y-47360535D01*
X76448782Y-46860535D02*
X76448782Y-47360535D01*
X76127354Y-46860535D02*
X76127354Y-47253392D01*
X76163068Y-47324821D01*
X76234497Y-47360535D01*
X76341640Y-47360535D01*
X76413068Y-47324821D01*
X76448782Y-47289107D01*
X76698782Y-46860535D02*
X76984497Y-46860535D01*
X76805925Y-46610535D02*
X76805925Y-47253392D01*
X76841640Y-47324821D01*
X76913068Y-47360535D01*
X76984497Y-47360535D01*
X73395211Y-48175178D02*
X73502354Y-48210892D01*
X73538068Y-48246607D01*
X73573782Y-48318035D01*
X73573782Y-48425178D01*
X73538068Y-48496607D01*
X73502354Y-48532321D01*
X73430925Y-48568035D01*
X73145211Y-48568035D01*
X73145211Y-47818035D01*
X73395211Y-47818035D01*
X73466640Y-47853750D01*
X73502354Y-47889464D01*
X73538068Y-47960892D01*
X73538068Y-48032321D01*
X73502354Y-48103750D01*
X73466640Y-48139464D01*
X73395211Y-48175178D01*
X73145211Y-48175178D01*
X74002354Y-48568035D02*
X73930925Y-48532321D01*
X73895211Y-48496607D01*
X73859497Y-48425178D01*
X73859497Y-48210892D01*
X73895211Y-48139464D01*
X73930925Y-48103750D01*
X74002354Y-48068035D01*
X74109497Y-48068035D01*
X74180925Y-48103750D01*
X74216640Y-48139464D01*
X74252354Y-48210892D01*
X74252354Y-48425178D01*
X74216640Y-48496607D01*
X74180925Y-48532321D01*
X74109497Y-48568035D01*
X74002354Y-48568035D01*
X74895211Y-48568035D02*
X74895211Y-48175178D01*
X74859497Y-48103750D01*
X74788068Y-48068035D01*
X74645211Y-48068035D01*
X74573782Y-48103750D01*
X74895211Y-48532321D02*
X74823782Y-48568035D01*
X74645211Y-48568035D01*
X74573782Y-48532321D01*
X74538068Y-48460892D01*
X74538068Y-48389464D01*
X74573782Y-48318035D01*
X74645211Y-48282321D01*
X74823782Y-48282321D01*
X74895211Y-48246607D01*
X75252354Y-48568035D02*
X75252354Y-48068035D01*
X75252354Y-48210892D02*
X75288068Y-48139464D01*
X75323782Y-48103750D01*
X75395211Y-48068035D01*
X75466640Y-48068035D01*
X76038068Y-48568035D02*
X76038068Y-47818035D01*
X76038068Y-48532321D02*
X75966640Y-48568035D01*
X75823782Y-48568035D01*
X75752354Y-48532321D01*
X75716640Y-48496607D01*
X75680925Y-48425178D01*
X75680925Y-48210892D01*
X75716640Y-48139464D01*
X75752354Y-48103750D01*
X75823782Y-48068035D01*
X75966640Y-48068035D01*
X76038068Y-48103750D01*
X72859497Y-49775535D02*
X72609497Y-49418392D01*
X72430925Y-49775535D02*
X72430925Y-49025535D01*
X72716640Y-49025535D01*
X72788068Y-49061250D01*
X72823782Y-49096964D01*
X72859497Y-49168392D01*
X72859497Y-49275535D01*
X72823782Y-49346964D01*
X72788068Y-49382678D01*
X72716640Y-49418392D01*
X72430925Y-49418392D01*
X73466640Y-49739821D02*
X73395211Y-49775535D01*
X73252354Y-49775535D01*
X73180925Y-49739821D01*
X73145211Y-49668392D01*
X73145211Y-49382678D01*
X73180925Y-49311250D01*
X73252354Y-49275535D01*
X73395211Y-49275535D01*
X73466640Y-49311250D01*
X73502354Y-49382678D01*
X73502354Y-49454107D01*
X73145211Y-49525535D01*
X73752354Y-49275535D02*
X73930925Y-49775535D01*
X74109497Y-49275535D01*
X74395211Y-49704107D02*
X74430925Y-49739821D01*
X74395211Y-49775535D01*
X74359497Y-49739821D01*
X74395211Y-49704107D01*
X74395211Y-49775535D01*
X75288068Y-49096964D02*
X75323782Y-49061250D01*
X75395211Y-49025535D01*
X75573782Y-49025535D01*
X75645211Y-49061250D01*
X75680925Y-49096964D01*
X75716640Y-49168392D01*
X75716640Y-49239821D01*
X75680925Y-49346964D01*
X75252354Y-49775535D01*
X75716640Y-49775535D01*
X76038068Y-49704107D02*
X76073782Y-49739821D01*
X76038068Y-49775535D01*
X76002354Y-49739821D01*
X76038068Y-49704107D01*
X76038068Y-49775535D01*
X76538068Y-49025535D02*
X76609497Y-49025535D01*
X76680925Y-49061250D01*
X76716640Y-49096964D01*
X76752354Y-49168392D01*
X76788068Y-49311250D01*
X76788068Y-49489821D01*
X76752354Y-49632678D01*
X76716640Y-49704107D01*
X76680925Y-49739821D01*
X76609497Y-49775535D01*
X76538068Y-49775535D01*
X76466640Y-49739821D01*
X76430925Y-49704107D01*
X76395211Y-49632678D01*
X76359497Y-49489821D01*
X76359497Y-49311250D01*
X76395211Y-49168392D01*
X76430925Y-49096964D01*
X76466640Y-49061250D01*
X76538068Y-49025535D01*
%TO.C,Q2*%
X83511811Y-57586114D02*
X83440382Y-57550400D01*
X83368954Y-57478971D01*
X83261811Y-57371828D01*
X83190382Y-57336114D01*
X83118954Y-57336114D01*
X83154668Y-57514685D02*
X83083240Y-57478971D01*
X83011811Y-57407542D01*
X82976097Y-57264685D01*
X82976097Y-57014685D01*
X83011811Y-56871828D01*
X83083240Y-56800400D01*
X83154668Y-56764685D01*
X83297525Y-56764685D01*
X83368954Y-56800400D01*
X83440382Y-56871828D01*
X83476097Y-57014685D01*
X83476097Y-57264685D01*
X83440382Y-57407542D01*
X83368954Y-57478971D01*
X83297525Y-57514685D01*
X83154668Y-57514685D01*
X83761811Y-56836114D02*
X83797525Y-56800400D01*
X83868954Y-56764685D01*
X84047525Y-56764685D01*
X84118954Y-56800400D01*
X84154668Y-56836114D01*
X84190382Y-56907542D01*
X84190382Y-56978971D01*
X84154668Y-57086114D01*
X83726097Y-57514685D01*
X84190382Y-57514685D01*
%TO.C,R6*%
X83974573Y-75957866D02*
X83741240Y-75624533D01*
X83574573Y-75957866D02*
X83574573Y-75257866D01*
X83841240Y-75257866D01*
X83907906Y-75291200D01*
X83941240Y-75324533D01*
X83974573Y-75391200D01*
X83974573Y-75491200D01*
X83941240Y-75557866D01*
X83907906Y-75591200D01*
X83841240Y-75624533D01*
X83574573Y-75624533D01*
X84574573Y-75257866D02*
X84441240Y-75257866D01*
X84374573Y-75291200D01*
X84341240Y-75324533D01*
X84274573Y-75424533D01*
X84241240Y-75557866D01*
X84241240Y-75824533D01*
X84274573Y-75891200D01*
X84307906Y-75924533D01*
X84374573Y-75957866D01*
X84507906Y-75957866D01*
X84574573Y-75924533D01*
X84607906Y-75891200D01*
X84641240Y-75824533D01*
X84641240Y-75657866D01*
X84607906Y-75591200D01*
X84574573Y-75557866D01*
X84507906Y-75524533D01*
X84374573Y-75524533D01*
X84307906Y-75557866D01*
X84274573Y-75591200D01*
X84241240Y-75657866D01*
D13*
%TO.C,J2*%
X74218800Y-95687968D02*
X74218800Y-96776540D01*
X74146228Y-96994254D01*
X74001085Y-97139397D01*
X73783371Y-97211968D01*
X73638228Y-97211968D01*
X74871942Y-95833111D02*
X74944514Y-95760540D01*
X75089657Y-95687968D01*
X75452514Y-95687968D01*
X75597657Y-95760540D01*
X75670228Y-95833111D01*
X75742800Y-95978254D01*
X75742800Y-96123397D01*
X75670228Y-96341111D01*
X74799371Y-97211968D01*
X75742800Y-97211968D01*
D12*
X69871811Y-86849689D02*
X69871811Y-86099689D01*
X70050382Y-86099689D01*
X70157525Y-86135404D01*
X70228954Y-86206832D01*
X70264668Y-86278261D01*
X70300382Y-86421118D01*
X70300382Y-86528261D01*
X70264668Y-86671118D01*
X70228954Y-86742546D01*
X70157525Y-86813975D01*
X70050382Y-86849689D01*
X69871811Y-86849689D01*
X70621811Y-86849689D02*
X70621811Y-86099689D01*
X70978954Y-86849689D02*
X70978954Y-86099689D01*
X71407525Y-86849689D01*
X71407525Y-86099689D01*
X71764668Y-86563975D02*
X72336097Y-86563975D01*
X73050382Y-86099689D02*
X72693240Y-86099689D01*
X72657525Y-86456832D01*
X72693240Y-86421118D01*
X72764668Y-86385404D01*
X72943240Y-86385404D01*
X73014668Y-86421118D01*
X73050382Y-86456832D01*
X73086097Y-86528261D01*
X73086097Y-86706832D01*
X73050382Y-86778261D01*
X73014668Y-86813975D01*
X72943240Y-86849689D01*
X72764668Y-86849689D01*
X72693240Y-86813975D01*
X72657525Y-86778261D01*
X73228954Y-86921118D02*
X73800382Y-86921118D01*
X74371811Y-86849689D02*
X73943240Y-86849689D01*
X74157525Y-86849689D02*
X74157525Y-86099689D01*
X74086097Y-86206832D01*
X74014668Y-86278261D01*
X73943240Y-86313975D01*
X74800382Y-86421118D02*
X74728954Y-86385404D01*
X74693240Y-86349689D01*
X74657525Y-86278261D01*
X74657525Y-86242546D01*
X74693240Y-86171118D01*
X74728954Y-86135404D01*
X74800382Y-86099689D01*
X74943240Y-86099689D01*
X75014668Y-86135404D01*
X75050382Y-86171118D01*
X75086097Y-86242546D01*
X75086097Y-86278261D01*
X75050382Y-86349689D01*
X75014668Y-86385404D01*
X74943240Y-86421118D01*
X74800382Y-86421118D01*
X74728954Y-86456832D01*
X74693240Y-86492546D01*
X74657525Y-86563975D01*
X74657525Y-86706832D01*
X74693240Y-86778261D01*
X74728954Y-86813975D01*
X74800382Y-86849689D01*
X74943240Y-86849689D01*
X75014668Y-86813975D01*
X75050382Y-86778261D01*
X75086097Y-86706832D01*
X75086097Y-86563975D01*
X75050382Y-86492546D01*
X75014668Y-86456832D01*
X74943240Y-86421118D01*
X75550382Y-86099689D02*
X75621811Y-86099689D01*
X75693240Y-86135404D01*
X75728954Y-86171118D01*
X75764668Y-86242546D01*
X75800382Y-86385404D01*
X75800382Y-86563975D01*
X75764668Y-86706832D01*
X75728954Y-86778261D01*
X75693240Y-86813975D01*
X75621811Y-86849689D01*
X75550382Y-86849689D01*
X75478954Y-86813975D01*
X75443240Y-86778261D01*
X75407525Y-86706832D01*
X75371811Y-86563975D01*
X75371811Y-86385404D01*
X75407525Y-86242546D01*
X75443240Y-86171118D01*
X75478954Y-86135404D01*
X75550382Y-86099689D01*
X76443240Y-86849689D02*
X76443240Y-86099689D01*
X76443240Y-86813975D02*
X76371811Y-86849689D01*
X76228954Y-86849689D01*
X76157525Y-86813975D01*
X76121811Y-86778261D01*
X76086097Y-86706832D01*
X76086097Y-86492546D01*
X76121811Y-86421118D01*
X76157525Y-86385404D01*
X76228954Y-86349689D01*
X76371811Y-86349689D01*
X76443240Y-86385404D01*
X77086097Y-86813975D02*
X77014668Y-86849689D01*
X76871811Y-86849689D01*
X76800382Y-86813975D01*
X76764668Y-86742546D01*
X76764668Y-86456832D01*
X76800382Y-86385404D01*
X76871811Y-86349689D01*
X77014668Y-86349689D01*
X77086097Y-86385404D01*
X77121811Y-86456832D01*
X77121811Y-86528261D01*
X76764668Y-86599689D01*
X77764668Y-86349689D02*
X77764668Y-86956832D01*
X77728954Y-87028261D01*
X77693240Y-87063975D01*
X77621811Y-87099689D01*
X77514668Y-87099689D01*
X77443240Y-87063975D01*
X77764668Y-86813975D02*
X77693240Y-86849689D01*
X77550382Y-86849689D01*
X77478954Y-86813975D01*
X77443240Y-86778261D01*
X77407525Y-86706832D01*
X77407525Y-86492546D01*
X77443240Y-86421118D01*
X77478954Y-86385404D01*
X77550382Y-86349689D01*
X77693240Y-86349689D01*
X77764668Y-86385404D01*
X78121811Y-86849689D02*
X78121811Y-86349689D01*
X78121811Y-86492546D02*
X78157525Y-86421118D01*
X78193240Y-86385404D01*
X78264668Y-86349689D01*
X78336097Y-86349689D01*
X78871811Y-86813975D02*
X78800382Y-86849689D01*
X78657525Y-86849689D01*
X78586097Y-86813975D01*
X78550382Y-86742546D01*
X78550382Y-86456832D01*
X78586097Y-86385404D01*
X78657525Y-86349689D01*
X78800382Y-86349689D01*
X78871811Y-86385404D01*
X78907525Y-86456832D01*
X78907525Y-86528261D01*
X78550382Y-86599689D01*
X79514668Y-86813975D02*
X79443240Y-86849689D01*
X79300382Y-86849689D01*
X79228954Y-86813975D01*
X79193240Y-86742546D01*
X79193240Y-86456832D01*
X79228954Y-86385404D01*
X79300382Y-86349689D01*
X79443240Y-86349689D01*
X79514668Y-86385404D01*
X79550382Y-86456832D01*
X79550382Y-86528261D01*
X79193240Y-86599689D01*
%TO.C,R3*%
X66033840Y-51444085D02*
X65783840Y-51086942D01*
X65605268Y-51444085D02*
X65605268Y-50694085D01*
X65890982Y-50694085D01*
X65962411Y-50729800D01*
X65998125Y-50765514D01*
X66033840Y-50836942D01*
X66033840Y-50944085D01*
X65998125Y-51015514D01*
X65962411Y-51051228D01*
X65890982Y-51086942D01*
X65605268Y-51086942D01*
X66283840Y-50694085D02*
X66748125Y-50694085D01*
X66498125Y-50979800D01*
X66605268Y-50979800D01*
X66676697Y-51015514D01*
X66712411Y-51051228D01*
X66748125Y-51122657D01*
X66748125Y-51301228D01*
X66712411Y-51372657D01*
X66676697Y-51408371D01*
X66605268Y-51444085D01*
X66390982Y-51444085D01*
X66319554Y-51408371D01*
X66283840Y-51372657D01*
%TO.C,R1*%
X69183440Y-51444085D02*
X68933440Y-51086942D01*
X68754868Y-51444085D02*
X68754868Y-50694085D01*
X69040582Y-50694085D01*
X69112011Y-50729800D01*
X69147725Y-50765514D01*
X69183440Y-50836942D01*
X69183440Y-50944085D01*
X69147725Y-51015514D01*
X69112011Y-51051228D01*
X69040582Y-51086942D01*
X68754868Y-51086942D01*
X69897725Y-51444085D02*
X69469154Y-51444085D01*
X69683440Y-51444085D02*
X69683440Y-50694085D01*
X69612011Y-50801228D01*
X69540582Y-50872657D01*
X69469154Y-50908371D01*
%TO.C,R2*%
X81336749Y-62397047D02*
X81120083Y-62087523D01*
X80965321Y-62397047D02*
X80965321Y-61747047D01*
X81212940Y-61747047D01*
X81274844Y-61778000D01*
X81305797Y-61808952D01*
X81336749Y-61870857D01*
X81336749Y-61963714D01*
X81305797Y-62025619D01*
X81274844Y-62056571D01*
X81212940Y-62087523D01*
X80965321Y-62087523D01*
X81584368Y-61808952D02*
X81615321Y-61778000D01*
X81677225Y-61747047D01*
X81831987Y-61747047D01*
X81893892Y-61778000D01*
X81924844Y-61808952D01*
X81955797Y-61870857D01*
X81955797Y-61932761D01*
X81924844Y-62025619D01*
X81553416Y-62397047D01*
X81955797Y-62397047D01*
D11*
%TO.C,R5*%
X78193620Y-66486066D02*
X77717430Y-66819400D01*
X78193620Y-67057495D02*
X77193620Y-67057495D01*
X77193620Y-66676542D01*
X77241240Y-66581304D01*
X77288859Y-66533685D01*
X77384097Y-66486066D01*
X77526954Y-66486066D01*
X77622192Y-66533685D01*
X77669811Y-66581304D01*
X77717430Y-66676542D01*
X77717430Y-67057495D01*
X77193620Y-65581304D02*
X77193620Y-66057495D01*
X77669811Y-66105114D01*
X77622192Y-66057495D01*
X77574573Y-65962257D01*
X77574573Y-65724161D01*
X77622192Y-65628923D01*
X77669811Y-65581304D01*
X77765049Y-65533685D01*
X78003144Y-65533685D01*
X78098382Y-65581304D01*
X78146001Y-65628923D01*
X78193620Y-65724161D01*
X78193620Y-65962257D01*
X78146001Y-66057495D01*
X78098382Y-66105114D01*
D12*
%TO.C,Q1*%
X83461011Y-51794914D02*
X83389582Y-51759200D01*
X83318154Y-51687771D01*
X83211011Y-51580628D01*
X83139582Y-51544914D01*
X83068154Y-51544914D01*
X83103868Y-51723485D02*
X83032440Y-51687771D01*
X82961011Y-51616342D01*
X82925297Y-51473485D01*
X82925297Y-51223485D01*
X82961011Y-51080628D01*
X83032440Y-51009200D01*
X83103868Y-50973485D01*
X83246725Y-50973485D01*
X83318154Y-51009200D01*
X83389582Y-51080628D01*
X83425297Y-51223485D01*
X83425297Y-51473485D01*
X83389582Y-51616342D01*
X83318154Y-51687771D01*
X83246725Y-51723485D01*
X83103868Y-51723485D01*
X84139582Y-51723485D02*
X83711011Y-51723485D01*
X83925297Y-51723485D02*
X83925297Y-50973485D01*
X83853868Y-51080628D01*
X83782440Y-51152057D01*
X83711011Y-51187771D01*
D11*
%TO.C,SW1*%
X71415001Y-67754333D02*
X71462620Y-67611476D01*
X71462620Y-67373380D01*
X71415001Y-67278142D01*
X71367382Y-67230523D01*
X71272144Y-67182904D01*
X71176906Y-67182904D01*
X71081668Y-67230523D01*
X71034049Y-67278142D01*
X70986430Y-67373380D01*
X70938811Y-67563857D01*
X70891192Y-67659095D01*
X70843573Y-67706714D01*
X70748335Y-67754333D01*
X70653097Y-67754333D01*
X70557859Y-67706714D01*
X70510240Y-67659095D01*
X70462620Y-67563857D01*
X70462620Y-67325761D01*
X70510240Y-67182904D01*
X70462620Y-66849571D02*
X71462620Y-66611476D01*
X70748335Y-66421000D01*
X71462620Y-66230523D01*
X70462620Y-65992428D01*
X71462620Y-65087666D02*
X71462620Y-65659095D01*
X71462620Y-65373380D02*
X70462620Y-65373380D01*
X70605478Y-65468619D01*
X70700716Y-65563857D01*
X70748335Y-65659095D01*
D12*
%TO.C,J1*%
X76856240Y-49525685D02*
X76856240Y-50061400D01*
X76820525Y-50168542D01*
X76749097Y-50239971D01*
X76641954Y-50275685D01*
X76570525Y-50275685D01*
X77606240Y-50275685D02*
X77177668Y-50275685D01*
X77391954Y-50275685D02*
X77391954Y-49525685D01*
X77320525Y-49632828D01*
X77249097Y-49704257D01*
X77177668Y-49739971D01*
%TO.C,R4*%
X73806240Y-65490285D02*
X73556240Y-65133142D01*
X73377668Y-65490285D02*
X73377668Y-64740285D01*
X73663382Y-64740285D01*
X73734811Y-64776000D01*
X73770525Y-64811714D01*
X73806240Y-64883142D01*
X73806240Y-64990285D01*
X73770525Y-65061714D01*
X73734811Y-65097428D01*
X73663382Y-65133142D01*
X73377668Y-65133142D01*
X74449097Y-64990285D02*
X74449097Y-65490285D01*
X74270525Y-64704571D02*
X74091954Y-65240285D01*
X74556240Y-65240285D01*
D14*
%TO.C,Q2*%
X79372640Y-61459000D02*
X83222640Y-61459000D01*
X83261251Y-61449122D02*
G75*
G03*
X79372640Y-61459000I-1948611J1690122D01*
G01*
%TO.C,R6*%
X82035240Y-66998461D02*
X81705240Y-66998461D01*
X81705240Y-73538461D02*
X82035240Y-73538461D01*
X84115240Y-66998461D02*
X84445240Y-66998461D01*
X84445240Y-66998461D02*
X84445240Y-73538461D01*
X84445240Y-73538461D02*
X84115240Y-73538461D01*
X81705240Y-66998461D02*
X81705240Y-73538461D01*
D13*
%TO.C,J2*%
X80225900Y-78521560D02*
X76725780Y-78521560D01*
X72727820Y-76522580D02*
X72727820Y-78521560D01*
X64226440Y-94521020D02*
X65727580Y-94521020D01*
X80225900Y-76522580D02*
X80225900Y-78521560D01*
X80726280Y-76022200D02*
X80225900Y-76522580D01*
X83726020Y-76522580D02*
X83225640Y-76022200D01*
X83726020Y-95021400D02*
X64226440Y-95021400D01*
X64226440Y-95021400D02*
X64226440Y-94521020D01*
X64226440Y-94772480D02*
X83726020Y-94772480D01*
X83726020Y-93522800D02*
X83225640Y-93522800D01*
X65727580Y-76522580D02*
X65727580Y-93522800D01*
X68727320Y-76022200D02*
X69227700Y-76522580D01*
X66227960Y-76022200D02*
X68727320Y-76022200D01*
X65727580Y-93522800D02*
X66227960Y-93522800D01*
X65727580Y-94272100D02*
X85227160Y-94272100D01*
X76227940Y-76022200D02*
X76725780Y-76522580D01*
X83225640Y-94020640D02*
X83225640Y-93522800D01*
X81226660Y-76022200D02*
X80726280Y-76022200D01*
X85227160Y-94020640D02*
X85227160Y-94521020D01*
X73225660Y-76022200D02*
X76227940Y-76022200D01*
X73225660Y-76022200D02*
X72727820Y-76522580D01*
X66227960Y-93522800D02*
X66227960Y-94020640D01*
X69227700Y-78521560D02*
X72727820Y-78521560D01*
X76725780Y-76522580D02*
X76725780Y-78521560D01*
X83726020Y-76522580D02*
X83726020Y-93522800D01*
X69227700Y-76522580D02*
X69227700Y-78521560D01*
X85227160Y-94521020D02*
X83726020Y-94521020D01*
X83726020Y-94521020D02*
X83726020Y-95021400D01*
X83726020Y-94521020D02*
X65727580Y-94521020D01*
X65727580Y-94521020D02*
X65727580Y-94020640D01*
X65727580Y-76522580D02*
X66227960Y-76022200D01*
X83225640Y-76022200D02*
X81226660Y-76022200D01*
X65727580Y-94020640D02*
X85227160Y-94020640D01*
D14*
%TO.C,R3*%
X67528840Y-53168800D02*
X67198840Y-53168800D01*
X64788840Y-53168800D02*
X65118840Y-53168800D01*
X67198840Y-59708800D02*
X67528840Y-59708800D01*
X65118840Y-59708800D02*
X64788840Y-59708800D01*
X67528840Y-59708800D02*
X67528840Y-53168800D01*
X64788840Y-59708800D02*
X64788840Y-53168800D01*
%TO.C,R1*%
X70348440Y-59708800D02*
X70678440Y-59708800D01*
X67938440Y-59708800D02*
X67938440Y-53168800D01*
X67938440Y-53168800D02*
X68268440Y-53168800D01*
X70678440Y-53168800D02*
X70348440Y-53168800D01*
X70678440Y-59708800D02*
X70678440Y-53168800D01*
X68268440Y-59708800D02*
X67938440Y-59708800D01*
%TO.C,R2*%
X83217240Y-64470800D02*
X79377240Y-64470800D01*
X83217240Y-62630800D02*
X79377240Y-62630800D01*
%TO.C,R5*%
X78555640Y-66998461D02*
X78555640Y-73538461D01*
X81295640Y-73538461D02*
X80965640Y-73538461D01*
X78885640Y-66998461D02*
X78555640Y-66998461D01*
X80965640Y-66998461D02*
X81295640Y-66998461D01*
X81295640Y-66998461D02*
X81295640Y-73538461D01*
X78555640Y-73538461D02*
X78885640Y-73538461D01*
%TO.C,Q1*%
X79372640Y-56379000D02*
X83222640Y-56379000D01*
X83261251Y-56369122D02*
G75*
G03*
X79372640Y-56379000I-1948611J1690122D01*
G01*
%TO.C,REF\u002A\u002A*%
G36*
X75439776Y-67441027D02*
G01*
X75552358Y-68038218D01*
X75967771Y-68209465D01*
X76383185Y-68380712D01*
X76881542Y-68041833D01*
X77021109Y-67947477D01*
X77147269Y-67863230D01*
X77254136Y-67792938D01*
X77335823Y-67740447D01*
X77386442Y-67709604D01*
X77400227Y-67702953D01*
X77425061Y-67720058D01*
X77478129Y-67767344D01*
X77553481Y-67838772D01*
X77645170Y-67928300D01*
X77747248Y-68029889D01*
X77853767Y-68137498D01*
X77958777Y-68245087D01*
X78056332Y-68346615D01*
X78140483Y-68436041D01*
X78205281Y-68507326D01*
X78244778Y-68554428D01*
X78254221Y-68570192D01*
X78240632Y-68599253D01*
X78202534Y-68662921D01*
X78143934Y-68754967D01*
X78068838Y-68869164D01*
X77981249Y-68999284D01*
X77930495Y-69073501D01*
X77837986Y-69209022D01*
X77755781Y-69331316D01*
X77687871Y-69434295D01*
X77638241Y-69511873D01*
X77610881Y-69557961D01*
X77606770Y-69567647D01*
X77616090Y-69595174D01*
X77641495Y-69659328D01*
X77679152Y-69751090D01*
X77725227Y-69861439D01*
X77775887Y-69981355D01*
X77827300Y-70101819D01*
X77875630Y-70213809D01*
X77917047Y-70308307D01*
X77947715Y-70376292D01*
X77963802Y-70408743D01*
X77964752Y-70410020D01*
X77990013Y-70416217D01*
X78057286Y-70430040D01*
X78159601Y-70450132D01*
X78289982Y-70475134D01*
X78441457Y-70503686D01*
X78529834Y-70520151D01*
X78691693Y-70550969D01*
X78837890Y-70580294D01*
X78961028Y-70606521D01*
X79053710Y-70628046D01*
X79108542Y-70643265D01*
X79119564Y-70648093D01*
X79130359Y-70680774D01*
X79139070Y-70754585D01*
X79145701Y-70860892D01*
X79150259Y-70991067D01*
X79152750Y-71136476D01*
X79153179Y-71288490D01*
X79151552Y-71438477D01*
X79147876Y-71577806D01*
X79142156Y-71697845D01*
X79134398Y-71789965D01*
X79124609Y-71845532D01*
X79118737Y-71857100D01*
X79083640Y-71870965D01*
X79009269Y-71890788D01*
X78905464Y-71914239D01*
X78782060Y-71938991D01*
X78738982Y-71946998D01*
X78531288Y-71985041D01*
X78367225Y-72015679D01*
X78241371Y-72040129D01*
X78148306Y-72059609D01*
X78082608Y-72075336D01*
X78038858Y-72088528D01*
X78011633Y-72100404D01*
X77995513Y-72112180D01*
X77993258Y-72114508D01*
X77970744Y-72152000D01*
X77936399Y-72224965D01*
X77893652Y-72324467D01*
X77845933Y-72441573D01*
X77796671Y-72567348D01*
X77749296Y-72692857D01*
X77707236Y-72809165D01*
X77673921Y-72907339D01*
X77652782Y-72978443D01*
X77647246Y-73013542D01*
X77647707Y-73014772D01*
X77666464Y-73043461D01*
X77709017Y-73106585D01*
X77770894Y-73197573D01*
X77847623Y-73309855D01*
X77934732Y-73436860D01*
X77959539Y-73472953D01*
X78047993Y-73603803D01*
X78125829Y-73723191D01*
X78188807Y-73824262D01*
X78232686Y-73900159D01*
X78253226Y-73944027D01*
X78254221Y-73949417D01*
X78236963Y-73977744D01*
X78189276Y-74033861D01*
X78117291Y-74111737D01*
X78027138Y-74205340D01*
X77924946Y-74308641D01*
X77816846Y-74415606D01*
X77708969Y-74520206D01*
X77607445Y-74616409D01*
X77518403Y-74698184D01*
X77447974Y-74759500D01*
X77402288Y-74794326D01*
X77389650Y-74800012D01*
X77360232Y-74786620D01*
X77300002Y-74750499D01*
X77218770Y-74697736D01*
X77156271Y-74655267D01*
X77043026Y-74577340D01*
X76908915Y-74485584D01*
X76774396Y-74393975D01*
X76702074Y-74344946D01*
X76457279Y-74179370D01*
X76251791Y-74290475D01*
X76158177Y-74339148D01*
X76078571Y-74376981D01*
X76024708Y-74398558D01*
X76010998Y-74401561D01*
X75994511Y-74379393D01*
X75961986Y-74316749D01*
X75915849Y-74219409D01*
X75858531Y-74093149D01*
X75792457Y-73943750D01*
X75720056Y-73776988D01*
X75643757Y-73598642D01*
X75565987Y-73414491D01*
X75489175Y-73230312D01*
X75415747Y-73051885D01*
X75348133Y-72884987D01*
X75288761Y-72735397D01*
X75240057Y-72608893D01*
X75204451Y-72511254D01*
X75184371Y-72448257D01*
X75181141Y-72426621D01*
X75206737Y-72399024D01*
X75262779Y-72354225D01*
X75337552Y-72301534D01*
X75343828Y-72297365D01*
X75537086Y-72142669D01*
X75692915Y-71962191D01*
X75809965Y-71761702D01*
X75886886Y-71546974D01*
X75922327Y-71323777D01*
X75914938Y-71097881D01*
X75863368Y-70875059D01*
X75766267Y-70661079D01*
X75737699Y-70614264D01*
X75589109Y-70425218D01*
X75413568Y-70273412D01*
X75217151Y-70159634D01*
X75005934Y-70084675D01*
X74785994Y-70049322D01*
X74563404Y-70054367D01*
X74344242Y-70100599D01*
X74134583Y-70188806D01*
X73940502Y-70319779D01*
X73880467Y-70372937D01*
X73727676Y-70539339D01*
X73616338Y-70714512D01*
X73539964Y-70910866D01*
X73497428Y-71105317D01*
X73486927Y-71323942D01*
X73521941Y-71543652D01*
X73598914Y-71757020D01*
X73714288Y-71956622D01*
X73864506Y-72135029D01*
X74046014Y-72284817D01*
X74069868Y-72300606D01*
X74145442Y-72352312D01*
X74202892Y-72397112D01*
X74230358Y-72425717D01*
X74230758Y-72426621D01*
X74224861Y-72457564D01*
X74201486Y-72527791D01*
X74163062Y-72631525D01*
X74112018Y-72762990D01*
X74050783Y-72916407D01*
X73981785Y-73086001D01*
X73907454Y-73265993D01*
X73830219Y-73450608D01*
X73752509Y-73634068D01*
X73676752Y-73810596D01*
X73605378Y-73974414D01*
X73540815Y-74119747D01*
X73485493Y-74240817D01*
X73441841Y-74331847D01*
X73412287Y-74387060D01*
X73400385Y-74401561D01*
X73364018Y-74390269D01*
X73295971Y-74359985D01*
X73207977Y-74316120D01*
X73159591Y-74290475D01*
X72954104Y-74179370D01*
X72709309Y-74344946D01*
X72584347Y-74429770D01*
X72447536Y-74523116D01*
X72319329Y-74611008D01*
X72255112Y-74655267D01*
X72164792Y-74715918D01*
X72088312Y-74763981D01*
X72035648Y-74793370D01*
X72018543Y-74799582D01*
X71993646Y-74782823D01*
X71938546Y-74736036D01*
X71858584Y-74664080D01*
X71759101Y-74571812D01*
X71645441Y-74464090D01*
X71573556Y-74394926D01*
X71447792Y-74271357D01*
X71339104Y-74160834D01*
X71251886Y-74068085D01*
X71190530Y-73997837D01*
X71159432Y-73954820D01*
X71156449Y-73946090D01*
X71170294Y-73912884D01*
X71208553Y-73845742D01*
X71266982Y-73751463D01*
X71341338Y-73636845D01*
X71427376Y-73508683D01*
X71451843Y-73472953D01*
X71540995Y-73343089D01*
X71620979Y-73226169D01*
X71687321Y-73128762D01*
X71735552Y-73057439D01*
X71761198Y-73018770D01*
X71763676Y-73014772D01*
X71759970Y-72983955D01*
X71740302Y-72916199D01*
X71708101Y-72820439D01*
X71666796Y-72705609D01*
X71619816Y-72580644D01*
X71570590Y-72454479D01*
X71522549Y-72336048D01*
X71479122Y-72234285D01*
X71443737Y-72158126D01*
X71419825Y-72116504D01*
X71418125Y-72114508D01*
X71403503Y-72102613D01*
X71378806Y-72090850D01*
X71338613Y-72078001D01*
X71277504Y-72062849D01*
X71190058Y-72044176D01*
X71070853Y-72020765D01*
X70914468Y-71991397D01*
X70715484Y-71954855D01*
X70672401Y-71946998D01*
X70544711Y-71922327D01*
X70433394Y-71898193D01*
X70348286Y-71876924D01*
X70299224Y-71860848D01*
X70292646Y-71857100D01*
X70281805Y-71823873D01*
X70272994Y-71749621D01*
X70266217Y-71642976D01*
X70261481Y-71512567D01*
X70258791Y-71367027D01*
X70258154Y-71214986D01*
X70259575Y-71065076D01*
X70263061Y-70925928D01*
X70268617Y-70806172D01*
X70276249Y-70714441D01*
X70285963Y-70659366D01*
X70291819Y-70648093D01*
X70324421Y-70636723D01*
X70398659Y-70618224D01*
X70507137Y-70594202D01*
X70642458Y-70566262D01*
X70797226Y-70536008D01*
X70881548Y-70520151D01*
X71041537Y-70490244D01*
X71184208Y-70463150D01*
X71302589Y-70440231D01*
X71389706Y-70422843D01*
X71438586Y-70412347D01*
X71446631Y-70410020D01*
X71460228Y-70383786D01*
X71488970Y-70320595D01*
X71529026Y-70229477D01*
X71576565Y-70119457D01*
X71627756Y-69999565D01*
X71678767Y-69878827D01*
X71725767Y-69766271D01*
X71764925Y-69670926D01*
X71792410Y-69601817D01*
X71804390Y-69567974D01*
X71804613Y-69566495D01*
X71791032Y-69539797D01*
X71752956Y-69478360D01*
X71694388Y-69388289D01*
X71619329Y-69275690D01*
X71531781Y-69146670D01*
X71480888Y-69072561D01*
X71388150Y-68936677D01*
X71305782Y-68813309D01*
X71237802Y-68708697D01*
X71188229Y-68629083D01*
X71161083Y-68580707D01*
X71157162Y-68569862D01*
X71174016Y-68544620D01*
X71220609Y-68490724D01*
X71290989Y-68414213D01*
X71379206Y-68321123D01*
X71479306Y-68217495D01*
X71585339Y-68109364D01*
X71691352Y-68002770D01*
X71791393Y-67903750D01*
X71879511Y-67818342D01*
X71949754Y-67752585D01*
X71996169Y-67712516D01*
X72011697Y-67702953D01*
X72036980Y-67716400D01*
X72097452Y-67754175D01*
X72187233Y-67812435D01*
X72300444Y-67887334D01*
X72431204Y-67975025D01*
X72529840Y-68041833D01*
X73028198Y-68380712D01*
X73443611Y-68209465D01*
X73859025Y-68038218D01*
X73971607Y-67441027D01*
X74084190Y-66843835D01*
X75327193Y-66843835D01*
X75439776Y-67441027D01*
G37*
D15*
X75439776Y-67441027D02*
X75552358Y-68038218D01*
X75967771Y-68209465D01*
X76383185Y-68380712D01*
X76881542Y-68041833D01*
X77021109Y-67947477D01*
X77147269Y-67863230D01*
X77254136Y-67792938D01*
X77335823Y-67740447D01*
X77386442Y-67709604D01*
X77400227Y-67702953D01*
X77425061Y-67720058D01*
X77478129Y-67767344D01*
X77553481Y-67838772D01*
X77645170Y-67928300D01*
X77747248Y-68029889D01*
X77853767Y-68137498D01*
X77958777Y-68245087D01*
X78056332Y-68346615D01*
X78140483Y-68436041D01*
X78205281Y-68507326D01*
X78244778Y-68554428D01*
X78254221Y-68570192D01*
X78240632Y-68599253D01*
X78202534Y-68662921D01*
X78143934Y-68754967D01*
X78068838Y-68869164D01*
X77981249Y-68999284D01*
X77930495Y-69073501D01*
X77837986Y-69209022D01*
X77755781Y-69331316D01*
X77687871Y-69434295D01*
X77638241Y-69511873D01*
X77610881Y-69557961D01*
X77606770Y-69567647D01*
X77616090Y-69595174D01*
X77641495Y-69659328D01*
X77679152Y-69751090D01*
X77725227Y-69861439D01*
X77775887Y-69981355D01*
X77827300Y-70101819D01*
X77875630Y-70213809D01*
X77917047Y-70308307D01*
X77947715Y-70376292D01*
X77963802Y-70408743D01*
X77964752Y-70410020D01*
X77990013Y-70416217D01*
X78057286Y-70430040D01*
X78159601Y-70450132D01*
X78289982Y-70475134D01*
X78441457Y-70503686D01*
X78529834Y-70520151D01*
X78691693Y-70550969D01*
X78837890Y-70580294D01*
X78961028Y-70606521D01*
X79053710Y-70628046D01*
X79108542Y-70643265D01*
X79119564Y-70648093D01*
X79130359Y-70680774D01*
X79139070Y-70754585D01*
X79145701Y-70860892D01*
X79150259Y-70991067D01*
X79152750Y-71136476D01*
X79153179Y-71288490D01*
X79151552Y-71438477D01*
X79147876Y-71577806D01*
X79142156Y-71697845D01*
X79134398Y-71789965D01*
X79124609Y-71845532D01*
X79118737Y-71857100D01*
X79083640Y-71870965D01*
X79009269Y-71890788D01*
X78905464Y-71914239D01*
X78782060Y-71938991D01*
X78738982Y-71946998D01*
X78531288Y-71985041D01*
X78367225Y-72015679D01*
X78241371Y-72040129D01*
X78148306Y-72059609D01*
X78082608Y-72075336D01*
X78038858Y-72088528D01*
X78011633Y-72100404D01*
X77995513Y-72112180D01*
X77993258Y-72114508D01*
X77970744Y-72152000D01*
X77936399Y-72224965D01*
X77893652Y-72324467D01*
X77845933Y-72441573D01*
X77796671Y-72567348D01*
X77749296Y-72692857D01*
X77707236Y-72809165D01*
X77673921Y-72907339D01*
X77652782Y-72978443D01*
X77647246Y-73013542D01*
X77647707Y-73014772D01*
X77666464Y-73043461D01*
X77709017Y-73106585D01*
X77770894Y-73197573D01*
X77847623Y-73309855D01*
X77934732Y-73436860D01*
X77959539Y-73472953D01*
X78047993Y-73603803D01*
X78125829Y-73723191D01*
X78188807Y-73824262D01*
X78232686Y-73900159D01*
X78253226Y-73944027D01*
X78254221Y-73949417D01*
X78236963Y-73977744D01*
X78189276Y-74033861D01*
X78117291Y-74111737D01*
X78027138Y-74205340D01*
X77924946Y-74308641D01*
X77816846Y-74415606D01*
X77708969Y-74520206D01*
X77607445Y-74616409D01*
X77518403Y-74698184D01*
X77447974Y-74759500D01*
X77402288Y-74794326D01*
X77389650Y-74800012D01*
X77360232Y-74786620D01*
X77300002Y-74750499D01*
X77218770Y-74697736D01*
X77156271Y-74655267D01*
X77043026Y-74577340D01*
X76908915Y-74485584D01*
X76774396Y-74393975D01*
X76702074Y-74344946D01*
X76457279Y-74179370D01*
X76251791Y-74290475D01*
X76158177Y-74339148D01*
X76078571Y-74376981D01*
X76024708Y-74398558D01*
X76010998Y-74401561D01*
X75994511Y-74379393D01*
X75961986Y-74316749D01*
X75915849Y-74219409D01*
X75858531Y-74093149D01*
X75792457Y-73943750D01*
X75720056Y-73776988D01*
X75643757Y-73598642D01*
X75565987Y-73414491D01*
X75489175Y-73230312D01*
X75415747Y-73051885D01*
X75348133Y-72884987D01*
X75288761Y-72735397D01*
X75240057Y-72608893D01*
X75204451Y-72511254D01*
X75184371Y-72448257D01*
X75181141Y-72426621D01*
X75206737Y-72399024D01*
X75262779Y-72354225D01*
X75337552Y-72301534D01*
X75343828Y-72297365D01*
X75537086Y-72142669D01*
X75692915Y-71962191D01*
X75809965Y-71761702D01*
X75886886Y-71546974D01*
X75922327Y-71323777D01*
X75914938Y-71097881D01*
X75863368Y-70875059D01*
X75766267Y-70661079D01*
X75737699Y-70614264D01*
X75589109Y-70425218D01*
X75413568Y-70273412D01*
X75217151Y-70159634D01*
X75005934Y-70084675D01*
X74785994Y-70049322D01*
X74563404Y-70054367D01*
X74344242Y-70100599D01*
X74134583Y-70188806D01*
X73940502Y-70319779D01*
X73880467Y-70372937D01*
X73727676Y-70539339D01*
X73616338Y-70714512D01*
X73539964Y-70910866D01*
X73497428Y-71105317D01*
X73486927Y-71323942D01*
X73521941Y-71543652D01*
X73598914Y-71757020D01*
X73714288Y-71956622D01*
X73864506Y-72135029D01*
X74046014Y-72284817D01*
X74069868Y-72300606D01*
X74145442Y-72352312D01*
X74202892Y-72397112D01*
X74230358Y-72425717D01*
X74230758Y-72426621D01*
X74224861Y-72457564D01*
X74201486Y-72527791D01*
X74163062Y-72631525D01*
X74112018Y-72762990D01*
X74050783Y-72916407D01*
X73981785Y-73086001D01*
X73907454Y-73265993D01*
X73830219Y-73450608D01*
X73752509Y-73634068D01*
X73676752Y-73810596D01*
X73605378Y-73974414D01*
X73540815Y-74119747D01*
X73485493Y-74240817D01*
X73441841Y-74331847D01*
X73412287Y-74387060D01*
X73400385Y-74401561D01*
X73364018Y-74390269D01*
X73295971Y-74359985D01*
X73207977Y-74316120D01*
X73159591Y-74290475D01*
X72954104Y-74179370D01*
X72709309Y-74344946D01*
X72584347Y-74429770D01*
X72447536Y-74523116D01*
X72319329Y-74611008D01*
X72255112Y-74655267D01*
X72164792Y-74715918D01*
X72088312Y-74763981D01*
X72035648Y-74793370D01*
X72018543Y-74799582D01*
X71993646Y-74782823D01*
X71938546Y-74736036D01*
X71858584Y-74664080D01*
X71759101Y-74571812D01*
X71645441Y-74464090D01*
X71573556Y-74394926D01*
X71447792Y-74271357D01*
X71339104Y-74160834D01*
X71251886Y-74068085D01*
X71190530Y-73997837D01*
X71159432Y-73954820D01*
X71156449Y-73946090D01*
X71170294Y-73912884D01*
X71208553Y-73845742D01*
X71266982Y-73751463D01*
X71341338Y-73636845D01*
X71427376Y-73508683D01*
X71451843Y-73472953D01*
X71540995Y-73343089D01*
X71620979Y-73226169D01*
X71687321Y-73128762D01*
X71735552Y-73057439D01*
X71761198Y-73018770D01*
X71763676Y-73014772D01*
X71759970Y-72983955D01*
X71740302Y-72916199D01*
X71708101Y-72820439D01*
X71666796Y-72705609D01*
X71619816Y-72580644D01*
X71570590Y-72454479D01*
X71522549Y-72336048D01*
X71479122Y-72234285D01*
X71443737Y-72158126D01*
X71419825Y-72116504D01*
X71418125Y-72114508D01*
X71403503Y-72102613D01*
X71378806Y-72090850D01*
X71338613Y-72078001D01*
X71277504Y-72062849D01*
X71190058Y-72044176D01*
X71070853Y-72020765D01*
X70914468Y-71991397D01*
X70715484Y-71954855D01*
X70672401Y-71946998D01*
X70544711Y-71922327D01*
X70433394Y-71898193D01*
X70348286Y-71876924D01*
X70299224Y-71860848D01*
X70292646Y-71857100D01*
X70281805Y-71823873D01*
X70272994Y-71749621D01*
X70266217Y-71642976D01*
X70261481Y-71512567D01*
X70258791Y-71367027D01*
X70258154Y-71214986D01*
X70259575Y-71065076D01*
X70263061Y-70925928D01*
X70268617Y-70806172D01*
X70276249Y-70714441D01*
X70285963Y-70659366D01*
X70291819Y-70648093D01*
X70324421Y-70636723D01*
X70398659Y-70618224D01*
X70507137Y-70594202D01*
X70642458Y-70566262D01*
X70797226Y-70536008D01*
X70881548Y-70520151D01*
X71041537Y-70490244D01*
X71184208Y-70463150D01*
X71302589Y-70440231D01*
X71389706Y-70422843D01*
X71438586Y-70412347D01*
X71446631Y-70410020D01*
X71460228Y-70383786D01*
X71488970Y-70320595D01*
X71529026Y-70229477D01*
X71576565Y-70119457D01*
X71627756Y-69999565D01*
X71678767Y-69878827D01*
X71725767Y-69766271D01*
X71764925Y-69670926D01*
X71792410Y-69601817D01*
X71804390Y-69567974D01*
X71804613Y-69566495D01*
X71791032Y-69539797D01*
X71752956Y-69478360D01*
X71694388Y-69388289D01*
X71619329Y-69275690D01*
X71531781Y-69146670D01*
X71480888Y-69072561D01*
X71388150Y-68936677D01*
X71305782Y-68813309D01*
X71237802Y-68708697D01*
X71188229Y-68629083D01*
X71161083Y-68580707D01*
X71157162Y-68569862D01*
X71174016Y-68544620D01*
X71220609Y-68490724D01*
X71290989Y-68414213D01*
X71379206Y-68321123D01*
X71479306Y-68217495D01*
X71585339Y-68109364D01*
X71691352Y-68002770D01*
X71791393Y-67903750D01*
X71879511Y-67818342D01*
X71949754Y-67752585D01*
X71996169Y-67712516D01*
X72011697Y-67702953D01*
X72036980Y-67716400D01*
X72097452Y-67754175D01*
X72187233Y-67812435D01*
X72300444Y-67887334D01*
X72431204Y-67975025D01*
X72529840Y-68041833D01*
X73028198Y-68380712D01*
X73443611Y-68209465D01*
X73859025Y-68038218D01*
X73971607Y-67441027D01*
X74084190Y-66843835D01*
X75327193Y-66843835D01*
X75439776Y-67441027D01*
D14*
%TO.C,SW1*%
X69855240Y-64843800D02*
X69855240Y-63643800D01*
X69855240Y-63643800D02*
X68655240Y-63643800D01*
X69555240Y-63943800D02*
X65355240Y-63943800D01*
X69555240Y-73143800D02*
X65355240Y-73143800D01*
X65355240Y-63943800D02*
X65355240Y-65143800D01*
X69555240Y-65143800D02*
X69555240Y-63943800D01*
X65355240Y-73143800D02*
X65355240Y-71943800D01*
X69555240Y-71943800D02*
X69555240Y-73143800D01*
%TO.C,J1*%
X73528040Y-51543800D02*
X76478040Y-51543800D01*
X72028040Y-59093800D02*
X71278040Y-59093800D01*
X72028040Y-60893800D02*
X72028040Y-59093800D01*
X71278040Y-52593800D02*
X72028040Y-52593800D01*
X71268040Y-50783800D02*
X71268040Y-60903800D01*
X77238040Y-60903800D02*
X77238040Y-50783800D01*
X71278040Y-57593800D02*
X72028040Y-57593800D01*
X77238040Y-50783800D02*
X71268040Y-50783800D01*
X73528040Y-60143800D02*
X76478040Y-60143800D01*
X72028040Y-52593800D02*
X72028040Y-50793800D01*
X72028040Y-54093800D02*
X71278040Y-54093800D01*
X71278040Y-59093800D02*
X71278040Y-60893800D01*
X71278040Y-50793800D02*
X71278040Y-52593800D01*
X71268040Y-60903800D02*
X77238040Y-60903800D01*
X73528040Y-60893800D02*
X73528040Y-60143800D01*
X76478040Y-51543800D02*
X76478040Y-55843800D01*
X70978040Y-61193800D02*
X72228040Y-61193800D01*
X72028040Y-50793800D02*
X71278040Y-50793800D01*
X73528040Y-50793800D02*
X73528040Y-51543800D01*
X76478040Y-60143800D02*
X76478040Y-55843800D01*
X71278040Y-60893800D02*
X72028040Y-60893800D01*
X70978040Y-59943800D02*
X70978040Y-61193800D01*
X72028040Y-57593800D02*
X72028040Y-54093800D01*
X71278040Y-54093800D02*
X71278040Y-57593800D01*
%TO.C,R4*%
X72011240Y-62630800D02*
X75851240Y-62630800D01*
X72011240Y-64470800D02*
X75851240Y-64470800D01*
%TD*%
D16*
%TO.C,J2*%
X79728060Y-92519500D03*
X69725540Y-92519500D03*
X82224880Y-82524600D03*
X74726800Y-82522060D03*
X67228720Y-82524600D03*
X79722980Y-80022700D03*
X69730620Y-80022700D03*
%TD*%
M02*
