%TF.GenerationSoftware,KiCad,Pcbnew,6.0.7-f9a2dced07~116~ubuntu20.04.1*%
%TF.CreationDate,2022-08-23T18:53:04+02:00*%
%TF.ProjectId,MIDI_IN,4d494449-5f49-44e2-9e6b-696361645f70,rev?*%
%TF.SameCoordinates,Original*%
%TF.FileFunction,Legend,Bot*%
%TF.FilePolarity,Positive*%
%FSLAX46Y46*%
G04 Gerber Fmt 4.6, Leading zero omitted, Abs format (unit mm)*
G04 Created by KiCad (PCBNEW 6.0.7-f9a2dced07~116~ubuntu20.04.1) date 2022-08-23 18:53:04*
%MOMM*%
%LPD*%
G01*
G04 APERTURE LIST*
%ADD10C,0.010000*%
%ADD11C,0.100000*%
%ADD12C,2.499360*%
G04 APERTURE END LIST*
D10*
G36*
X101244581Y-72447066D02*
G01*
X101046144Y-72447066D01*
X101046144Y-72248629D01*
X101244581Y-72248629D01*
X101244581Y-72447066D01*
G37*
X101244581Y-72447066D02*
X101046144Y-72447066D01*
X101046144Y-72248629D01*
X101244581Y-72248629D01*
X101244581Y-72447066D01*
G36*
X100265623Y-72843941D02*
G01*
X100464061Y-72843941D01*
X100464061Y-73240816D01*
X100265623Y-73240816D01*
X100265623Y-73637691D01*
X100067186Y-73637691D01*
X100067186Y-72447066D01*
X100265623Y-72447066D01*
X100265623Y-72843941D01*
G37*
X100265623Y-72843941D02*
X100464061Y-72843941D01*
X100464061Y-73240816D01*
X100265623Y-73240816D01*
X100265623Y-73637691D01*
X100067186Y-73637691D01*
X100067186Y-72447066D01*
X100265623Y-72447066D01*
X100265623Y-72843941D01*
G36*
X101058610Y-75416446D02*
G01*
X101057190Y-75421394D01*
X101055871Y-75427083D01*
X101054652Y-75433518D01*
X101053532Y-75440701D01*
X101051588Y-75457327D01*
X101050032Y-75476987D01*
X101048859Y-75499709D01*
X101044972Y-75595621D01*
X100724745Y-75597076D01*
X100156467Y-75598604D01*
X99621268Y-75597226D01*
X99287811Y-75595631D01*
X99283926Y-75499719D01*
X99283387Y-75487974D01*
X99282753Y-75476997D01*
X99282024Y-75466786D01*
X99281198Y-75457337D01*
X99280274Y-75448647D01*
X99279253Y-75440711D01*
X99278134Y-75433528D01*
X99276915Y-75427093D01*
X99276268Y-75424155D01*
X99275595Y-75421403D01*
X99274898Y-75418837D01*
X99274176Y-75416455D01*
X99273428Y-75414258D01*
X99272655Y-75412246D01*
X99271856Y-75410417D01*
X99271031Y-75408771D01*
X99270181Y-75407308D01*
X99269305Y-75406028D01*
X99268403Y-75404930D01*
X99267476Y-75404013D01*
X99266522Y-75403278D01*
X99265542Y-75402723D01*
X99264535Y-75402349D01*
X99263503Y-75402155D01*
X99250819Y-75401382D01*
X99228508Y-75400500D01*
X99199716Y-75399618D01*
X99167591Y-75398845D01*
X99088217Y-75397190D01*
X99088217Y-75211974D01*
X99280048Y-75211974D01*
X99375959Y-75211968D01*
X99471871Y-75211962D01*
X99473336Y-75281416D01*
X99473714Y-75310732D01*
X99473662Y-75339211D01*
X99473484Y-75352119D01*
X99473210Y-75363597D01*
X99472844Y-75373237D01*
X99472390Y-75380634D01*
X99472409Y-75380644D01*
X99469999Y-75410410D01*
X100854919Y-75410410D01*
X100854619Y-75314498D01*
X100854319Y-75218587D01*
X100266771Y-75211468D01*
X100259011Y-75020148D01*
X99875365Y-75020148D01*
X99868750Y-74921958D01*
X99862136Y-74823768D01*
X99766224Y-74826933D01*
X99670313Y-74830097D01*
X99670313Y-74628725D01*
X99478490Y-74636495D01*
X99476835Y-74719178D01*
X99473555Y-74911001D01*
X99471930Y-75020142D01*
X99379297Y-75015746D01*
X99369855Y-75015356D01*
X99360670Y-75015089D01*
X99351788Y-75014941D01*
X99343258Y-75014909D01*
X99335126Y-75014991D01*
X99327443Y-75015181D01*
X99320254Y-75015478D01*
X99313609Y-75015878D01*
X99307555Y-75016376D01*
X99302140Y-75016971D01*
X99297412Y-75017658D01*
X99293419Y-75018434D01*
X99290210Y-75019296D01*
X99288913Y-75019757D01*
X99287831Y-75020240D01*
X99286968Y-75020741D01*
X99286331Y-75021263D01*
X99285926Y-75021803D01*
X99285758Y-75022361D01*
X99284411Y-75056367D01*
X99282448Y-75122671D01*
X99280048Y-75211974D01*
X99088217Y-75211974D01*
X99088217Y-74829494D01*
X99184128Y-74825610D01*
X99280040Y-74821725D01*
X99287809Y-74629902D01*
X99485088Y-74629902D01*
X99485088Y-74219798D01*
X99286650Y-74219798D01*
X99286650Y-73240839D01*
X99485088Y-73240839D01*
X99485088Y-73050559D01*
X99485000Y-72979623D01*
X99485224Y-72951346D01*
X99485924Y-72927396D01*
X99487322Y-72907420D01*
X99488352Y-72898812D01*
X99489641Y-72891066D01*
X99491215Y-72884137D01*
X99493104Y-72877983D01*
X99495334Y-72872558D01*
X99497933Y-72867819D01*
X99500930Y-72863722D01*
X99504351Y-72860223D01*
X99508226Y-72857278D01*
X99512582Y-72854842D01*
X99517446Y-72852873D01*
X99522847Y-72851326D01*
X99528812Y-72850157D01*
X99535369Y-72849323D01*
X99542546Y-72848778D01*
X99550371Y-72848480D01*
X99568076Y-72848447D01*
X99612484Y-72849401D01*
X99676809Y-72850581D01*
X99675204Y-72939878D01*
X99673588Y-73063008D01*
X99671949Y-73233648D01*
X99670294Y-73438120D01*
X99574382Y-73442005D01*
X99478471Y-73445890D01*
X99478471Y-74213181D01*
X99676909Y-74226411D01*
X99676458Y-74322322D01*
X99676008Y-74418233D01*
X99868750Y-74418233D01*
X99868750Y-74616670D01*
X99977891Y-74618320D01*
X100173021Y-74621626D01*
X100259011Y-74623286D01*
X100262891Y-74718929D01*
X100266771Y-74814574D01*
X100854402Y-74818149D01*
X101442032Y-74821724D01*
X101445833Y-74722505D01*
X101449633Y-74623286D01*
X102037182Y-74616167D01*
X102044946Y-74424847D01*
X102127628Y-74423193D01*
X102160776Y-74422422D01*
X102189908Y-74421542D01*
X102211879Y-74420661D01*
X102219194Y-74420254D01*
X102223539Y-74419888D01*
X102224235Y-74419677D01*
X102224920Y-74419224D01*
X102226255Y-74417612D01*
X102227537Y-74415097D01*
X102228762Y-74411722D01*
X102229922Y-74407533D01*
X102231012Y-74402573D01*
X102232959Y-74390520D01*
X102234555Y-74375917D01*
X102235753Y-74359118D01*
X102236507Y-74340480D01*
X102236769Y-74320355D01*
X102236769Y-74222477D01*
X102312836Y-74225457D01*
X102357215Y-74229085D01*
X102374726Y-74230072D01*
X102389439Y-74228688D01*
X102401595Y-74223569D01*
X102411433Y-74213349D01*
X102419193Y-74196663D01*
X102425117Y-74172147D01*
X102429444Y-74138435D01*
X102432414Y-74094164D01*
X102435247Y-73968480D01*
X102435206Y-73530338D01*
X102435206Y-72843964D01*
X102236769Y-72843964D01*
X102236769Y-72645527D01*
X102038331Y-72645527D01*
X102038331Y-72248652D01*
X101839895Y-72248652D01*
X101839895Y-71857473D01*
X101743984Y-71857923D01*
X101648072Y-71858373D01*
X101641458Y-71756999D01*
X101634843Y-71655625D01*
X100265625Y-71657435D01*
X100265625Y-71851755D01*
X100067187Y-71851755D01*
X100067187Y-72248630D01*
X99868750Y-72248630D01*
X99868750Y-72843942D01*
X99674537Y-72843942D01*
X99677137Y-72509906D01*
X99677669Y-72375248D01*
X99677198Y-72255534D01*
X99675834Y-72163788D01*
X99674853Y-72132472D01*
X99673692Y-72113031D01*
X99667649Y-72050192D01*
X99485106Y-72050192D01*
X99485106Y-71269672D01*
X99670314Y-71269672D01*
X99671969Y-71223370D01*
X99672369Y-71213799D01*
X99672872Y-71204348D01*
X99673458Y-71195261D01*
X99674108Y-71186783D01*
X99674800Y-71179158D01*
X99675514Y-71172629D01*
X99676231Y-71167441D01*
X99676583Y-71165427D01*
X99676929Y-71163839D01*
X99677627Y-71160372D01*
X99678344Y-71155571D01*
X99679058Y-71149654D01*
X99679750Y-71142838D01*
X99680399Y-71135340D01*
X99680986Y-71127376D01*
X99681489Y-71119165D01*
X99681889Y-71110922D01*
X99683544Y-71071235D01*
X99868752Y-71071235D01*
X99870407Y-71031548D01*
X99871310Y-71014050D01*
X99872546Y-70995747D01*
X99873952Y-70978807D01*
X99874668Y-70971527D01*
X99875367Y-70965402D01*
X99876782Y-70952519D01*
X99878188Y-70937000D01*
X99879423Y-70920800D01*
X99880326Y-70905870D01*
X99881981Y-70872797D01*
X100648114Y-70872797D01*
X100651999Y-70968709D01*
X100655884Y-71064620D01*
X101342255Y-71071235D01*
X102028627Y-71077850D01*
X102031717Y-71263058D01*
X102427437Y-71276288D01*
X102423739Y-71345500D01*
X102422729Y-71366066D01*
X102422119Y-71384200D01*
X102422040Y-71400055D01*
X102422622Y-71413782D01*
X102423202Y-71419896D01*
X102423996Y-71425535D01*
X102425021Y-71430719D01*
X102426292Y-71435466D01*
X102427827Y-71439796D01*
X102429641Y-71443727D01*
X102431751Y-71447280D01*
X102434174Y-71450471D01*
X102436924Y-71453322D01*
X102440020Y-71455851D01*
X102443477Y-71458077D01*
X102447311Y-71460019D01*
X102451539Y-71461696D01*
X102456177Y-71463127D01*
X102461241Y-71464331D01*
X102466748Y-71465328D01*
X102472715Y-71466136D01*
X102479156Y-71466774D01*
X102493531Y-71467618D01*
X102510003Y-71468013D01*
X102528702Y-71468111D01*
X102620415Y-71468111D01*
X102620415Y-71666548D01*
X103030519Y-71666548D01*
X103030519Y-71468111D01*
X103813315Y-71468111D01*
X103810328Y-71517720D01*
X103809765Y-71528698D01*
X103809314Y-71540897D01*
X103808761Y-71567329D01*
X103808708Y-71593762D01*
X103808880Y-71605961D01*
X103809190Y-71616939D01*
X103811039Y-71666548D01*
X104012939Y-71666548D01*
X104005659Y-71711410D01*
X104004345Y-71721531D01*
X104003407Y-71733118D01*
X104002845Y-71745763D01*
X104002659Y-71759060D01*
X104002848Y-71772603D01*
X104003413Y-71785983D01*
X104004354Y-71798794D01*
X104005670Y-71810628D01*
X104012960Y-71864986D01*
X104209684Y-71864986D01*
X104201300Y-72632248D01*
X104154998Y-72633158D01*
X104134573Y-72633913D01*
X104112346Y-72635328D01*
X104089629Y-72637253D01*
X104067730Y-72639538D01*
X104047961Y-72642032D01*
X104031632Y-72644586D01*
X104025168Y-72645838D01*
X104020054Y-72647048D01*
X104016456Y-72648198D01*
X104015276Y-72648745D01*
X104014537Y-72649269D01*
X104014169Y-72650084D01*
X104013781Y-72651782D01*
X104012963Y-72657638D01*
X104012108Y-72666456D01*
X104011241Y-72677859D01*
X104009580Y-72706900D01*
X104008188Y-72741727D01*
X104007682Y-72756432D01*
X104007148Y-72769434D01*
X104006544Y-72780839D01*
X104005832Y-72790754D01*
X104005423Y-72795187D01*
X104004972Y-72799287D01*
X104004474Y-72803068D01*
X104003924Y-72806543D01*
X104003316Y-72809726D01*
X104002647Y-72812630D01*
X104001911Y-72815268D01*
X104001103Y-72817653D01*
X104000218Y-72819800D01*
X103999250Y-72821720D01*
X103998196Y-72823429D01*
X103997051Y-72824938D01*
X103995808Y-72826261D01*
X103994463Y-72827412D01*
X103993012Y-72828404D01*
X103991448Y-72829250D01*
X103989768Y-72829964D01*
X103987967Y-72830559D01*
X103986038Y-72831047D01*
X103983978Y-72831444D01*
X103981780Y-72831761D01*
X103979442Y-72832013D01*
X103974319Y-72832372D01*
X103967824Y-72832771D01*
X103961243Y-72833274D01*
X103954757Y-72833861D01*
X103948548Y-72834510D01*
X103942796Y-72835202D01*
X103937684Y-72835916D01*
X103933392Y-72836633D01*
X103930102Y-72837331D01*
X103926364Y-72838030D01*
X103920790Y-72838746D01*
X103913649Y-72839460D01*
X103905215Y-72840152D01*
X103885547Y-72841388D01*
X103863956Y-72842291D01*
X103811039Y-72843946D01*
X103811039Y-73029155D01*
X103612602Y-73029155D01*
X103612602Y-74021342D01*
X103414164Y-74021342D01*
X103414164Y-74418217D01*
X103215727Y-74418217D01*
X103215727Y-74629884D01*
X103414164Y-74629884D01*
X103414164Y-74812921D01*
X103320402Y-74817316D01*
X103301455Y-74818086D01*
X103283565Y-74818586D01*
X103267137Y-74818822D01*
X103252579Y-74818798D01*
X103240298Y-74818519D01*
X103235138Y-74818285D01*
X103230700Y-74817989D01*
X103227035Y-74817632D01*
X103224193Y-74817213D01*
X103222225Y-74816735D01*
X103221585Y-74816473D01*
X103221183Y-74816196D01*
X103220627Y-74815166D01*
X103220087Y-74813244D01*
X103219064Y-74806923D01*
X103218138Y-74797627D01*
X103217330Y-74785749D01*
X103216662Y-74771682D01*
X103216157Y-74755821D01*
X103215838Y-74738557D01*
X103215727Y-74720285D01*
X103215727Y-74629886D01*
X103172732Y-74629351D01*
X103023784Y-74625901D01*
X102847212Y-74619877D01*
X102698925Y-74613425D01*
X102652860Y-74610711D01*
X102634832Y-74608695D01*
X102634295Y-74607711D01*
X102633801Y-74605843D01*
X102632954Y-74599647D01*
X102632302Y-74590495D01*
X102631854Y-74578776D01*
X102631620Y-74564878D01*
X102631612Y-74549190D01*
X102631839Y-74532100D01*
X102632312Y-74513996D01*
X102635218Y-74424393D01*
X102435207Y-74424393D01*
X102435207Y-74520524D01*
X102435148Y-74532704D01*
X102434971Y-74544006D01*
X102434673Y-74554443D01*
X102434252Y-74564031D01*
X102433704Y-74572784D01*
X102433028Y-74580716D01*
X102432222Y-74587842D01*
X102431768Y-74591107D01*
X102431282Y-74594176D01*
X102430761Y-74597050D01*
X102430206Y-74599733D01*
X102429616Y-74602224D01*
X102428992Y-74604526D01*
X102428333Y-74606642D01*
X102427638Y-74608572D01*
X102426907Y-74610318D01*
X102426140Y-74611883D01*
X102425337Y-74613268D01*
X102424497Y-74614475D01*
X102423620Y-74615505D01*
X102422706Y-74616361D01*
X102421754Y-74617045D01*
X102420765Y-74617557D01*
X102419737Y-74617901D01*
X102418670Y-74618077D01*
X102405986Y-74618777D01*
X102383675Y-74619634D01*
X102322759Y-74621382D01*
X102243384Y-74623267D01*
X102239497Y-74719179D01*
X102235609Y-74815089D01*
X102179965Y-74816429D01*
X102154967Y-74816763D01*
X102128036Y-74816683D01*
X102102411Y-74816223D01*
X102091098Y-74815860D01*
X102081326Y-74815414D01*
X102038331Y-74813059D01*
X102038331Y-75211961D01*
X101839894Y-75211961D01*
X101839894Y-75410398D01*
X102038331Y-75410398D01*
X102038331Y-75609071D01*
X102729445Y-75605647D01*
X103420559Y-75602222D01*
X103417767Y-75506310D01*
X103414975Y-75410399D01*
X103613309Y-75410399D01*
X103605987Y-75020139D01*
X103420779Y-75020139D01*
X103416892Y-74924227D01*
X103413005Y-74828316D01*
X103612601Y-74828316D01*
X103612601Y-74920920D01*
X103612653Y-74930362D01*
X103612804Y-74939557D01*
X103613049Y-74948457D01*
X103613384Y-74957013D01*
X103613803Y-74965176D01*
X103614302Y-74972898D01*
X103614874Y-74980132D01*
X103615516Y-74986828D01*
X103616221Y-74992938D01*
X103616986Y-74998414D01*
X103617804Y-75003208D01*
X103618671Y-75007270D01*
X103619581Y-75010554D01*
X103620530Y-75013010D01*
X103621017Y-75013912D01*
X103621512Y-75014590D01*
X103622015Y-75015036D01*
X103622523Y-75015245D01*
X103632617Y-75016674D01*
X103646500Y-75018176D01*
X103682297Y-75021156D01*
X103723232Y-75023702D01*
X103762626Y-75025336D01*
X103813433Y-75026751D01*
X103804529Y-75595605D01*
X103728409Y-75597260D01*
X103697548Y-75598032D01*
X103669792Y-75598914D01*
X103648180Y-75599796D01*
X103640628Y-75600203D01*
X103635753Y-75600569D01*
X103633715Y-75601137D01*
X103631781Y-75602425D01*
X103629952Y-75604437D01*
X103628226Y-75607176D01*
X103626603Y-75610644D01*
X103625082Y-75614846D01*
X103623663Y-75619784D01*
X103622344Y-75625462D01*
X103621125Y-75631883D01*
X103620005Y-75639051D01*
X103618061Y-75655638D01*
X103616506Y-75675250D01*
X103615334Y-75697912D01*
X103611452Y-75793600D01*
X103271376Y-75797131D01*
X103271364Y-75797134D01*
X102969008Y-75799117D01*
X102719621Y-75798955D01*
X102181112Y-75795650D01*
X101854270Y-75794050D01*
X101846496Y-75602227D01*
X101750584Y-75598342D01*
X101654673Y-75594457D01*
X101652860Y-75426365D01*
X101651604Y-75300849D01*
X101651136Y-75235121D01*
X101650407Y-75230193D01*
X101648025Y-75225792D01*
X101643766Y-75221902D01*
X101637400Y-75218506D01*
X101628701Y-75215587D01*
X101617441Y-75213128D01*
X101603394Y-75211113D01*
X101586332Y-75209524D01*
X101542253Y-75207559D01*
X101483387Y-75207098D01*
X101407916Y-75208007D01*
X101314022Y-75210151D01*
X101244569Y-75211971D01*
X101244569Y-75397180D01*
X101165194Y-75398835D01*
X101133069Y-75399608D01*
X101104278Y-75400490D01*
X101081967Y-75401371D01*
X101074224Y-75401778D01*
X101069283Y-75402145D01*
X101067244Y-75402713D01*
X101065310Y-75404003D01*
X101063480Y-75406018D01*
X101061754Y-75408761D01*
X101060984Y-75410410D01*
X101060131Y-75412236D01*
X101058610Y-75416446D01*
G37*
X101058610Y-75416446D02*
X101057190Y-75421394D01*
X101055871Y-75427083D01*
X101054652Y-75433518D01*
X101053532Y-75440701D01*
X101051588Y-75457327D01*
X101050032Y-75476987D01*
X101048859Y-75499709D01*
X101044972Y-75595621D01*
X100724745Y-75597076D01*
X100156467Y-75598604D01*
X99621268Y-75597226D01*
X99287811Y-75595631D01*
X99283926Y-75499719D01*
X99283387Y-75487974D01*
X99282753Y-75476997D01*
X99282024Y-75466786D01*
X99281198Y-75457337D01*
X99280274Y-75448647D01*
X99279253Y-75440711D01*
X99278134Y-75433528D01*
X99276915Y-75427093D01*
X99276268Y-75424155D01*
X99275595Y-75421403D01*
X99274898Y-75418837D01*
X99274176Y-75416455D01*
X99273428Y-75414258D01*
X99272655Y-75412246D01*
X99271856Y-75410417D01*
X99271031Y-75408771D01*
X99270181Y-75407308D01*
X99269305Y-75406028D01*
X99268403Y-75404930D01*
X99267476Y-75404013D01*
X99266522Y-75403278D01*
X99265542Y-75402723D01*
X99264535Y-75402349D01*
X99263503Y-75402155D01*
X99250819Y-75401382D01*
X99228508Y-75400500D01*
X99199716Y-75399618D01*
X99167591Y-75398845D01*
X99088217Y-75397190D01*
X99088217Y-75211974D01*
X99280048Y-75211974D01*
X99375959Y-75211968D01*
X99471871Y-75211962D01*
X99473336Y-75281416D01*
X99473714Y-75310732D01*
X99473662Y-75339211D01*
X99473484Y-75352119D01*
X99473210Y-75363597D01*
X99472844Y-75373237D01*
X99472390Y-75380634D01*
X99472409Y-75380644D01*
X99469999Y-75410410D01*
X100854919Y-75410410D01*
X100854619Y-75314498D01*
X100854319Y-75218587D01*
X100266771Y-75211468D01*
X100259011Y-75020148D01*
X99875365Y-75020148D01*
X99868750Y-74921958D01*
X99862136Y-74823768D01*
X99766224Y-74826933D01*
X99670313Y-74830097D01*
X99670313Y-74628725D01*
X99478490Y-74636495D01*
X99476835Y-74719178D01*
X99473555Y-74911001D01*
X99471930Y-75020142D01*
X99379297Y-75015746D01*
X99369855Y-75015356D01*
X99360670Y-75015089D01*
X99351788Y-75014941D01*
X99343258Y-75014909D01*
X99335126Y-75014991D01*
X99327443Y-75015181D01*
X99320254Y-75015478D01*
X99313609Y-75015878D01*
X99307555Y-75016376D01*
X99302140Y-75016971D01*
X99297412Y-75017658D01*
X99293419Y-75018434D01*
X99290210Y-75019296D01*
X99288913Y-75019757D01*
X99287831Y-75020240D01*
X99286968Y-75020741D01*
X99286331Y-75021263D01*
X99285926Y-75021803D01*
X99285758Y-75022361D01*
X99284411Y-75056367D01*
X99282448Y-75122671D01*
X99280048Y-75211974D01*
X99088217Y-75211974D01*
X99088217Y-74829494D01*
X99184128Y-74825610D01*
X99280040Y-74821725D01*
X99287809Y-74629902D01*
X99485088Y-74629902D01*
X99485088Y-74219798D01*
X99286650Y-74219798D01*
X99286650Y-73240839D01*
X99485088Y-73240839D01*
X99485088Y-73050559D01*
X99485000Y-72979623D01*
X99485224Y-72951346D01*
X99485924Y-72927396D01*
X99487322Y-72907420D01*
X99488352Y-72898812D01*
X99489641Y-72891066D01*
X99491215Y-72884137D01*
X99493104Y-72877983D01*
X99495334Y-72872558D01*
X99497933Y-72867819D01*
X99500930Y-72863722D01*
X99504351Y-72860223D01*
X99508226Y-72857278D01*
X99512582Y-72854842D01*
X99517446Y-72852873D01*
X99522847Y-72851326D01*
X99528812Y-72850157D01*
X99535369Y-72849323D01*
X99542546Y-72848778D01*
X99550371Y-72848480D01*
X99568076Y-72848447D01*
X99612484Y-72849401D01*
X99676809Y-72850581D01*
X99675204Y-72939878D01*
X99673588Y-73063008D01*
X99671949Y-73233648D01*
X99670294Y-73438120D01*
X99574382Y-73442005D01*
X99478471Y-73445890D01*
X99478471Y-74213181D01*
X99676909Y-74226411D01*
X99676458Y-74322322D01*
X99676008Y-74418233D01*
X99868750Y-74418233D01*
X99868750Y-74616670D01*
X99977891Y-74618320D01*
X100173021Y-74621626D01*
X100259011Y-74623286D01*
X100262891Y-74718929D01*
X100266771Y-74814574D01*
X100854402Y-74818149D01*
X101442032Y-74821724D01*
X101445833Y-74722505D01*
X101449633Y-74623286D01*
X102037182Y-74616167D01*
X102044946Y-74424847D01*
X102127628Y-74423193D01*
X102160776Y-74422422D01*
X102189908Y-74421542D01*
X102211879Y-74420661D01*
X102219194Y-74420254D01*
X102223539Y-74419888D01*
X102224235Y-74419677D01*
X102224920Y-74419224D01*
X102226255Y-74417612D01*
X102227537Y-74415097D01*
X102228762Y-74411722D01*
X102229922Y-74407533D01*
X102231012Y-74402573D01*
X102232959Y-74390520D01*
X102234555Y-74375917D01*
X102235753Y-74359118D01*
X102236507Y-74340480D01*
X102236769Y-74320355D01*
X102236769Y-74222477D01*
X102312836Y-74225457D01*
X102357215Y-74229085D01*
X102374726Y-74230072D01*
X102389439Y-74228688D01*
X102401595Y-74223569D01*
X102411433Y-74213349D01*
X102419193Y-74196663D01*
X102425117Y-74172147D01*
X102429444Y-74138435D01*
X102432414Y-74094164D01*
X102435247Y-73968480D01*
X102435206Y-73530338D01*
X102435206Y-72843964D01*
X102236769Y-72843964D01*
X102236769Y-72645527D01*
X102038331Y-72645527D01*
X102038331Y-72248652D01*
X101839895Y-72248652D01*
X101839895Y-71857473D01*
X101743984Y-71857923D01*
X101648072Y-71858373D01*
X101641458Y-71756999D01*
X101634843Y-71655625D01*
X100265625Y-71657435D01*
X100265625Y-71851755D01*
X100067187Y-71851755D01*
X100067187Y-72248630D01*
X99868750Y-72248630D01*
X99868750Y-72843942D01*
X99674537Y-72843942D01*
X99677137Y-72509906D01*
X99677669Y-72375248D01*
X99677198Y-72255534D01*
X99675834Y-72163788D01*
X99674853Y-72132472D01*
X99673692Y-72113031D01*
X99667649Y-72050192D01*
X99485106Y-72050192D01*
X99485106Y-71269672D01*
X99670314Y-71269672D01*
X99671969Y-71223370D01*
X99672369Y-71213799D01*
X99672872Y-71204348D01*
X99673458Y-71195261D01*
X99674108Y-71186783D01*
X99674800Y-71179158D01*
X99675514Y-71172629D01*
X99676231Y-71167441D01*
X99676583Y-71165427D01*
X99676929Y-71163839D01*
X99677627Y-71160372D01*
X99678344Y-71155571D01*
X99679058Y-71149654D01*
X99679750Y-71142838D01*
X99680399Y-71135340D01*
X99680986Y-71127376D01*
X99681489Y-71119165D01*
X99681889Y-71110922D01*
X99683544Y-71071235D01*
X99868752Y-71071235D01*
X99870407Y-71031548D01*
X99871310Y-71014050D01*
X99872546Y-70995747D01*
X99873952Y-70978807D01*
X99874668Y-70971527D01*
X99875367Y-70965402D01*
X99876782Y-70952519D01*
X99878188Y-70937000D01*
X99879423Y-70920800D01*
X99880326Y-70905870D01*
X99881981Y-70872797D01*
X100648114Y-70872797D01*
X100651999Y-70968709D01*
X100655884Y-71064620D01*
X101342255Y-71071235D01*
X102028627Y-71077850D01*
X102031717Y-71263058D01*
X102427437Y-71276288D01*
X102423739Y-71345500D01*
X102422729Y-71366066D01*
X102422119Y-71384200D01*
X102422040Y-71400055D01*
X102422622Y-71413782D01*
X102423202Y-71419896D01*
X102423996Y-71425535D01*
X102425021Y-71430719D01*
X102426292Y-71435466D01*
X102427827Y-71439796D01*
X102429641Y-71443727D01*
X102431751Y-71447280D01*
X102434174Y-71450471D01*
X102436924Y-71453322D01*
X102440020Y-71455851D01*
X102443477Y-71458077D01*
X102447311Y-71460019D01*
X102451539Y-71461696D01*
X102456177Y-71463127D01*
X102461241Y-71464331D01*
X102466748Y-71465328D01*
X102472715Y-71466136D01*
X102479156Y-71466774D01*
X102493531Y-71467618D01*
X102510003Y-71468013D01*
X102528702Y-71468111D01*
X102620415Y-71468111D01*
X102620415Y-71666548D01*
X103030519Y-71666548D01*
X103030519Y-71468111D01*
X103813315Y-71468111D01*
X103810328Y-71517720D01*
X103809765Y-71528698D01*
X103809314Y-71540897D01*
X103808761Y-71567329D01*
X103808708Y-71593762D01*
X103808880Y-71605961D01*
X103809190Y-71616939D01*
X103811039Y-71666548D01*
X104012939Y-71666548D01*
X104005659Y-71711410D01*
X104004345Y-71721531D01*
X104003407Y-71733118D01*
X104002845Y-71745763D01*
X104002659Y-71759060D01*
X104002848Y-71772603D01*
X104003413Y-71785983D01*
X104004354Y-71798794D01*
X104005670Y-71810628D01*
X104012960Y-71864986D01*
X104209684Y-71864986D01*
X104201300Y-72632248D01*
X104154998Y-72633158D01*
X104134573Y-72633913D01*
X104112346Y-72635328D01*
X104089629Y-72637253D01*
X104067730Y-72639538D01*
X104047961Y-72642032D01*
X104031632Y-72644586D01*
X104025168Y-72645838D01*
X104020054Y-72647048D01*
X104016456Y-72648198D01*
X104015276Y-72648745D01*
X104014537Y-72649269D01*
X104014169Y-72650084D01*
X104013781Y-72651782D01*
X104012963Y-72657638D01*
X104012108Y-72666456D01*
X104011241Y-72677859D01*
X104009580Y-72706900D01*
X104008188Y-72741727D01*
X104007682Y-72756432D01*
X104007148Y-72769434D01*
X104006544Y-72780839D01*
X104005832Y-72790754D01*
X104005423Y-72795187D01*
X104004972Y-72799287D01*
X104004474Y-72803068D01*
X104003924Y-72806543D01*
X104003316Y-72809726D01*
X104002647Y-72812630D01*
X104001911Y-72815268D01*
X104001103Y-72817653D01*
X104000218Y-72819800D01*
X103999250Y-72821720D01*
X103998196Y-72823429D01*
X103997051Y-72824938D01*
X103995808Y-72826261D01*
X103994463Y-72827412D01*
X103993012Y-72828404D01*
X103991448Y-72829250D01*
X103989768Y-72829964D01*
X103987967Y-72830559D01*
X103986038Y-72831047D01*
X103983978Y-72831444D01*
X103981780Y-72831761D01*
X103979442Y-72832013D01*
X103974319Y-72832372D01*
X103967824Y-72832771D01*
X103961243Y-72833274D01*
X103954757Y-72833861D01*
X103948548Y-72834510D01*
X103942796Y-72835202D01*
X103937684Y-72835916D01*
X103933392Y-72836633D01*
X103930102Y-72837331D01*
X103926364Y-72838030D01*
X103920790Y-72838746D01*
X103913649Y-72839460D01*
X103905215Y-72840152D01*
X103885547Y-72841388D01*
X103863956Y-72842291D01*
X103811039Y-72843946D01*
X103811039Y-73029155D01*
X103612602Y-73029155D01*
X103612602Y-74021342D01*
X103414164Y-74021342D01*
X103414164Y-74418217D01*
X103215727Y-74418217D01*
X103215727Y-74629884D01*
X103414164Y-74629884D01*
X103414164Y-74812921D01*
X103320402Y-74817316D01*
X103301455Y-74818086D01*
X103283565Y-74818586D01*
X103267137Y-74818822D01*
X103252579Y-74818798D01*
X103240298Y-74818519D01*
X103235138Y-74818285D01*
X103230700Y-74817989D01*
X103227035Y-74817632D01*
X103224193Y-74817213D01*
X103222225Y-74816735D01*
X103221585Y-74816473D01*
X103221183Y-74816196D01*
X103220627Y-74815166D01*
X103220087Y-74813244D01*
X103219064Y-74806923D01*
X103218138Y-74797627D01*
X103217330Y-74785749D01*
X103216662Y-74771682D01*
X103216157Y-74755821D01*
X103215838Y-74738557D01*
X103215727Y-74720285D01*
X103215727Y-74629886D01*
X103172732Y-74629351D01*
X103023784Y-74625901D01*
X102847212Y-74619877D01*
X102698925Y-74613425D01*
X102652860Y-74610711D01*
X102634832Y-74608695D01*
X102634295Y-74607711D01*
X102633801Y-74605843D01*
X102632954Y-74599647D01*
X102632302Y-74590495D01*
X102631854Y-74578776D01*
X102631620Y-74564878D01*
X102631612Y-74549190D01*
X102631839Y-74532100D01*
X102632312Y-74513996D01*
X102635218Y-74424393D01*
X102435207Y-74424393D01*
X102435207Y-74520524D01*
X102435148Y-74532704D01*
X102434971Y-74544006D01*
X102434673Y-74554443D01*
X102434252Y-74564031D01*
X102433704Y-74572784D01*
X102433028Y-74580716D01*
X102432222Y-74587842D01*
X102431768Y-74591107D01*
X102431282Y-74594176D01*
X102430761Y-74597050D01*
X102430206Y-74599733D01*
X102429616Y-74602224D01*
X102428992Y-74604526D01*
X102428333Y-74606642D01*
X102427638Y-74608572D01*
X102426907Y-74610318D01*
X102426140Y-74611883D01*
X102425337Y-74613268D01*
X102424497Y-74614475D01*
X102423620Y-74615505D01*
X102422706Y-74616361D01*
X102421754Y-74617045D01*
X102420765Y-74617557D01*
X102419737Y-74617901D01*
X102418670Y-74618077D01*
X102405986Y-74618777D01*
X102383675Y-74619634D01*
X102322759Y-74621382D01*
X102243384Y-74623267D01*
X102239497Y-74719179D01*
X102235609Y-74815089D01*
X102179965Y-74816429D01*
X102154967Y-74816763D01*
X102128036Y-74816683D01*
X102102411Y-74816223D01*
X102091098Y-74815860D01*
X102081326Y-74815414D01*
X102038331Y-74813059D01*
X102038331Y-75211961D01*
X101839894Y-75211961D01*
X101839894Y-75410398D01*
X102038331Y-75410398D01*
X102038331Y-75609071D01*
X102729445Y-75605647D01*
X103420559Y-75602222D01*
X103417767Y-75506310D01*
X103414975Y-75410399D01*
X103613309Y-75410399D01*
X103605987Y-75020139D01*
X103420779Y-75020139D01*
X103416892Y-74924227D01*
X103413005Y-74828316D01*
X103612601Y-74828316D01*
X103612601Y-74920920D01*
X103612653Y-74930362D01*
X103612804Y-74939557D01*
X103613049Y-74948457D01*
X103613384Y-74957013D01*
X103613803Y-74965176D01*
X103614302Y-74972898D01*
X103614874Y-74980132D01*
X103615516Y-74986828D01*
X103616221Y-74992938D01*
X103616986Y-74998414D01*
X103617804Y-75003208D01*
X103618671Y-75007270D01*
X103619581Y-75010554D01*
X103620530Y-75013010D01*
X103621017Y-75013912D01*
X103621512Y-75014590D01*
X103622015Y-75015036D01*
X103622523Y-75015245D01*
X103632617Y-75016674D01*
X103646500Y-75018176D01*
X103682297Y-75021156D01*
X103723232Y-75023702D01*
X103762626Y-75025336D01*
X103813433Y-75026751D01*
X103804529Y-75595605D01*
X103728409Y-75597260D01*
X103697548Y-75598032D01*
X103669792Y-75598914D01*
X103648180Y-75599796D01*
X103640628Y-75600203D01*
X103635753Y-75600569D01*
X103633715Y-75601137D01*
X103631781Y-75602425D01*
X103629952Y-75604437D01*
X103628226Y-75607176D01*
X103626603Y-75610644D01*
X103625082Y-75614846D01*
X103623663Y-75619784D01*
X103622344Y-75625462D01*
X103621125Y-75631883D01*
X103620005Y-75639051D01*
X103618061Y-75655638D01*
X103616506Y-75675250D01*
X103615334Y-75697912D01*
X103611452Y-75793600D01*
X103271376Y-75797131D01*
X103271364Y-75797134D01*
X102969008Y-75799117D01*
X102719621Y-75798955D01*
X102181112Y-75795650D01*
X101854270Y-75794050D01*
X101846496Y-75602227D01*
X101750584Y-75598342D01*
X101654673Y-75594457D01*
X101652860Y-75426365D01*
X101651604Y-75300849D01*
X101651136Y-75235121D01*
X101650407Y-75230193D01*
X101648025Y-75225792D01*
X101643766Y-75221902D01*
X101637400Y-75218506D01*
X101628701Y-75215587D01*
X101617441Y-75213128D01*
X101603394Y-75211113D01*
X101586332Y-75209524D01*
X101542253Y-75207559D01*
X101483387Y-75207098D01*
X101407916Y-75208007D01*
X101314022Y-75210151D01*
X101244569Y-75211971D01*
X101244569Y-75397180D01*
X101165194Y-75398835D01*
X101133069Y-75399608D01*
X101104278Y-75400490D01*
X101081967Y-75401371D01*
X101074224Y-75401778D01*
X101069283Y-75402145D01*
X101067244Y-75402713D01*
X101065310Y-75404003D01*
X101063480Y-75406018D01*
X101061754Y-75408761D01*
X101060984Y-75410410D01*
X101060131Y-75412236D01*
X101058610Y-75416446D01*
G36*
X101046144Y-72843941D02*
G01*
X101244581Y-72843941D01*
X101244581Y-73240816D01*
X101059373Y-73240816D01*
X101057719Y-73346650D01*
X101055886Y-73431940D01*
X101053262Y-73516748D01*
X101050385Y-73585959D01*
X101049022Y-73609994D01*
X101047797Y-73624462D01*
X101047798Y-73624462D01*
X101047595Y-73625149D01*
X101047162Y-73625827D01*
X101045632Y-73627149D01*
X101043250Y-73628423D01*
X101040062Y-73629642D01*
X101036112Y-73630800D01*
X101031444Y-73631890D01*
X101026103Y-73632907D01*
X101020133Y-73633844D01*
X101006484Y-73635451D01*
X100990852Y-73636662D01*
X100973592Y-73637426D01*
X100955059Y-73637691D01*
X100863975Y-73637691D01*
X100854563Y-73237509D01*
X100850805Y-73004332D01*
X100850569Y-72786789D01*
X100851739Y-72688442D01*
X100853749Y-72599476D01*
X100856586Y-72521717D01*
X100860238Y-72456989D01*
X100860394Y-72456480D01*
X100860789Y-72455978D01*
X100862268Y-72454995D01*
X100864626Y-72454046D01*
X100867816Y-72453136D01*
X100871789Y-72452269D01*
X100876498Y-72451451D01*
X100887933Y-72449981D01*
X100901737Y-72448767D01*
X100917528Y-72447849D01*
X100934923Y-72447269D01*
X100953540Y-72447066D01*
X101046144Y-72447066D01*
X101046144Y-72843941D01*
G37*
X101046144Y-72843941D02*
X101244581Y-72843941D01*
X101244581Y-73240816D01*
X101059373Y-73240816D01*
X101057719Y-73346650D01*
X101055886Y-73431940D01*
X101053262Y-73516748D01*
X101050385Y-73585959D01*
X101049022Y-73609994D01*
X101047797Y-73624462D01*
X101047798Y-73624462D01*
X101047595Y-73625149D01*
X101047162Y-73625827D01*
X101045632Y-73627149D01*
X101043250Y-73628423D01*
X101040062Y-73629642D01*
X101036112Y-73630800D01*
X101031444Y-73631890D01*
X101026103Y-73632907D01*
X101020133Y-73633844D01*
X101006484Y-73635451D01*
X100990852Y-73636662D01*
X100973592Y-73637426D01*
X100955059Y-73637691D01*
X100863975Y-73637691D01*
X100854563Y-73237509D01*
X100850805Y-73004332D01*
X100850569Y-72786789D01*
X100851739Y-72688442D01*
X100853749Y-72599476D01*
X100856586Y-72521717D01*
X100860238Y-72456989D01*
X100860394Y-72456480D01*
X100860789Y-72455978D01*
X100862268Y-72454995D01*
X100864626Y-72454046D01*
X100867816Y-72453136D01*
X100871789Y-72452269D01*
X100876498Y-72451451D01*
X100887933Y-72449981D01*
X100901737Y-72448767D01*
X100917528Y-72447849D01*
X100934923Y-72447269D01*
X100953540Y-72447066D01*
X101046144Y-72447066D01*
X101046144Y-72843941D01*
G36*
X100464061Y-72447066D02*
G01*
X100265623Y-72447066D01*
X100265623Y-72248629D01*
X100464061Y-72248629D01*
X100464061Y-72447066D01*
G37*
X100464061Y-72447066D02*
X100265623Y-72447066D01*
X100265623Y-72248629D01*
X100464061Y-72248629D01*
X100464061Y-72447066D01*
D11*
X104969800Y-77004028D02*
X104969800Y-76404028D01*
X104741228Y-76404028D01*
X104684085Y-76432600D01*
X104655514Y-76461171D01*
X104626942Y-76518314D01*
X104626942Y-76604028D01*
X104655514Y-76661171D01*
X104684085Y-76689742D01*
X104741228Y-76718314D01*
X104969800Y-76718314D01*
X104112657Y-77004028D02*
X104112657Y-76689742D01*
X104141228Y-76632600D01*
X104198371Y-76604028D01*
X104312657Y-76604028D01*
X104369800Y-76632600D01*
X104112657Y-76975457D02*
X104169800Y-77004028D01*
X104312657Y-77004028D01*
X104369800Y-76975457D01*
X104398371Y-76918314D01*
X104398371Y-76861171D01*
X104369800Y-76804028D01*
X104312657Y-76775457D01*
X104169800Y-76775457D01*
X104112657Y-76746885D01*
X103912657Y-76604028D02*
X103684085Y-76604028D01*
X103826942Y-76404028D02*
X103826942Y-76918314D01*
X103798371Y-76975457D01*
X103741228Y-77004028D01*
X103684085Y-77004028D01*
X103484085Y-77004028D02*
X103484085Y-76604028D01*
X103484085Y-76718314D02*
X103455514Y-76661171D01*
X103426942Y-76632600D01*
X103369800Y-76604028D01*
X103312657Y-76604028D01*
X103112657Y-77004028D02*
X103112657Y-76604028D01*
X103112657Y-76404028D02*
X103141228Y-76432600D01*
X103112657Y-76461171D01*
X103084085Y-76432600D01*
X103112657Y-76404028D01*
X103112657Y-76461171D01*
X102569800Y-76975457D02*
X102626942Y-77004028D01*
X102741228Y-77004028D01*
X102798371Y-76975457D01*
X102826942Y-76946885D01*
X102855514Y-76889742D01*
X102855514Y-76718314D01*
X102826942Y-76661171D01*
X102798371Y-76632600D01*
X102741228Y-76604028D01*
X102626942Y-76604028D01*
X102569800Y-76632600D01*
X102312657Y-77004028D02*
X102312657Y-76404028D01*
X102255514Y-76775457D02*
X102084085Y-77004028D01*
X102084085Y-76604028D02*
X102312657Y-76832600D01*
X101369800Y-77004028D02*
X101369800Y-76404028D01*
X101141228Y-76404028D01*
X101084085Y-76432600D01*
X101055514Y-76461171D01*
X101026942Y-76518314D01*
X101026942Y-76604028D01*
X101055514Y-76661171D01*
X101084085Y-76689742D01*
X101141228Y-76718314D01*
X101369800Y-76718314D01*
X100541228Y-76975457D02*
X100598371Y-77004028D01*
X100712657Y-77004028D01*
X100769800Y-76975457D01*
X100798371Y-76918314D01*
X100798371Y-76689742D01*
X100769800Y-76632600D01*
X100712657Y-76604028D01*
X100598371Y-76604028D01*
X100541228Y-76632600D01*
X100512657Y-76689742D01*
X100512657Y-76746885D01*
X100798371Y-76804028D01*
X99998371Y-77004028D02*
X99998371Y-76404028D01*
X99998371Y-76975457D02*
X100055514Y-77004028D01*
X100169800Y-77004028D01*
X100226942Y-76975457D01*
X100255514Y-76946885D01*
X100284085Y-76889742D01*
X100284085Y-76718314D01*
X100255514Y-76661171D01*
X100226942Y-76632600D01*
X100169800Y-76604028D01*
X100055514Y-76604028D01*
X99998371Y-76632600D01*
X99484085Y-76975457D02*
X99541228Y-77004028D01*
X99655514Y-77004028D01*
X99712657Y-76975457D01*
X99741228Y-76918314D01*
X99741228Y-76689742D01*
X99712657Y-76632600D01*
X99655514Y-76604028D01*
X99541228Y-76604028D01*
X99484085Y-76632600D01*
X99455514Y-76689742D01*
X99455514Y-76746885D01*
X99741228Y-76804028D01*
X99198371Y-77004028D02*
X99198371Y-76604028D01*
X99198371Y-76718314D02*
X99169800Y-76661171D01*
X99141228Y-76632600D01*
X99084085Y-76604028D01*
X99026942Y-76604028D01*
X98855514Y-76975457D02*
X98798371Y-77004028D01*
X98684085Y-77004028D01*
X98626942Y-76975457D01*
X98598371Y-76918314D01*
X98598371Y-76889742D01*
X98626942Y-76832600D01*
X98684085Y-76804028D01*
X98769800Y-76804028D01*
X98826942Y-76775457D01*
X98855514Y-76718314D01*
X98855514Y-76689742D01*
X98826942Y-76632600D01*
X98769800Y-76604028D01*
X98684085Y-76604028D01*
X98626942Y-76632600D01*
X98112657Y-76975457D02*
X98169800Y-77004028D01*
X98284085Y-77004028D01*
X98341228Y-76975457D01*
X98369800Y-76918314D01*
X98369800Y-76689742D01*
X98341228Y-76632600D01*
X98284085Y-76604028D01*
X98169800Y-76604028D01*
X98112657Y-76632600D01*
X98084085Y-76689742D01*
X98084085Y-76746885D01*
X98369800Y-76804028D01*
X97826942Y-76604028D02*
X97826942Y-77004028D01*
X97826942Y-76661171D02*
X97798371Y-76632600D01*
X97741228Y-76604028D01*
X97655514Y-76604028D01*
X97598371Y-76632600D01*
X97569800Y-76689742D01*
X97569800Y-77004028D01*
X109012657Y-77370028D02*
X108669800Y-77370028D01*
X108841228Y-77970028D02*
X108841228Y-77370028D01*
X108498371Y-77798600D02*
X108212657Y-77798600D01*
X108555514Y-77970028D02*
X108355514Y-77370028D01*
X108155514Y-77970028D01*
X107955514Y-77970028D02*
X107955514Y-77370028D01*
X107726942Y-77370028D01*
X107669800Y-77398600D01*
X107641228Y-77427171D01*
X107612657Y-77484314D01*
X107612657Y-77570028D01*
X107641228Y-77627171D01*
X107669800Y-77655742D01*
X107726942Y-77684314D01*
X107955514Y-77684314D01*
X107012657Y-77970028D02*
X107212657Y-77684314D01*
X107355514Y-77970028D02*
X107355514Y-77370028D01*
X107126942Y-77370028D01*
X107069800Y-77398600D01*
X107041228Y-77427171D01*
X107012657Y-77484314D01*
X107012657Y-77570028D01*
X107041228Y-77627171D01*
X107069800Y-77655742D01*
X107126942Y-77684314D01*
X107355514Y-77684314D01*
X106184085Y-77370028D02*
X106069800Y-77370028D01*
X106012657Y-77398600D01*
X105955514Y-77455742D01*
X105926942Y-77570028D01*
X105926942Y-77770028D01*
X105955514Y-77884314D01*
X106012657Y-77941457D01*
X106069800Y-77970028D01*
X106184085Y-77970028D01*
X106241228Y-77941457D01*
X106298371Y-77884314D01*
X106326942Y-77770028D01*
X106326942Y-77570028D01*
X106298371Y-77455742D01*
X106241228Y-77398600D01*
X106184085Y-77370028D01*
X105669800Y-77570028D02*
X105669800Y-78170028D01*
X105669800Y-77598600D02*
X105612657Y-77570028D01*
X105498371Y-77570028D01*
X105441228Y-77598600D01*
X105412657Y-77627171D01*
X105384085Y-77684314D01*
X105384085Y-77855742D01*
X105412657Y-77912885D01*
X105441228Y-77941457D01*
X105498371Y-77970028D01*
X105612657Y-77970028D01*
X105669800Y-77941457D01*
X104898371Y-77941457D02*
X104955514Y-77970028D01*
X105069800Y-77970028D01*
X105126942Y-77941457D01*
X105155514Y-77884314D01*
X105155514Y-77655742D01*
X105126942Y-77598600D01*
X105069800Y-77570028D01*
X104955514Y-77570028D01*
X104898371Y-77598600D01*
X104869800Y-77655742D01*
X104869800Y-77712885D01*
X105155514Y-77770028D01*
X104612657Y-77570028D02*
X104612657Y-77970028D01*
X104612657Y-77627171D02*
X104584085Y-77598600D01*
X104526942Y-77570028D01*
X104441228Y-77570028D01*
X104384085Y-77598600D01*
X104355514Y-77655742D01*
X104355514Y-77970028D01*
X103612657Y-77970028D02*
X103612657Y-77370028D01*
X103612657Y-77655742D02*
X103269800Y-77655742D01*
X103269800Y-77970028D02*
X103269800Y-77370028D01*
X102726942Y-77970028D02*
X102726942Y-77655742D01*
X102755514Y-77598600D01*
X102812657Y-77570028D01*
X102926942Y-77570028D01*
X102984085Y-77598600D01*
X102726942Y-77941457D02*
X102784085Y-77970028D01*
X102926942Y-77970028D01*
X102984085Y-77941457D01*
X103012657Y-77884314D01*
X103012657Y-77827171D01*
X102984085Y-77770028D01*
X102926942Y-77741457D01*
X102784085Y-77741457D01*
X102726942Y-77712885D01*
X102441228Y-77970028D02*
X102441228Y-77570028D01*
X102441228Y-77684314D02*
X102412657Y-77627171D01*
X102384085Y-77598600D01*
X102326942Y-77570028D01*
X102269800Y-77570028D01*
X101812657Y-77970028D02*
X101812657Y-77370028D01*
X101812657Y-77941457D02*
X101869800Y-77970028D01*
X101984085Y-77970028D01*
X102041228Y-77941457D01*
X102069800Y-77912885D01*
X102098371Y-77855742D01*
X102098371Y-77684314D01*
X102069800Y-77627171D01*
X102041228Y-77598600D01*
X101984085Y-77570028D01*
X101869800Y-77570028D01*
X101812657Y-77598600D01*
X101584085Y-77570028D02*
X101469800Y-77970028D01*
X101355514Y-77684314D01*
X101241228Y-77970028D01*
X101126942Y-77570028D01*
X100641228Y-77970028D02*
X100641228Y-77655742D01*
X100669800Y-77598600D01*
X100726942Y-77570028D01*
X100841228Y-77570028D01*
X100898371Y-77598600D01*
X100641228Y-77941457D02*
X100698371Y-77970028D01*
X100841228Y-77970028D01*
X100898371Y-77941457D01*
X100926942Y-77884314D01*
X100926942Y-77827171D01*
X100898371Y-77770028D01*
X100841228Y-77741457D01*
X100698371Y-77741457D01*
X100641228Y-77712885D01*
X100355514Y-77970028D02*
X100355514Y-77570028D01*
X100355514Y-77684314D02*
X100326942Y-77627171D01*
X100298371Y-77598600D01*
X100241228Y-77570028D01*
X100184085Y-77570028D01*
X99755514Y-77941457D02*
X99812657Y-77970028D01*
X99926942Y-77970028D01*
X99984085Y-77941457D01*
X100012657Y-77884314D01*
X100012657Y-77655742D01*
X99984085Y-77598600D01*
X99926942Y-77570028D01*
X99812657Y-77570028D01*
X99755514Y-77598600D01*
X99726942Y-77655742D01*
X99726942Y-77712885D01*
X100012657Y-77770028D01*
X98726942Y-77970028D02*
X99012657Y-77970028D01*
X99012657Y-77370028D01*
X98526942Y-77970028D02*
X98526942Y-77570028D01*
X98526942Y-77370028D02*
X98555514Y-77398600D01*
X98526942Y-77427171D01*
X98498371Y-77398600D01*
X98526942Y-77370028D01*
X98526942Y-77427171D01*
X97984085Y-77941457D02*
X98041228Y-77970028D01*
X98155514Y-77970028D01*
X98212657Y-77941457D01*
X98241228Y-77912885D01*
X98269800Y-77855742D01*
X98269800Y-77684314D01*
X98241228Y-77627171D01*
X98212657Y-77598600D01*
X98155514Y-77570028D01*
X98041228Y-77570028D01*
X97984085Y-77598600D01*
X97498371Y-77941457D02*
X97555514Y-77970028D01*
X97669800Y-77970028D01*
X97726942Y-77941457D01*
X97755514Y-77884314D01*
X97755514Y-77655742D01*
X97726942Y-77598600D01*
X97669800Y-77570028D01*
X97555514Y-77570028D01*
X97498371Y-77598600D01*
X97469800Y-77655742D01*
X97469800Y-77712885D01*
X97755514Y-77770028D01*
X97212657Y-77570028D02*
X97212657Y-77970028D01*
X97212657Y-77627171D02*
X97184085Y-77598600D01*
X97126942Y-77570028D01*
X97041228Y-77570028D01*
X96984085Y-77598600D01*
X96955514Y-77655742D01*
X96955514Y-77970028D01*
X96698371Y-77941457D02*
X96641228Y-77970028D01*
X96526942Y-77970028D01*
X96469800Y-77941457D01*
X96441228Y-77884314D01*
X96441228Y-77855742D01*
X96469800Y-77798600D01*
X96526942Y-77770028D01*
X96612657Y-77770028D01*
X96669800Y-77741457D01*
X96698371Y-77684314D01*
X96698371Y-77655742D01*
X96669800Y-77598600D01*
X96612657Y-77570028D01*
X96526942Y-77570028D01*
X96469800Y-77598600D01*
X95955514Y-77941457D02*
X96012657Y-77970028D01*
X96126942Y-77970028D01*
X96184085Y-77941457D01*
X96212657Y-77884314D01*
X96212657Y-77655742D01*
X96184085Y-77598600D01*
X96126942Y-77570028D01*
X96012657Y-77570028D01*
X95955514Y-77598600D01*
X95926942Y-77655742D01*
X95926942Y-77712885D01*
X96212657Y-77770028D01*
X95269800Y-77570028D02*
X95126942Y-77970028D01*
X94984085Y-77570028D01*
X94441228Y-77970028D02*
X94784085Y-77970028D01*
X94612657Y-77970028D02*
X94612657Y-77370028D01*
X94669800Y-77455742D01*
X94726942Y-77512885D01*
X94784085Y-77541457D01*
X94184085Y-77912885D02*
X94155514Y-77941457D01*
X94184085Y-77970028D01*
X94212657Y-77941457D01*
X94184085Y-77912885D01*
X94184085Y-77970028D01*
X93784085Y-77370028D02*
X93726942Y-77370028D01*
X93669800Y-77398600D01*
X93641228Y-77427171D01*
X93612657Y-77484314D01*
X93584085Y-77598600D01*
X93584085Y-77741457D01*
X93612657Y-77855742D01*
X93641228Y-77912885D01*
X93669800Y-77941457D01*
X93726942Y-77970028D01*
X93784085Y-77970028D01*
X93841228Y-77941457D01*
X93869800Y-77912885D01*
X93898371Y-77855742D01*
X93926942Y-77741457D01*
X93926942Y-77598600D01*
X93898371Y-77484314D01*
X93869800Y-77427171D01*
X93841228Y-77398600D01*
X93784085Y-77370028D01*
X108426942Y-78936028D02*
X108426942Y-78336028D01*
X108226942Y-78764600D01*
X108026942Y-78336028D01*
X108026942Y-78936028D01*
X107484085Y-78936028D02*
X107484085Y-78621742D01*
X107512657Y-78564600D01*
X107569800Y-78536028D01*
X107684085Y-78536028D01*
X107741228Y-78564600D01*
X107484085Y-78907457D02*
X107541228Y-78936028D01*
X107684085Y-78936028D01*
X107741228Y-78907457D01*
X107769800Y-78850314D01*
X107769800Y-78793171D01*
X107741228Y-78736028D01*
X107684085Y-78707457D01*
X107541228Y-78707457D01*
X107484085Y-78678885D01*
X106941228Y-78936028D02*
X106941228Y-78336028D01*
X106941228Y-78907457D02*
X106998371Y-78936028D01*
X107112657Y-78936028D01*
X107169800Y-78907457D01*
X107198371Y-78878885D01*
X107226942Y-78821742D01*
X107226942Y-78650314D01*
X107198371Y-78593171D01*
X107169800Y-78564600D01*
X107112657Y-78536028D01*
X106998371Y-78536028D01*
X106941228Y-78564600D01*
X106426942Y-78907457D02*
X106484085Y-78936028D01*
X106598371Y-78936028D01*
X106655514Y-78907457D01*
X106684085Y-78850314D01*
X106684085Y-78621742D01*
X106655514Y-78564600D01*
X106598371Y-78536028D01*
X106484085Y-78536028D01*
X106426942Y-78564600D01*
X106398371Y-78621742D01*
X106398371Y-78678885D01*
X106684085Y-78736028D01*
X105684085Y-78936028D02*
X105684085Y-78536028D01*
X105684085Y-78336028D02*
X105712657Y-78364600D01*
X105684085Y-78393171D01*
X105655514Y-78364600D01*
X105684085Y-78336028D01*
X105684085Y-78393171D01*
X105398371Y-78536028D02*
X105398371Y-78936028D01*
X105398371Y-78593171D02*
X105369800Y-78564600D01*
X105312657Y-78536028D01*
X105226942Y-78536028D01*
X105169800Y-78564600D01*
X105141228Y-78621742D01*
X105141228Y-78936028D01*
X104484085Y-78536028D02*
X104255514Y-78536028D01*
X104398371Y-78336028D02*
X104398371Y-78850314D01*
X104369800Y-78907457D01*
X104312657Y-78936028D01*
X104255514Y-78936028D01*
X104055514Y-78936028D02*
X104055514Y-78336028D01*
X103798371Y-78936028D02*
X103798371Y-78621742D01*
X103826942Y-78564600D01*
X103884085Y-78536028D01*
X103969800Y-78536028D01*
X104026942Y-78564600D01*
X104055514Y-78593171D01*
X103284085Y-78907457D02*
X103341228Y-78936028D01*
X103455514Y-78936028D01*
X103512657Y-78907457D01*
X103541228Y-78850314D01*
X103541228Y-78621742D01*
X103512657Y-78564600D01*
X103455514Y-78536028D01*
X103341228Y-78536028D01*
X103284085Y-78564600D01*
X103255514Y-78621742D01*
X103255514Y-78678885D01*
X103541228Y-78736028D01*
X102626942Y-78336028D02*
X102284085Y-78336028D01*
X102455514Y-78936028D02*
X102455514Y-78336028D01*
X102084085Y-78336028D02*
X102084085Y-78821742D01*
X102055514Y-78878885D01*
X102026942Y-78907457D01*
X101969800Y-78936028D01*
X101855514Y-78936028D01*
X101798371Y-78907457D01*
X101769800Y-78878885D01*
X101741228Y-78821742D01*
X101741228Y-78336028D01*
X101455514Y-78707457D02*
X100998371Y-78707457D01*
X100712657Y-78936028D02*
X100712657Y-78336028D01*
X100569800Y-78336028D01*
X100484085Y-78364600D01*
X100426942Y-78421742D01*
X100398371Y-78478885D01*
X100369800Y-78593171D01*
X100369800Y-78678885D01*
X100398371Y-78793171D01*
X100426942Y-78850314D01*
X100484085Y-78907457D01*
X100569800Y-78936028D01*
X100712657Y-78936028D01*
X99998371Y-78336028D02*
X99884085Y-78336028D01*
X99826942Y-78364600D01*
X99769800Y-78421742D01*
X99741228Y-78536028D01*
X99741228Y-78736028D01*
X99769800Y-78850314D01*
X99826942Y-78907457D01*
X99884085Y-78936028D01*
X99998371Y-78936028D01*
X100055514Y-78907457D01*
X100112657Y-78850314D01*
X100141228Y-78736028D01*
X100141228Y-78536028D01*
X100112657Y-78421742D01*
X100055514Y-78364600D01*
X99998371Y-78336028D01*
X99026942Y-78936028D02*
X99026942Y-78336028D01*
X98826942Y-78764600D01*
X98626942Y-78336028D01*
X98626942Y-78936028D01*
X98084085Y-78936028D02*
X98084085Y-78621742D01*
X98112657Y-78564600D01*
X98169800Y-78536028D01*
X98284085Y-78536028D01*
X98341228Y-78564600D01*
X98084085Y-78907457D02*
X98141228Y-78936028D01*
X98284085Y-78936028D01*
X98341228Y-78907457D01*
X98369800Y-78850314D01*
X98369800Y-78793171D01*
X98341228Y-78736028D01*
X98284085Y-78707457D01*
X98141228Y-78707457D01*
X98084085Y-78678885D01*
X97798371Y-78936028D02*
X97798371Y-78336028D01*
X97741228Y-78707457D02*
X97569800Y-78936028D01*
X97569800Y-78536028D02*
X97798371Y-78764600D01*
X97084085Y-78907457D02*
X97141228Y-78936028D01*
X97255514Y-78936028D01*
X97312657Y-78907457D01*
X97341228Y-78850314D01*
X97341228Y-78621742D01*
X97312657Y-78564600D01*
X97255514Y-78536028D01*
X97141228Y-78536028D01*
X97084085Y-78564600D01*
X97055514Y-78621742D01*
X97055514Y-78678885D01*
X97341228Y-78736028D01*
X96798371Y-78936028D02*
X96798371Y-78536028D01*
X96798371Y-78650314D02*
X96769800Y-78593171D01*
X96741228Y-78564600D01*
X96684085Y-78536028D01*
X96626942Y-78536028D01*
X96455514Y-78907457D02*
X96398371Y-78936028D01*
X96284085Y-78936028D01*
X96226942Y-78907457D01*
X96198371Y-78850314D01*
X96198371Y-78821742D01*
X96226942Y-78764600D01*
X96284085Y-78736028D01*
X96369800Y-78736028D01*
X96426942Y-78707457D01*
X96455514Y-78650314D01*
X96455514Y-78621742D01*
X96426942Y-78564600D01*
X96369800Y-78536028D01*
X96284085Y-78536028D01*
X96226942Y-78564600D01*
X95941228Y-78536028D02*
X95941228Y-79136028D01*
X95941228Y-78564600D02*
X95884085Y-78536028D01*
X95769800Y-78536028D01*
X95712657Y-78564600D01*
X95684085Y-78593171D01*
X95655514Y-78650314D01*
X95655514Y-78821742D01*
X95684085Y-78878885D01*
X95712657Y-78907457D01*
X95769800Y-78936028D01*
X95884085Y-78936028D01*
X95941228Y-78907457D01*
X95141228Y-78936028D02*
X95141228Y-78621742D01*
X95169800Y-78564600D01*
X95226942Y-78536028D01*
X95341228Y-78536028D01*
X95398371Y-78564600D01*
X95141228Y-78907457D02*
X95198371Y-78936028D01*
X95341228Y-78936028D01*
X95398371Y-78907457D01*
X95426942Y-78850314D01*
X95426942Y-78793171D01*
X95398371Y-78736028D01*
X95341228Y-78707457D01*
X95198371Y-78707457D01*
X95141228Y-78678885D01*
X94598371Y-78907457D02*
X94655514Y-78936028D01*
X94769800Y-78936028D01*
X94826942Y-78907457D01*
X94855514Y-78878885D01*
X94884085Y-78821742D01*
X94884085Y-78650314D01*
X94855514Y-78593171D01*
X94826942Y-78564600D01*
X94769800Y-78536028D01*
X94655514Y-78536028D01*
X94598371Y-78564600D01*
X94112657Y-78907457D02*
X94169800Y-78936028D01*
X94284085Y-78936028D01*
X94341228Y-78907457D01*
X94369800Y-78850314D01*
X94369800Y-78621742D01*
X94341228Y-78564600D01*
X94284085Y-78536028D01*
X94169800Y-78536028D01*
X94112657Y-78564600D01*
X94084085Y-78621742D01*
X94084085Y-78678885D01*
X94369800Y-78736028D01*
D12*
%TO.C,J1*%
X109098080Y-118922800D03*
X101600000Y-118920260D03*
X94101920Y-118922800D03*
X106596180Y-116420900D03*
X96603820Y-116420900D03*
%TD*%
M02*
