M48
; DRILL file {KiCad 6.0.7-f9a2dced07~116~ubuntu20.04.1} date Di 23 Aug 2022 18:53:06 CEST
; FORMAT={-:-/ absolute / inch / decimal}
; #@! TF.CreationDate,2022-08-23T18:53:06+02:00
; #@! TF.GenerationSoftware,Kicad,Pcbnew,6.0.7-f9a2dced07~116~ubuntu20.04.1
; #@! TF.FileFunction,Plated,1,2,PTH
FMAT,2
INCH
; #@! TA.AperFunction,Plated,PTH,ComponentDrill
T1C0.0276
; #@! TA.AperFunction,Plated,PTH,ComponentDrill
T2C0.0315
; #@! TA.AperFunction,Plated,PTH,ComponentDrill
T3C0.0354
; #@! TA.AperFunction,Plated,PTH,ComponentDrill
T4C0.0374
; #@! TA.AperFunction,Plated,PTH,ComponentDrill
T5C0.0394
; #@! TA.AperFunction,Plated,PTH,ComponentDrill
T6C0.0550
%
G90
G05
T1
X4.2993Y-3.6784
X4.2993Y-3.8784
T2
X3.8604Y-3.5696
X3.8604Y-3.8696
X3.9604Y-3.5696
X3.9604Y-3.8696
X4.0604Y-3.5696
X4.0604Y-3.8696
X4.1604Y-3.5696
X4.1604Y-3.8696
X4.2993Y-3.46
X4.2993Y-3.5584
X4.2993Y-3.99
X4.2993Y-4.29
T3
X3.7Y-3.99
X3.7Y-4.29
T4
X3.7493Y-3.1616
X3.7493Y-3.26
X3.7493Y-3.3584
X4.0787Y-3.1616
X4.0787Y-3.26
X4.0787Y-3.3584
T5
X3.6993Y-3.5708
X3.6993Y-3.8661
T6
X3.7048Y-4.682
X3.8033Y-4.5835
X4.0Y-4.6819
X4.1967Y-4.5835
X4.2952Y-4.682
T0
M30
